<?xml version="1.0" encoding="UTF-8"?>
<svg version="1.1" xmlns="http://www.w3.org/2000/svg" width="1985" height="1985">
<path d="M0 0 C1.13614746 0.55445801 2.27229492 1.10891602 3.44287109 1.68017578 C18.6830857 9.13305092 33.6234708 16.94596279 48.3046875 25.44726562 C50.94331988 26.96734732 53.5938029 28.46398456 56.25 29.953125 C109.44412519 59.84544314 159.02864123 96.07915286 205.40087891 135.63916016 C207.05849996 137.04978302 208.72229828 138.45287789 210.38671875 139.85546875 C218.45706475 146.68195324 226.22078286 153.78702301 233.90258789 161.04614258 C235.4126327 162.4528343 236.93708957 163.84411221 238.47045898 165.2253418 C247.37646646 173.26307341 255.85799453 181.70579781 264.32885742 190.19848633 C266.82161995 192.69663968 269.31972475 195.18936198 271.81835938 197.68164062 C273.42740428 199.29134591 275.03613918 200.90136115 276.64453125 202.51171875 C277.74786552 203.61201668 277.74786552 203.61201668 278.87348938 204.73454285 C282.88960292 208.76870245 286.74146625 212.89060457 290.44892883 217.21081543 C293.00444177 220.15863911 295.69830744 222.9751731 298.375 225.8125 C303.10196376 230.85910944 307.57509143 236.03334148 311.8984375 241.43359375 C313.98001427 243.97559363 316.1503838 246.39529335 318.375 248.8125 C322.43626167 253.26929324 326.15413522 257.92962968 329.84545898 262.69116211 C332.79644135 266.4915842 335.82513535 270.2040058 338.9375 273.875 C344.34507705 280.32151311 349.37062813 287.02668672 354.36865234 293.79345703 C356.06971021 296.09428927 357.77865023 298.38912625 359.48828125 300.68359375 C366.88823293 310.63937646 374.06946015 320.71236334 381 331 C381.46583496 331.68852051 381.93166992 332.37704102 382.41162109 333.08642578 C406.69862348 369.02001909 428.30873914 406.36480769 448 445 C448.51804199 446.00885254 449.03608398 447.01770508 449.56982422 448.05712891 C473.42584604 494.55069921 491.95868954 543.32588231 508 593 C508.39541992 594.21864746 508.79083984 595.43729492 509.19824219 596.69287109 C537.0173993 683.28091835 551.73752484 776.06233646 553 867 C553.01643555 868.17801178 553.01643555 868.17801178 553.03320312 869.37982178 C554.1780078 957.34669752 545.13520734 1044.54235666 524 1130 C523.8081311 1130.77972168 523.61626221 1131.55944336 523.4185791 1132.36279297 C502.41600803 1217.57196485 469.77745026 1301.55835071 425.48828125 1377.43359375 C423.99043494 1380.01649409 422.52242211 1382.61424896 421.0625 1385.21875 C391.17877118 1438.42830645 354.92641743 1488.02211174 315.36083984 1534.40087891 C313.95021698 1536.05849996 312.54712211 1537.72229828 311.14453125 1539.38671875 C304.31804676 1547.45706475 297.21297699 1555.22078286 289.95385742 1562.90258789 C288.5471657 1564.4126327 287.15588779 1565.93708957 285.7746582 1567.47045898 C277.73692659 1576.37646646 269.29420219 1584.85799453 260.80151367 1593.32885742 C258.30336032 1595.82161995 255.81063802 1598.31972475 253.31835938 1600.81835938 C251.70865409 1602.42740428 250.09863885 1604.03613918 248.48828125 1605.64453125 C247.38798332 1606.74786552 247.38798332 1606.74786552 246.26545715 1607.87348938 C242.23129755 1611.88960292 238.10939543 1615.74146625 233.78918457 1619.44892883 C230.84136089 1622.00444177 228.0248269 1624.69830744 225.1875 1627.375 C220.14089056 1632.10196376 214.96665852 1636.57509143 209.56640625 1640.8984375 C207.02440637 1642.98001427 204.60470665 1645.1503838 202.1875 1647.375 C197.73070676 1651.43626167 193.07037032 1655.15413522 188.30883789 1658.84545898 C184.5084158 1661.79644135 180.7959942 1664.82513535 177.125 1667.9375 C170.67848689 1673.34507705 163.97331328 1678.37062813 157.20654297 1683.36865234 C154.90571073 1685.06971021 152.61087375 1686.77865023 150.31640625 1688.48828125 C140.36064648 1695.88821588 130.28783541 1703.06979387 120 1710 C119.29552734 1710.47646973 118.59105469 1710.95293945 117.86523438 1711.44384766 C81.96892028 1735.69703405 44.5887958 1757.33238612 6 1777 C4.99114746 1777.51804199 3.98229492 1778.03608398 2.94287109 1778.56982422 C-43.55069921 1802.42584604 -92.32588231 1820.95868954 -142 1837 C-143.21864746 1837.39541992 -144.43729492 1837.79083984 -145.69287109 1838.19824219 C-232.28091835 1866.0173993 -325.06233646 1880.73752484 -416 1882 C-417.17801178 1882.01643555 -417.17801178 1882.01643555 -418.37982178 1882.03320312 C-506.34669752 1883.1780078 -593.54235666 1874.13520734 -679 1853 C-679.77972168 1852.8081311 -680.55944336 1852.61626221 -681.36279297 1852.4185791 C-751.05323317 1835.24110406 -817.63159463 1809.59605109 -882 1778 C-883.06911621 1777.47905762 -884.13823242 1776.95811523 -885.23974609 1776.42138672 C-899.19478455 1769.61773139 -912.79309198 1762.3429277 -926.24023438 1754.58496094 C-928.90665659 1753.05360805 -931.5835641 1751.54282473 -934.265625 1750.0390625 C-987.45201533 1720.14239597 -1037.03189492 1683.91807143 -1083.40087891 1644.36083984 C-1085.05849996 1642.95021698 -1086.72229828 1641.54712211 -1088.38671875 1640.14453125 C-1096.45706475 1633.31804676 -1104.22078286 1626.21297699 -1111.90258789 1618.95385742 C-1113.4126327 1617.5471657 -1114.93708957 1616.15588779 -1116.47045898 1614.7746582 C-1125.37646646 1606.73692659 -1133.85799453 1598.29420219 -1142.32885742 1589.80151367 C-1144.82161995 1587.30336032 -1147.31972475 1584.81063802 -1149.81835938 1582.31835938 C-1151.42740428 1580.70865409 -1153.03613918 1579.09863885 -1154.64453125 1577.48828125 C-1155.38008743 1576.7547493 -1156.11564362 1576.02121735 -1156.87348938 1575.26545715 C-1160.88960292 1571.23129755 -1164.74146625 1567.10939543 -1168.44892883 1562.78918457 C-1171.00444177 1559.84136089 -1173.69830744 1557.0248269 -1176.375 1554.1875 C-1181.10196376 1549.14089056 -1185.57509143 1543.96665852 -1189.8984375 1538.56640625 C-1191.98001427 1536.02440637 -1194.1503838 1533.60470665 -1196.375 1531.1875 C-1200.43626167 1526.73070676 -1204.15413522 1522.07037032 -1207.84545898 1517.30883789 C-1210.79644135 1513.5084158 -1213.82513535 1509.7959942 -1216.9375 1506.125 C-1222.34507705 1499.67848689 -1227.37062813 1492.97331328 -1232.36865234 1486.20654297 C-1234.06971021 1483.90571073 -1235.77865023 1481.61087375 -1237.48828125 1479.31640625 C-1244.88823293 1469.36062354 -1252.06946015 1459.28763666 -1259 1449 C-1259.46583496 1448.31147949 -1259.93166992 1447.62295898 -1260.41162109 1446.91357422 C-1283.98552748 1412.03503501 -1305.18698013 1375.83632749 -1324.30175781 1338.32910156 C-1325.40853725 1336.15945746 -1326.51965711 1333.99202034 -1327.63574219 1331.82714844 C-1367.66957825 1254.16880748 -1395.43926974 1169.53338684 -1426 993 C-1426.07778687 992.2554657 -1426.15557373 991.5109314 -1426.23571777 990.74383545 C-1435.47948605 901.39482753 -1432.08571885 810.68887833 -1346 487 C-1345.5035498 485.87722656 -1345.00709961 484.75445313 -1344.49560547 483.59765625 C-1331.97697724 455.4557452 -1318.33708589 427.46570329 -1302.71044922 400.91162109 C-1301.09887183 398.16830508 -1299.50261094 395.41675156 -1297.91055298 392.66209412 C-1290.37138877 379.62148278 -1282.78024984 366.63645683 -1274.40722656 354.10791016 C-1272.83225653 351.74873402 -1271.27150111 349.38044744 -1269.7109375 347.01171875 C-1246.31458867 311.59447594 -1220.90591373 277.8874547 -1193.36083984 245.59912109 C-1191.95021698 243.94150004 -1190.54712211 242.27770172 -1189.14453125 240.61328125 C-1182.31804676 232.54293525 -1175.21297699 224.77921714 -1167.95385742 217.09741211 C-1166.5471657 215.5873673 -1165.15588779 214.06291043 -1163.7746582 212.52954102 C-1155.73692659 203.62353354 -1147.29420219 195.14200547 -1138.80151367 186.67114258 C-1136.30336032 184.17838005 -1133.81063802 181.68027525 -1131.31835938 179.18164062 C-1129.70865409 177.57259572 -1128.09863885 175.96386082 -1126.48828125 174.35546875 C-1125.7547493 173.61991257 -1125.02121735 172.88435638 -1124.26545715 172.12651062 C-1120.23129755 168.11039708 -1116.10939543 164.25853375 -1111.78918457 160.55107117 C-1108.84136089 157.99555823 -1106.0248269 155.30169256 -1103.1875 152.625 C-1098.14089056 147.89803624 -1092.96665852 143.42490857 -1087.56640625 139.1015625 C-1085.02440637 137.01998573 -1082.60470665 134.8496162 -1080.1875 132.625 C-1075.73070676 128.56373833 -1071.07037032 124.84586478 -1066.30883789 121.15454102 C-1062.5084158 118.20355865 -1058.7959942 115.17486465 -1055.125 112.0625 C-1048.67848689 106.65492295 -1041.97331328 101.62937187 -1035.20654297 96.63134766 C-1032.90571073 94.93028979 -1030.61087375 93.22134977 -1028.31640625 91.51171875 C-1018.36058789 84.11150757 -1008.29016854 76.92709662 -998 70 C-997.19836426 69.45875488 -996.39672852 68.91750977 -995.57080078 68.35986328 C-941.49743625 31.89608598 -884.20519981 0.17423085 -824 -25 C-823.37254883 -25.26280762 -822.74509766 -25.52561523 -822.09863281 -25.79638672 C-779.44546927 -43.62208546 -735.65418643 -58.11694286 -691 -70 C-689.16622803 -70.48895752 -689.16622803 -70.48895752 -687.29541016 -70.98779297 C-622.75383561 -88.03084515 -556.56831598 -97.13042651 -490 -101 C-488.78812012 -101.07202637 -487.57624023 -101.14405273 -486.32763672 -101.21826172 C-392.8621735 -106.48136547 -298.21962625 -96.51669897 0 0 Z M-418.86181641 239.10180664 C-421.18865029 239.44694112 -423.51769989 239.77237895 -425.84765625 240.09570312 C-427.3595321 240.31140172 -428.87125793 240.52815509 -430.3828125 240.74609375 C-431.06401154 240.84200302 -431.74521057 240.93791229 -432.447052 241.03672791 C-436.47968571 241.64350879 -440.15896393 242.6476106 -444 244 C-445.91036963 244.31216934 -447.82816563 244.58116808 -449.75 244.8125 C-455.47453138 245.63688528 -460.94045353 246.94420731 -466.5 248.5 C-467.26538086 248.71374268 -468.03076172 248.92748535 -468.81933594 249.14770508 C-472.64535686 250.24356869 -476.32223917 251.46706291 -480 253 C-481.39194574 253.47000765 -482.78781385 253.92857102 -484.1875 254.375 C-501.9402725 260.23370933 -519.17945159 268.48264117 -534.73828125 278.83203125 C-537.79303248 280.86243476 -540.88580159 282.81255672 -544 284.75 C-548.97859521 287.91819695 -553.25465359 291.25465359 -557.4375 295.4375 C-560.04358167 298.04358167 -562.78091905 300.35387701 -565.64453125 302.66796875 C-566.09183594 303.10753906 -566.53914062 303.54710937 -567 304 C-567 304.66 -567 305.32 -567 306 C-567.57621094 306.24363281 -568.15242187 306.48726563 -568.74609375 306.73828125 C-584.11308543 315.34060068 -597.13724588 340.81432265 -605 356 C-605.2976123 356.57476074 -605.59522461 357.14952148 -605.90185547 357.74169922 C-611.55844268 368.72083409 -616.9246386 379.69809439 -620.31640625 391.6171875 C-621.66671527 396.32397895 -623.11426976 401.03171057 -625.125 405.5 C-625.97787621 407.93678918 -626.22047499 409.88000921 -626.4375 412.4375 C-626.71382601 415.45241416 -627.00694977 417.01329522 -628.4375 419.75 C-630.47140737 423.98052733 -630.88753147 428.05274903 -631.47265625 432.68359375 C-632 436 -632 436 -633.03125 439.4609375 C-634.34101336 444.2457988 -634.39277716 448.85591338 -634.55859375 453.79296875 C-634.79362646 457.23500573 -635.58556539 460.35918264 -636.49609375 463.68359375 C-638.18059365 470.10949953 -638.51282351 476.25658685 -638.625 482.875 C-638.67628308 485.03914585 -638.73086279 487.20321661 -638.7890625 489.3671875 C-638.80662598 490.30675293 -638.82418945 491.24631836 -638.84228516 492.21435547 C-639 495 -639 495 -639.49069977 497.81683731 C-639.97073561 500.81709548 -640.19676573 503.68237736 -640.30651855 506.71624756 C-640.34702583 507.82647404 -640.38753311 508.93670052 -640.42926788 510.08057022 C-640.4674337 511.28084728 -640.50559952 512.48112434 -640.54492188 513.71777344 C-640.58681389 514.99266506 -640.6287059 516.26755669 -640.67186737 517.58108139 C-641.13604515 532.44686285 -641.20548157 547.3153714 -641.27039146 562.18721104 C-641.28896732 566.17046236 -641.31321901 570.15367902 -641.33703613 574.13690186 C-641.40632488 585.89297295 -641.46668256 597.64908763 -641.52606201 609.4052124 C-641.57278018 618.62869032 -641.6217888 627.85214451 -641.67754889 637.07557273 C-641.70584529 641.79949646 -641.72945015 646.52341311 -641.74947357 651.24737883 C-641.76280892 654.16133761 -641.7802165 657.07526136 -641.79878426 659.98919106 C-641.81028976 661.99138901 -641.81681527 663.99361361 -641.82322693 665.99583435 C-641.83157059 667.17535172 -641.83991425 668.35486908 -641.84851074 669.57012939 C-641.85366447 670.60082172 -641.85881821 671.63151405 -641.86412811 672.69343948 C-642 675 -642 675 -643 676 C-644.64015704 676.10389507 -646.28477709 676.13797007 -647.9282074 676.14476013 C-648.99528931 676.15165863 -650.06237122 676.15855713 -651.16178894 676.16566467 C-652.34259537 676.16827805 -653.52340179 676.17089142 -654.73999023 676.17358398 C-655.97562714 676.180271 -657.21126404 676.18695801 -658.48434448 676.19384766 C-661.17773722 676.20793696 -663.87107508 676.22025679 -666.56448174 676.22979546 C-670.82037847 676.24521058 -675.07620001 676.26915884 -679.33204651 676.29469299 C-691.4359157 676.3659971 -703.539828 676.42572238 -715.64379883 676.47680664 C-722.32435293 676.50507721 -729.00483227 676.54044028 -735.68530804 676.58346039 C-739.91888873 676.61029054 -744.15238478 676.62816006 -748.38603389 676.63949764 C-751.63427784 676.65073818 -754.88243014 676.67486798 -758.13061523 676.69702148 C-759.89878853 676.6979052 -759.89878853 676.6979052 -761.7026825 676.69880676 C-762.77258423 676.70852509 -763.84248596 676.71824341 -764.94480896 676.72825623 C-766.34490786 676.73460413 -766.34490786 676.73460413 -767.77329159 676.74108028 C-770.20406137 676.79025944 -770.20406137 676.79025944 -772 679 C-772.19369412 682.00854825 -772.26031494 684.92476521 -772.24050903 687.93423462 C-772.24221788 688.87107696 -772.24392673 689.8079193 -772.24568737 690.7731508 C-772.24899776 693.93168857 -772.23795312 697.09001676 -772.22705078 700.24853516 C-772.226487 702.50495906 -772.22680257 704.76138332 -772.22793579 707.01780701 C-772.2285116 713.16008654 -772.2167204 719.30228858 -772.20278788 725.44455004 C-772.1903185 731.85742841 -772.18911302 738.2703084 -772.18673706 744.68319702 C-772.18121928 755.45222577 -772.16871142 766.2212205 -772.15087891 776.99023438 C-772.13252827 788.0836574 -772.11836777 799.17707268 -772.10986328 810.27050781 C-772.10933783 810.95400435 -772.10881239 811.63750089 -772.10827102 812.34170945 C-772.10566099 815.77052045 -772.10313356 819.1993315 -772.10064721 822.6281426 C-772.07990488 851.08544806 -772.04452238 879.5427225 -772 908 C-769.0017576 908.99941413 -766.99565503 909.13403461 -763.86251831 909.15148926 C-762.79965607 909.15983292 -761.73679382 909.16817657 -760.64172363 909.17677307 C-759.47588745 909.18095749 -758.31005127 909.18514191 -757.10888672 909.18945312 C-755.88110504 909.19774643 -754.65332336 909.20603973 -753.38833618 909.21458435 C-750.71844144 909.23200123 -748.04860365 909.24765205 -745.37868881 909.26036072 C-741.16071382 909.28057541 -736.94280788 909.30822682 -732.72488403 909.33703613 C-723.01269687 909.40223493 -713.30045869 909.45771164 -703.58821106 909.51302338 C-694.68218812 909.56382949 -685.77619034 909.61666496 -676.87022984 909.67754889 C-672.67318532 909.70595634 -668.47614921 909.72953052 -664.27905631 909.74947357 C-661.06345367 909.7659536 -657.84789465 909.78876446 -654.63232422 909.81054688 C-653.46243958 909.81473129 -652.29255493 909.81891571 -651.08721924 909.82322693 C-650.02999664 909.83157059 -648.97277405 909.83991425 -647.8835144 909.84851074 C-646.95916533 909.85366447 -646.03481625 909.85881821 -645.08245659 909.86412811 C-643 910 -643 910 -642 911 C-641.90190394 912.46785144 -641.87358329 913.94041927 -641.87284148 915.41154474 C-641.86992944 916.37223569 -641.86701741 917.33292664 -641.86401713 918.32272944 C-641.86589734 919.39283783 -641.86777755 920.46294622 -641.86971474 921.56548214 C-641.86777131 922.69555879 -641.86582788 923.82563543 -641.86382556 924.98995683 C-641.85939644 928.15471363 -641.8594925 931.31943484 -641.86139868 934.48419304 C-641.86236756 937.9166025 -641.85754759 941.34900432 -641.85341966 944.78141075 C-641.84696742 950.80642158 -641.84420203 956.83142546 -641.84379387 962.85643959 C-641.84315076 971.81562042 -641.83676927 980.77479055 -641.82904707 989.73396775 C-641.81695328 1003.87745966 -641.80830082 1018.02095109 -641.80200893 1032.16444669 C-641.79199067 1054.61016796 -641.77274538 1077.05587394 -641.75046654 1099.50158605 C-641.74193505 1108.12968148 -641.73366926 1116.75777718 -641.72536278 1125.38587284 C-641.72443777 1126.34453395 -641.72351276 1127.30319507 -641.72255972 1128.29090652 C-641.70055583 1151.12500709 -641.68077054 1173.95910936 -641.66210938 1196.79321289 C-641.6612897 1197.79271825 -641.66047002 1198.79222361 -641.6596255 1199.822017 C-641.64053606 1223.14733437 -641.62357552 1246.47265164 -641.61126709 1269.79797363 C-641.61073742 1270.80140465 -641.61020775 1271.80483566 -641.60966204 1272.83867368 C-641.6054104 1280.926836 -641.60123409 1289.01499835 -641.59707724 1297.10316072 C-641.57989772 1330.41535779 -641.55271077 1363.72753402 -641.51391686 1397.03971319 C-641.50845457 1401.73961582 -641.50312166 1406.43951859 -641.49787521 1411.13942146 C-641.49684083 1412.06446779 -641.49580645 1412.98951411 -641.49474073 1413.94259215 C-641.47838374 1428.86131693 -641.4728851 1443.78002718 -641.47157755 1458.69876007 C-641.47007667 1473.67922603 -641.45797242 1488.65965232 -641.43482114 1503.64010077 C-641.4213926 1512.55129104 -641.41645066 1521.46239485 -641.4233675 1530.37359304 C-641.42716911 1536.31607433 -641.42023452 1542.2584786 -641.40435172 1548.20093976 C-641.39560147 1551.59339641 -641.39174206 1554.985675 -641.40092559 1558.37813454 C-641.40831899 1562.02183102 -641.39758611 1565.66501743 -641.38196754 1569.30867672 C-641.38853009 1570.37644394 -641.39509263 1571.44421117 -641.40185404 1572.54433498 C-641.39393497 1573.50752945 -641.38601589 1574.47072392 -641.37785685 1575.4631061 C-641.37730069 1576.2973787 -641.37674452 1577.1316513 -641.37617151 1577.99120488 C-641.18996661 1578.98555847 -641.18996661 1578.98555847 -641 1580 C-637.8581943 1582.09453714 -637.16016788 1582.24955067 -633.58595753 1582.24609566 C-632.67778493 1582.25007775 -631.76961233 1582.25405985 -630.83391935 1582.25816262 C-629.83490226 1582.25233693 -628.83588518 1582.24651125 -627.80659485 1582.24050903 C-626.21628984 1582.24307231 -626.21628984 1582.24307231 -624.59385747 1582.24568737 C-621.02384835 1582.24899449 -617.45402515 1582.23795837 -613.8840332 1582.22705078 C-611.33189905 1582.22648693 -608.77976458 1582.22680271 -606.22763062 1582.22793579 C-600.72408474 1582.22839195 -595.22059927 1582.22270114 -589.71706581 1582.21146011 C-581.75985681 1582.19521799 -573.80267075 1582.18999843 -565.84544697 1582.18748413 C-552.93593278 1582.183105 -540.02644384 1582.16979 -527.11694336 1582.15087891 C-514.57527798 1582.13252574 -502.03361945 1582.11836648 -489.49194336 1582.10986328 C-488.33267783 1582.10907511 -488.33267783 1582.10907511 -487.1499928 1582.10827102 C-483.27293029 1582.10566098 -479.39586774 1582.10313355 -475.51880515 1582.10064721 C-443.34585175 1582.07990793 -411.17292938 1582.04467648 -379 1582 C-377.80293435 1579.60586871 -377.87332204 1578.13652403 -377.87054014 1575.4631061 C-377.86540341 1574.01831439 -377.86540341 1574.01831439 -377.86016291 1572.54433498 C-377.86147143 1571.47656775 -377.86277995 1570.40880053 -377.86412811 1569.30867672 C-377.86158549 1568.17714663 -377.85904287 1567.04561655 -377.8564232 1565.87979767 C-377.85032998 1562.71563537 -377.84874931 1559.55150642 -377.84899596 1556.3873394 C-377.84817078 1552.953847 -377.84157536 1549.52036513 -377.83568525 1546.08687836 C-377.82614831 1540.06155157 -377.82032068 1534.03622991 -377.81687737 1528.01089668 C-377.81173403 1519.05131107 -377.80088608 1510.09173883 -377.78879793 1501.13216022 C-377.76860873 1486.06245407 -377.75292556 1470.99274643 -377.73963928 1455.92303276 C-377.72144084 1435.35014521 -377.69673311 1414.77726916 -377.67026538 1394.20439077 C-377.65795465 1384.62870549 -377.64596374 1375.05301981 -377.63405609 1365.47733402 C-377.63286357 1364.51864641 -377.63167104 1363.55995879 -377.63044238 1362.57222004 C-377.60211582 1339.74028786 -377.57692138 1316.90835239 -377.55224609 1294.07641602 C-377.5511649 1293.07706279 -377.5500837 1292.07770956 -377.54896974 1291.04807289 C-377.53142657 1274.82892271 -377.5140731 1258.60977232 -377.49674475 1242.3906219 C-377.48050435 1227.19148547 -377.4641953 1211.99234911 -377.44775391 1196.79321289 C-377.44667444 1195.7942356 -377.44559497 1194.79525831 -377.4444828 1193.76600898 C-377.41983599 1170.97262835 -377.39429765 1148.17924919 -377.36594391 1125.38587284 C-377.36475366 1124.42874537 -377.36356341 1123.47161789 -377.36233709 1122.48548655 C-377.35043631 1112.93208407 -377.33837874 1103.3786818 -377.32608688 1093.82527981 C-377.29967638 1073.27167113 -377.27603143 1052.71806446 -377.25791349 1032.16444669 C-377.24466793 1017.18525438 -377.22803502 1002.20606921 -377.20781839 987.22688466 C-377.1959123 978.31550494 -377.18686289 969.40413248 -377.18177242 960.49274622 C-377.17811136 954.55145919 -377.1708878 948.61018364 -377.1606881 942.66890426 C-377.15497145 939.27636627 -377.15089505 935.88384674 -377.15115923 932.4913035 C-377.15062459 928.84933902 -377.14406612 925.20743619 -377.13587189 921.56548214 C-377.1371804 920.49537375 -377.13848892 919.42526536 -377.13983709 918.32272944 C-377.1364126 917.36203849 -377.13298812 916.40134754 -377.12945986 915.41154474 C-377.12815767 914.16023748 -377.12815767 914.16023748 -377.12682918 912.88365128 C-377 911 -377 911 -376 910 C-373.78757886 909.89288722 -371.57168362 909.85752653 -369.35668945 909.84851074 C-368.65416959 909.84427833 -367.95164972 909.84004592 -367.22784138 909.83568525 C-364.85631932 909.82259187 -362.48483093 909.81661914 -360.11328125 909.81054688 C-358.42019441 909.80260985 -356.72710964 909.79422234 -355.0340271 909.78541565 C-351.37973626 909.76732039 -347.72545008 909.75231858 -344.07113647 909.73963928 C-338.29910363 909.71947569 -332.52712201 909.6918161 -326.75512695 909.66296387 C-313.46018683 909.59766553 -300.1652087 909.54229866 -286.870224 909.48697662 C-274.68915672 909.43618825 -262.50810798 909.38333988 -250.32708645 909.32245111 C-244.58290504 909.29402542 -238.83872983 909.27045702 -233.09451294 909.25052643 C-229.52827878 909.23718018 -225.9620731 909.21976563 -222.39586258 909.20121574 C-220.73535504 909.19343145 -219.07483843 909.18737434 -217.41431808 909.18312263 C-215.15726654 909.17711537 -212.90032717 909.16508691 -210.64331055 909.15148926 C-209.37714401 909.14633553 -208.11097748 909.14118179 -206.80644226 909.13587189 C-204.09570328 909.31973178 -204.09570328 909.31973178 -203 908 C-200.15404558 895.29484635 -198.70602291 882.2884289 -198.29296875 869.29443359 C-198.0191901 860.90670328 -197.66813836 852.00441509 -195 844 C-194.8413957 841.01882659 -194.72210475 838.04564824 -194.625 835.0625 C-194.34101745 827.94228294 -193.66913254 821.02803332 -192.5 814 C-191.3919997 807.31340786 -190.73284805 800.77376139 -190.5 794 C-190.26714866 787.22614275 -189.6072718 780.68674581 -188.5 774 C-187.24394902 766.40264123 -186.63287821 758.94736554 -186.34375 751.25610352 C-185.61100286 732.83300858 -185.61100286 732.83300858 -183 725 C-182.88745507 723.59649847 -182.82233004 722.18886365 -182.7890625 720.78125 C-182.76255615 719.94021729 -182.7360498 719.09918457 -182.70874023 718.23266602 C-182.68110596 717.33088623 -182.65347168 716.42910645 -182.625 715.5 C-182.31739933 707.27757015 -181.47189964 699.31582362 -180.01611328 691.21875 C-178.91864874 685.14755389 -178.91864874 685.14755389 -179 679 C-182.69796595 676.53468936 -185.48763449 676.726276 -189.76371765 676.75949097 C-190.56257364 676.75778212 -191.36142962 676.75607327 -192.18449336 676.75431263 C-194.87007482 676.7510098 -197.55540823 676.76203444 -200.2409668 676.77294922 C-202.16256708 676.77351316 -204.08416779 676.7731971 -206.00576782 676.77206421 C-211.23066769 676.77148903 -216.45547624 676.78326999 -221.68035483 676.79721212 C-227.13763199 676.80969206 -232.5949111 676.81088782 -238.05220032 676.81326294 C-248.39004152 676.81948577 -258.72784055 676.83590744 -269.06566316 676.85596192 C-280.83333849 676.87829596 -292.60101582 676.88930806 -304.36870706 676.89935279 C-328.57916144 676.92027297 -352.78957836 676.95546454 -377 677 C-377.07065485 659.75140424 -377.12326061 642.50285479 -377.15543652 625.25414658 C-377.17078559 617.24197245 -377.19164041 609.22988916 -377.22631836 601.21777344 C-377.25659328 594.21950148 -377.27566136 587.2212954 -377.28226548 580.22295976 C-377.28611467 576.53091898 -377.29489681 572.83906639 -377.31719017 569.1470871 C-377.40192562 554.50549174 -377.17241858 539.98121374 -375.66918945 525.40722656 C-375.49434037 523.67931696 -375.49434037 523.67931696 -375.31595898 521.91650009 C-374.63499977 516.04690056 -373.63783973 511.28920327 -371 506 C-370.731875 505.071875 -370.46375 504.14375 -370.1875 503.1875 C-365.50936809 490.63040908 -357.31684462 482.50830052 -345.47900391 476.73364258 C-325.54154516 467.64188734 -303.44701541 468.85621195 -282.02187347 468.77020454 C-278.03726967 468.75360588 -274.05273185 468.73057561 -270.06817627 468.70530701 C-258.75204116 468.63470274 -247.43586981 468.57405152 -236.11962891 468.52319336 C-229.83923723 468.49489652 -223.55892476 468.45954757 -217.27861619 468.41653961 C-213.96659601 468.39420498 -210.65466357 468.37682491 -207.3425827 468.36609077 C-203.6641462 468.35397845 -199.98597112 468.32985392 -196.30761719 468.30297852 C-195.21569565 468.30238937 -194.12377411 468.30180023 -192.99876404 468.30119324 C-191.9982753 468.29147491 -190.99778656 468.28175659 -189.96697998 468.27174377 C-188.66523897 468.26539587 -188.66523897 468.26539587 -187.33720016 468.25891972 C-184.7571359 467.97309503 -183.15659627 467.44077547 -181 466 C-179.68282855 462.04848564 -179.85541137 458.27499662 -179.85955811 454.15551758 C-179.85658698 453.24035527 -179.85361586 452.32519297 -179.8505547 451.38229847 C-179.84185427 448.30303357 -179.84035834 445.22380748 -179.83886719 442.14453125 C-179.83424008 439.94208696 -179.82921557 437.73964347 -179.82382202 435.53720093 C-179.81068836 429.54563299 -179.80425153 423.55407627 -179.79981136 417.56249619 C-179.79688307 413.82280068 -179.79277879 410.08310826 -179.78830719 406.34341431 C-179.77463163 394.65289052 -179.76494847 382.96237318 -179.7611053 371.271842 C-179.76066183 369.92634519 -179.76021527 368.58084837 -179.75976562 367.23535156 C-179.75943348 366.23423015 -179.75943348 366.23423015 -179.75909463 365.21288407 C-179.75514369 354.39010514 -179.73767974 343.56739342 -179.7144061 332.74464047 C-179.69071354 321.63763856 -179.67848945 310.53066466 -179.67706418 299.42363644 C-179.67601358 293.18551191 -179.67005144 286.94748223 -179.65224457 280.7093811 C-179.63583182 274.84565877 -179.63357516 268.98210328 -179.64238358 263.11836624 C-179.64315753 260.96201762 -179.63876449 258.80566027 -179.62892532 256.64933395 C-179.61631391 253.71418147 -179.62202336 250.77962971 -179.63250732 247.84448242 C-179.62445092 246.98369489 -179.61639452 246.12290735 -179.60809398 245.23603535 C-179.52201561 240.98354156 -179.52201561 240.98354156 -181.31402785 237.28205514 C-184.09105869 235.17033185 -187.25361712 235.59573422 -190.60221863 235.63250732 C-191.77510224 235.62760406 -191.77510224 235.62760406 -192.97168046 235.62260175 C-195.60135136 235.61529856 -198.23047022 235.62950064 -200.86010742 235.64355469 C-202.7427683 235.642764 -204.62542902 235.6406673 -206.50808716 235.63735962 C-211.6354678 235.63221151 -216.76264873 235.64579842 -221.88999724 235.66288662 C-227.27198149 235.67793117 -232.65396321 235.67674918 -238.03596497 235.67755127 C-247.09766026 235.68124974 -256.1592801 235.69623003 -265.22094727 235.71875 C-276.78389298 235.74743106 -288.34677732 235.75795684 -299.90975475 235.7624321 C-309.90593962 235.76644667 -319.90211161 235.77895694 -329.89828706 235.79277897 C-333.07918089 235.79684143 -336.26007429 235.79978586 -339.44096947 235.80257416 C-379.26192409 235.51242335 -379.26192409 235.51242335 -418.86181641 239.10180664 Z " fill="#FEFEFE" transform="translate(1432,103)"/>
</svg>
