<?xml version="1.0" encoding="UTF-8"?>
<svg version="1.1" xmlns="http://www.w3.org/2000/svg" width="751" height="612">
<path d="M0 0 C0.62970703 0.20995605 1.25941406 0.41991211 1.90820312 0.63623047 C10.37066666 3.50638128 18.2766556 6.93309482 26.04077148 11.37207031 C29.35235379 13.24541909 32.21287406 14.50788759 36 15 C36 15.66 36 16.32 36 17 C37.4540625 17.4021875 37.4540625 17.4021875 38.9375 17.8125 C39.948125 18.204375 40.95875 18.59625 42 19 C42.33 19.99 42.66 20.98 43 22 C45.28891028 23.37334617 47.45752447 24.15250816 50 25 C50.66912103 26.33210333 51.33514308 27.66576333 52 29 C53.74247174 31.08301997 55.46189287 32.96681089 57.375 34.875 C57.83777344 35.39835937 58.30054688 35.92171875 58.77734375 36.4609375 C61.32953371 38.96648169 62.9927081 40.00270777 66.63378906 39.99291992 C69.81927029 39.50157595 72.87894498 38.80434234 76 38 C77.03560059 37.74992187 78.07120117 37.49984375 79.13818359 37.2421875 C105.73898441 30.53163323 130.57832703 20.46232037 154.58178711 7.24584961 C157.00678731 5.99650322 159.45224665 4.97085683 162 4 C161.88610125 5.79240663 161.75852313 7.58394835 161.625 9.375 C161.52058594 10.87160156 161.52058594 10.87160156 161.4140625 12.3984375 C160.8799743 15.75412372 159.356417 16.643583 157 19 C156.9175 19.969375 156.835 20.93875 156.75 21.9375 C155.43119786 32.75614807 145.71578918 45.71642308 138 53 C135.93167512 54.82539198 135.93167512 54.82539198 135.125 57 C134 59 134 59 132.1262207 59.93188477 C129.8582154 61.07122604 128.58025503 62.24401031 126.85546875 64.08984375 C126.26773682 64.704646 125.68000488 65.31944824 125.07446289 65.95288086 C124.45176514 66.60780518 123.82906738 67.26272949 123.1875 67.9375 C116.07223479 75.26513477 108.42095255 81.25464088 100 87 C119.21672772 85.18769072 137.74987465 79.96579238 156 73.875 C156.63616241 73.66335205 157.27232483 73.4517041 157.92776489 73.23364258 C164.51188472 71.03036387 170.96424484 68.74313019 177.22436523 65.72802734 C179.54007835 64.77856268 181.53027518 64.68132583 184 65 C182.4182599 69.74522031 179.65218296 75.67390852 175 78 C174.67 78.99 174.34 79.98 174 81 C173.34 81.33 172.68 81.66 172 82 C171.67 82.99 171.34 83.98 171 85 C170.34 85.33 169.68 85.66 169 86 C168.71125 86.639375 168.4225 87.27875 168.125 87.9375 C166.75371947 90.4515143 165.5160747 90.7825445 163 92 C162.67 92.99 162.34 93.98 162 95 C160.66666667 96.33333333 159.33333333 97.66666667 158 99 C157.67 99.70125 157.34 100.4025 157 101.125 C156 103 156 103 154.20581055 103.86547852 C151.54732711 105.23282467 149.8232359 106.91770752 147.70703125 109.02734375 C146.5149707 110.21553711 146.5149707 110.21553711 145.29882812 111.42773438 C144.47833984 112.25595703 143.65785156 113.08417969 142.8125 113.9375 C141.98041016 114.76185547 141.14832031 115.58621094 140.29101562 116.43554688 C139.50017578 117.22896484 138.70933594 118.02238281 137.89453125 118.83984375 C137.17112549 119.56550537 136.44771973 120.29116699 135.70239258 121.03881836 C133.79138184 122.98739093 133.79138184 122.98739093 133 126 C132.01 126 131.02 126 130 126 C127.56656312 127.95534034 127.56656312 127.95534034 125 130.5 C124.13375 131.3353125 123.2675 132.170625 122.375 133.03125 C121.88378662 133.50602783 121.39257324 133.98080566 120.88647461 134.4699707 C119 136 119 136 116.20922852 137.52026367 C112.8956511 139.43238629 110.51460672 141.10253922 108 144 C106.70879713 149.01349343 106.68959064 153.72021123 106.85800171 158.87161255 C106.93892882 161.35637013 106.95471337 163.83407306 106.95239258 166.32006836 C106.9503908 169.66104238 106.96753169 173.0009724 106.99804688 176.34179688 C107.1251275 201.79163671 103.2352373 227.71410771 97.48706055 252.4519043 C97.27863525 253.37398682 97.07020996 254.29606934 96.85546875 255.24609375 C96.66621826 256.04716553 96.47696777 256.8482373 96.28198242 257.67358398 C95.95943313 260.33468547 96.35018264 262.41362944 97 265 C96.34 265 95.68 265 95 265 C95.061875 266.85625 95.061875 266.85625 95.125 268.75 C95.125 273.62163864 93.6792355 275.98114675 91 280 C90.61936779 282.3260857 90.28730055 284.66055264 90 287 C89.51195589 289.25720402 89.0321508 290.9356984 88 293 C87.855625 294.134375 87.71125 295.26875 87.5625 296.4375 C87 300 87 300 85 303 C83.69951159 305.60097682 83.43528578 308.13955062 83 311 C82.34 311 81.68 311 81 311 C81.0309375 312.11375 81.0309375 312.11375 81.0625 313.25 C80.96375086 317.59496235 79.66371488 321.00708429 78 325 C77.34 325 76.68 325 76 325 C75.87882813 325.69867188 75.75765625 326.39734375 75.6328125 327.1171875 C75.38144531 328.48230469 75.38144531 328.48230469 75.125 329.875 C74.96257813 330.77992188 74.80015625 331.68484375 74.6328125 332.6171875 C73.82419763 335.6619719 72.20018138 336.79981862 70 339 C69.13971981 341.05812366 69.13971981 341.05812366 68.4375 343.375 C68.06431641 344.53128906 68.06431641 344.53128906 67.68359375 345.7109375 C67.06076391 347.79652769 66.50733047 349.88370718 66 352 C65.34 352 64.68 352 64 352 C63.91105469 353.00546875 63.82210937 354.0109375 63.73046875 355.046875 C63.12848861 359.22816811 61.38491664 362.61325228 59.3125 366.25 C58.95091797 366.90476318 58.58933594 367.55952637 58.21679688 368.23413086 C57.48820677 369.55220194 56.75537331 370.86793742 56.01806641 372.18115234 C54.64959935 374.62601554 53.32700048 377.09493713 52 379.5625 C51.00166346 381.37591678 50.00151067 383.1883343 49 385 C48.67467285 385.59828613 48.3493457 386.19657227 48.01416016 386.81298828 C46.95614137 388.75554009 45.88546537 390.69067098 44.8125 392.625 C44.47927734 393.24189697 44.14605469 393.85879395 43.80273438 394.49438477 C41.34162705 398.88612432 41.34162705 398.88612432 38 400 C37.3008128 401.98886443 36.64065691 403.9915172 36 406 C34.67565184 408.29425459 33.33630523 410.48642638 31.875 412.6875 C31.48046631 413.29037842 31.08593262 413.89325684 30.67944336 414.5144043 C20.19789951 430.40105024 20.19789951 430.40105024 17 432 C16.67 432.66 16.34 433.32 16 434 C15 436 15 436 13 437 C12.67 437.99 12.34 438.98 12 440 C11.01 440.495 11.01 440.495 10 441 C9.67 441.66 9.34 442.32 9 443 C8 445 8 445 6 446 C5.71125 446.639375 5.4225 447.27875 5.125 447.9375 C4 450 4 450 1.9375 451 C1.298125 451.33 0.65875 451.66 0 452 C-0.144375 452.639375 -0.28875 453.27875 -0.4375 453.9375 C-1 456 -1 456 -3.4375 457.4375 C-6.19205772 458.75972539 -6.19205772 458.75972539 -6.9375 461.4375 C-8.41583142 465.00288755 -10.80067717 465.88816 -14 468 C-15.81824355 469.64194112 -17.59356031 471.33239434 -19.328125 473.0625 C-19.80320496 473.5356665 -20.27828491 474.00883301 -20.76776123 474.49633789 C-21.76169352 475.48891956 -22.75314651 476.4839897 -23.7421875 477.48144531 C-25.2530195 479.00304101 -26.77430136 480.51360097 -28.296875 482.0234375 C-29.2662673 482.99415066 -30.23503942 483.96548365 -31.203125 484.9375 C-32.07614258 485.81277344 -32.94916016 486.68804687 -33.84863281 487.58984375 C-35.7488936 489.71868788 -36.78287746 491.46975051 -38 494 C-38.71542969 494.28359375 -39.43085937 494.5671875 -40.16796875 494.859375 C-44.26192306 496.50825039 -47.06286191 499.31544865 -50.3125 502.25 C-54.39446282 505.87697645 -58.42751465 509.44476547 -62.875 512.625 C-66.21274446 514.6982973 -66.21274446 514.6982973 -67 518 C-67.71929687 518.08636719 -68.43859375 518.17273438 -69.1796875 518.26171875 C-72.59532474 519.15583986 -74.3825665 520.59376736 -77.125 522.8125 C-83.40998623 527.71132385 -90.03851731 531.8876128 -96.85205078 536.01293945 C-97.64853027 536.50238037 -98.44500977 536.99182129 -99.265625 537.49609375 C-100.34505371 538.14856079 -100.34505371 538.14856079 -101.44628906 538.81420898 C-101.95901367 539.20552002 -102.47173828 539.59683105 -103 540 C-103 540.66 -103 541.32 -103 542 C-104.10396118 542.17740723 -104.10396118 542.17740723 -105.23022461 542.35839844 C-107.9883601 542.99730369 -109.87803911 543.85568295 -112.31640625 545.265625 C-113.56429932 545.97271606 -113.56429932 545.97271606 -114.83740234 546.6940918 C-115.73668457 547.2075415 -116.6359668 547.72099121 -117.5625 548.25 C-155.60142455 569.42369768 -196.35512848 583.54690388 -239 592 C-240.4538208 592.29148926 -240.4538208 592.29148926 -241.93701172 592.58886719 C-258.16360935 595.78564919 -274.52900407 597.5951581 -291 599 C-292.13655029 599.09788818 -293.27310059 599.19577637 -294.4440918 599.29663086 C-305.56309281 600.14959741 -316.66597153 600.20001494 -327.8125 600.1875 C-329.30558182 600.18659363 -329.30558182 600.18659363 -330.8288269 600.18566895 C-346.30824346 600.16020146 -361.609704 599.80176627 -377 598 C-378.05654785 597.88172852 -379.1130957 597.76345703 -380.20166016 597.64160156 C-409.69405761 594.23011894 -438.90001529 587.55301088 -467 578 C-468.58627197 577.46439453 -468.58627197 577.46439453 -470.20458984 576.91796875 C-483.71239454 572.3157611 -496.82944817 567.14706809 -509.73583984 561.06005859 C-511.88329337 560.05464095 -514.04164922 559.07935907 -516.20703125 558.11328125 C-533.07019826 550.51075512 -549.60730714 541.26179524 -565 531 C-564.67 530.67 -564.34 530.34 -564 530 C-560.92933015 530.09644454 -557.87826809 530.25284411 -554.8125 530.4375 C-491.56781114 533.63923295 -430.70308931 522.85898541 -375.1875 491.5625 C-374.27935547 491.05428711 -373.37121094 490.54607422 -372.43554688 490.02246094 C-371.60474609 489.54196289 -370.77394531 489.06146484 -369.91796875 488.56640625 C-369.18344482 488.14302979 -368.4489209 487.71965332 -367.69213867 487.28344727 C-365.69201229 486.0173027 -365.69201229 486.0173027 -365 483 C-363.95199219 482.87238281 -363.95199219 482.87238281 -362.8828125 482.7421875 C-359.31134127 481.82270304 -356.91406321 480.20435904 -353.875 478.125 C-352.84117187 477.42632812 -351.80734375 476.72765625 -350.7421875 476.0078125 C-347.6434251 473.73951767 -347.6434251 473.73951767 -345 471 C-345 470.34 -345 469.68 -345 469 C-343.68 469 -342.36 469 -341 469 C-341.69335449 468.90501221 -342.38670898 468.81002441 -343.10107422 468.7121582 C-367.21203372 465.35400258 -389.43853171 460.6067674 -410.54736328 448.07128906 C-413.52572717 446.3129871 -416.07586931 444.97595875 -419.40234375 443.921875 C-420.25957031 443.61765625 -421.11679687 443.3134375 -422 443 C-422.33 442.01 -422.66 441.02 -423 440 C-424.75376928 438.58306199 -424.75376928 438.58306199 -426.875 437.375 C-427.57367188 436.94960938 -428.27234375 436.52421875 -428.9921875 436.0859375 C-431.10266341 434.86957448 -431.10266341 434.86957448 -434 434 C-434.70098522 432.68438534 -435.36357411 431.34802979 -436 430 C-437.53765184 428.15829775 -437.53765184 428.15829775 -439.3359375 426.3984375 C-439.98820312 425.74359375 -440.64046875 425.08875 -441.3125 424.4140625 C-441.993125 423.74117188 -442.67375 423.06828125 -443.375 422.375 C-444.04789062 421.694375 -444.72078125 421.01375 -445.4140625 420.3125 C-446.06890625 419.66023438 -446.72375 419.00796875 -447.3984375 418.3359375 C-447.99317871 417.74345215 -448.58791992 417.1509668 -449.20068359 416.54052734 C-451.04376971 414.96252553 -452.82826118 414.05400672 -455 413 C-457.05941785 410.63548321 -457.9987495 409.0037515 -459 406 C-459.66 405.67 -460.32 405.34 -461 405 C-461.495 403.515 -461.495 403.515 -462 402 C-462.433125 401.566875 -462.86625 401.13375 -463.3125 400.6875 C-467.39033845 396.60966155 -469.45342293 392.73905928 -470 387 C-470.99 386.67 -471.98 386.34 -473 386 C-474.32071295 383.4232861 -475.46932924 380.92062792 -476.5625 378.25 C-476.86607422 377.53328125 -477.16964844 376.8165625 -477.48242188 376.078125 C-478.07162997 374.6814836 -478.65215625 373.28114178 -479.22314453 371.87695312 C-479.86303172 370.33092777 -480.56247299 368.80969019 -481.27734375 367.296875 C-482.15423041 364.50979739 -481.79334351 362.77670227 -481 360 C-479.96746094 360.144375 -478.93492187 360.28875 -477.87109375 360.4375 C-459.86877159 362.78762893 -441.94015354 362.91625137 -424 360 C-424.95392343 357.60667148 -425.53149019 356.2731964 -427.79321289 354.9543457 C-428.5124292 354.69741943 -429.23164551 354.44049316 -429.97265625 354.17578125 C-430.7812207 353.87446289 -431.58978516 353.57314453 -432.42285156 353.26269531 C-433.29393555 352.94913086 -434.16501953 352.63556641 -435.0625 352.3125 C-455.18923658 344.6214435 -472.15897907 334.02543149 -487.66503906 319.00854492 C-490.10321556 316.65837313 -492.45952348 314.69637654 -495.29296875 312.82421875 C-498.38201978 310.74256387 -498.80051285 309.41392497 -500 306 C-500.99 305.67 -501.98 305.34 -503 305 C-503.495 303.515 -503.495 303.515 -504 302 C-505.13888672 300.86884766 -505.13888672 300.86884766 -506.30078125 299.71484375 C-509.14758339 296.8515623 -511.09068285 294.00582256 -513.1875 290.5625 C-513.86167969 289.47066406 -514.53585937 288.37882812 -515.23046875 287.25390625 C-516.89308617 284.19659872 -517.99209444 281.3198785 -519 278 C-519.83333333 275.83333333 -519.83333333 275.83333333 -522 275 C-523.72664863 271.54670274 -524.21952523 268.84169158 -524 265 C-524.66 265 -525.32 265 -526 265 C-526 263.35 -526 261.7 -526 260 C-526.66 260 -527.32 260 -528 260 C-528.04898438 259.3709375 -528.09796875 258.741875 -528.1484375 258.09375 C-528.63435199 252.53086686 -529.50553626 247.38006948 -531 242 C-531.66 242 -532.32 242 -533 242 C-535.84261353 229.88505185 -536.34357371 218.41955333 -536 206 C-531.18136469 206.55740682 -527.3465259 208.09264638 -523.0625 210.25 C-506.24180902 218.35092784 -487.69844426 223.25355512 -469 224 C-473.26577569 221.0459281 -473.26577569 221.0459281 -478 219 C-478.70151152 217.6846659 -479.36525925 216.34882408 -480 215 C-481.65743028 212.96588101 -482.47212842 212.11197276 -485.0625 211.5625 C-485.701875 211.376875 -486.34125 211.19125 -487 211 C-487.66666667 209.66666667 -488.33333333 208.33333333 -489 207 C-490.2684375 206.2575 -490.2684375 206.2575 -491.5625 205.5 C-494 204 -494 204 -494.5625 202 C-494.7790625 201.01 -494.7790625 201.01 -495 200 C-496.92467295 198.32367195 -498.72136768 197.13931616 -501 196 C-501.33 195.01 -501.66 194.02 -502 193 C-502.76570313 192.236875 -503.53140625 191.47375 -504.3203125 190.6875 C-508.39325329 186.60268475 -511.07943973 181.72625369 -513.96386719 176.77587891 C-514.65019517 175.59954767 -515.34348885 174.42725082 -516.04394531 173.25927734 C-523.03812606 161.56348985 -523.03812606 161.56348985 -522 154 C-522.99 154 -523.98 154 -525 154 C-525.144375 153.236875 -525.28875 152.47375 -525.4375 151.6875 C-526.16461078 148.21352625 -527.01392649 145.97911027 -529 143 C-529.41417733 140.32472122 -529.72616723 137.69028684 -530 135 C-530.24696521 132.98904597 -530.49859487 130.97866144 -530.75390625 128.96875 C-531.50260417 122.97916667 -532.25130208 116.98958333 -533 111 C-533.66 111 -534.32 111 -535 111 C-535.02940464 107.04168267 -535.04693328 103.08339403 -535.0625 99.125 C-535.07087891 98.01640625 -535.07925781 96.9078125 -535.08789062 95.765625 C-535.10746751 89.10948511 -534.82879778 82.6060883 -534 76 C-533.34 76 -532.68 76 -532 76 C-531.86722656 75.07058594 -531.73445312 74.14117187 -531.59765625 73.18359375 C-531.06510417 69.45572917 -530.53255208 65.72786458 -530 62 C-529.75056641 60.06833984 -529.75056641 60.06833984 -529.49609375 58.09765625 C-529 55 -529 55 -528 54 C-527.855625 53.05125 -527.71125 52.1025 -527.5625 51.125 C-526.89723515 47.42908415 -525.63434639 45.63434639 -523 43 C-522.938125 41.906875 -522.87625 40.81375 -522.8125 39.6875 C-522.17683601 33.30731696 -518.66014701 27.16057995 -515 22 C-512.90234375 21.03515625 -512.90234375 21.03515625 -511 21 C-508.875 22.375 -508.875 22.375 -507 24 C-506.34 24.33 -505.68 24.66 -505 25 C-504.9175 25.598125 -504.835 26.19625 -504.75 26.8125 C-504.1315233 29.34257662 -504.1315233 29.34257662 -501.0625 30.9375 C-497.63198552 33.24784649 -497.39170403 34.28878926 -496 38 C-493.45717695 40.28202069 -490.84249576 42.10500283 -488 44 C-487.87238281 44.59425781 -487.74476563 45.18851563 -487.61328125 45.80078125 C-486.69143389 49.10651415 -484.6006703 50.79552885 -482.1875 53.1875 C-481.31480469 54.06792969 -480.44210937 54.94835937 -479.54296875 55.85546875 C-477.12458708 57.89493348 -476.00954714 58.48617488 -473 59 C-471.625 60.625 -471.625 60.625 -470 63 C-463.21759173 72.05438385 -463.21759173 72.05438385 -453.8828125 77.4453125 C-452.95082031 77.71988281 -452.95082031 77.71988281 -452 78 C-451.71898437 78.56976563 -451.43796875 79.13953125 -451.1484375 79.7265625 C-449.43222675 83.1239593 -446.57056169 85.07862209 -443.625 87.375 C-442.96580566 87.89392822 -442.30661133 88.41285645 -441.62744141 88.94750977 C-421.08732745 104.92130706 -398.98670661 118.83365549 -376 131 C-375.18015625 131.43521973 -374.3603125 131.87043945 -373.515625 132.31884766 C-319.09962554 160.9593898 -259.11715161 175.76325408 -198 180 C-198.2165625 179.06027344 -198.433125 178.12054688 -198.65625 177.15234375 C-200.79562608 166.86199562 -201.28656632 156.73586633 -201.25 146.25 C-201.24677734 144.96085693 -201.24355469 143.67171387 -201.24023438 142.34350586 C-201.1580164 133.86261318 -200.72169745 125.44957335 -200 117 C-199.94046143 116.16251221 -199.88092285 115.32502441 -199.81958008 114.4621582 C-199.33813232 108.80745873 -197.82986168 103.77211586 -195.9375 98.4375 C-195.65583984 97.61958984 -195.37417969 96.80167969 -195.08398438 95.95898438 C-194.39764559 93.96976517 -193.7000155 91.9844476 -193 90 C-192.34 90 -191.68 90 -191 90 C-191.061875 88.824375 -191.061875 88.824375 -191.125 87.625 C-191 85 -191 85 -189 83 C-188.71898437 82.13632813 -188.43796875 81.27265625 -188.1484375 80.3828125 C-186.7445071 76.24742567 -184.77515145 72.66235828 -182.625 68.875 C-182.23828125 68.17246094 -181.8515625 67.46992187 -181.453125 66.74609375 C-179.32797474 62.97359547 -177.27039918 59.90856778 -174 57 C-171.7763932 55.0745356 -171.7763932 55.0745356 -171 52 C-169.515 51.505 -169.515 51.505 -168 51 C-167.67 50.01 -167.34 49.02 -167 48 C-166 47 -165 46 -164 45 C-163.566875 44.01 -163.566875 44.01 -163.125 43 C-162 41 -162 41 -159.6875 39.625 C-156.35129987 37.60776271 -154.47672391 34.98476985 -152 32 C-150.66834591 31.32998536 -149.33479424 30.66373681 -148 30 C-146.43536559 28.71496633 -144.89664217 27.39816368 -143.375 26.0625 C-104.24821717 -6.33447618 -47.98037869 -16.01155171 0 0 Z M159 12 C160 14 160 14 160 14 Z M-520 33 C-519 35 -519 35 -519 35 Z M-521 36 C-520 38 -520 38 -520 38 Z M-526 48 C-525 50 -525 50 -525 50 Z M-529 58 C-528 62 -528 62 -528 62 Z M-185 75 C-184 77 -184 77 -184 77 Z M-187 79 C-186 81 -186 81 -186 81 Z M-193 93 C-192 95 -192 95 -192 95 Z M-195 99 C-194 101 -194 101 -194 101 Z M-196 102 C-195 105 -195 105 -195 105 Z M-197 105 C-196 108 -196 108 -196 108 Z M-198 109 C-197 113 -197 113 -197 113 Z M-199 114 C-198 117 -198 117 -198 117 Z M-529 136 C-528 140 -528 140 -528 140 Z M-528 140 C-527 142 -527 142 -527 142 Z M-521 159 C-520 161 -520 161 -520 161 Z M-534 225 C-534 226.98 -534 228.96 -534 231 C-533.67 231 -533.34 231 -533 231 C-533 229.02 -533 227.04 -533 225 C-533.33 225 -533.66 225 -534 225 Z M-533 232 C-533 233.98 -533 235.96 -533 238 C-532.67 238 -532.34 238 -532 238 C-532 236.02 -532 234.04 -532 232 C-532.33 232 -532.66 232 -533 232 Z M93 269 C94 272 94 272 94 272 Z M-522 270 C-521 272 -521 272 -521 272 Z M86 294 C87 297 87 297 87 297 Z M85 297 C86 299 86 299 86 299 Z M82 306 C83 308 83 308 83 308 Z M77 320 C78 322 78 322 78 322 Z M72 332 C73 334 73 334 73 334 Z M-418 358 C-414 359 -414 359 -414 359 Z M-481 362 C-480 364 -480 364 -480 364 Z M58 363 C59 365 59 365 59 365 Z M-480 365 C-479 367 -479 367 -479 367 Z M-479 368 C-478 370 -478 370 -478 370 Z M52 374 C53 376 53 376 53 376 Z M47 383 C48 385 48 385 48 385 Z " fill="#FDFDFD" transform="translate(567,10)"/>
<path d="M0 0 C14.85 0 29.7 0 45 0 C45 0.33 45 0.66 45 1 C30.15 1 15.3 1 0 1 C0 0.67 0 0.34 0 0 Z " fill="#000000" transform="translate(216,611)"/>
<path d="M0 0 C0.33 0 0.66 0 1 0 C1 11.22 1 22.44 1 34 C0.67 34 0.34 34 0 34 C0 22.78 0 11.56 0 0 Z " fill="#000000" transform="translate(675,157)"/>
<path d="M0 0 C0.33 0 0.66 0 1 0 C1 10.23 1 20.46 1 31 C0.67 31 0.34 31 0 31 C0 20.77 0 10.54 0 0 Z " fill="#000000" transform="translate(364,141)"/>
<path d="M0 0 C10.23 0 20.46 0 31 0 C31 0.33 31 0.66 31 1 C20.77 1 10.54 1 0 1 C0 0.67 0 0.34 0 0 Z " fill="#000000" transform="translate(504,1)"/>
<path d="M0 0 C9.9 0 19.8 0 30 0 C30 0.33 30 0.66 30 1 C20.1 1 10.2 1 0 1 C0 0.67 0 0.34 0 0 Z " fill="#000000" transform="translate(25,540)"/>
<path d="M0 0 C0 0.33 0 0.66 0 1 C-8.35748222 1.84327749 -16.60197746 2.12190678 -25 2 C-25 1.67 -25 1.34 -25 1 C-16.64251778 0.15672251 -8.39802254 -0.12190678 0 0 Z " fill="#000000" transform="translate(289,609)"/>
<path d="M0 0 C1.485 0.99 1.485 0.99 3 2 C3 2.99 3 3.98 3 5 C3.66 5.33 4.32 5.66 5 6 C6.0409066 7.64142963 7.04504326 9.30712215 8 11 C7.01 11 6.02 11 5 11 C4.16151196 9.54462432 3.32936066 8.08559627 2.5 6.625 C1.80390625 5.40683594 1.80390625 5.40683594 1.09375 4.1640625 C0 2 0 2 0 0 Z " fill="#0F0F0F" transform="translate(49,290)"/>
<path d="M0 0 C7.26 0 14.52 0 22 0 C22 0.33 22 0.66 22 1 C14.74 1 7.48 1 0 1 C0 0.67 0 0.34 0 0 Z " fill="#000000" transform="translate(105,371)"/>
<path d="M0 0 C6.76594019 -0.11381955 13.28837062 0.11978631 20 1 C20 1.33 20 1.66 20 2 C13.25766581 2.12910853 6.69613196 1.797837 0 1 C0 0.67 0 0.34 0 0 Z " fill="#000000" transform="translate(345,187)"/>
<path d="M0 0 C4.95 0.33 9.9 0.66 15 1 C15 1.33 15 1.66 15 2 C13.25034642 2.05429959 11.50020213 2.09292823 9.75 2.125 C8.77546875 2.14820313 7.8009375 2.17140625 6.796875 2.1953125 C4 2 4 2 0 0 Z " fill="#000000" transform="translate(206,477)"/>
<path d="M0 0 C0.33 0 0.66 0 1 0 C1 4.62 1 9.24 1 14 C0.67 14 0.34 14 0 14 C0 9.38 0 4.76 0 0 Z " fill="#000000" transform="translate(674,191)"/>
<path d="M0 0 C4.29 0 8.58 0 13 0 C13 0.33 13 0.66 13 1 C8.71 1 4.42 1 0 1 C0 0.67 0 0.34 0 0 Z " fill="#000000" transform="translate(55,539)"/>
<path d="M0 0 C4.29 0 8.58 0 13 0 C13 0.33 13 0.66 13 1 C8.71 1 4.42 1 0 1 C0 0.67 0 0.34 0 0 Z " fill="#000000" transform="translate(12,539)"/>
<path d="M0 0 C2.31 1.98 4.62 3.96 7 6 C4 6 4 6 1.8125 4.125 C0 2 0 2 0 0 Z " fill="#000000" transform="translate(120,430)"/>
<path d="M0 0 C0.33 0 0.66 0 1 0 C1.25 7.5 1.25 7.5 -1 12 C-0.67 8.04 -0.34 4.08 0 0 Z " fill="#000000" transform="translate(669,239)"/>
<path d="M0 0 C0.33 0 0.66 0 1 0 C1 4.29 1 8.58 1 13 C0.67 13 0.34 13 0 13 C0 8.71 0 4.42 0 0 Z " fill="#000000" transform="translate(673,205)"/>
<path d="M0 0 C1.85625 -0.061875 1.85625 -0.061875 3.75 -0.125 C4.79414063 -0.15980469 4.79414063 -0.15980469 5.859375 -0.1953125 C8 0 8 0 12 2 C8.04 1.67 4.08 1.34 0 1 C0 0.67 0 0.34 0 0 Z " fill="#000000" transform="translate(316,183)"/>
<path d="M0 0 C0 3 0 3 -2 5.1875 C-2.66 5.785625 -3.32 6.38375 -4 7 C-4.66 6.67 -5.32 6.34 -6 6 C-4.02 4.02 -2.04 2.04 0 0 Z " fill="#000000" transform="translate(695,73)"/>
<path d="M0 0 C3.96 0 7.92 0 12 0 C12 0.33 12 0.66 12 1 C8.04 1 4.08 1 0 1 C0 0.67 0 0.34 0 0 Z " fill="#000000" transform="translate(202,610)"/>
<path d="M0 0 C3.96 0 7.92 0 12 0 C12 0.33 12 0.66 12 1 C8.04 1 4.08 1 0 1 C0 0.67 0 0.34 0 0 Z " fill="#000000" transform="translate(190,609)"/>
<path d="M0 0 C3.3 0.33 6.6 0.66 10 1 C10 1.33 10 1.66 10 2 C3.375 2.25 3.375 2.25 0 0 Z " fill="#000000" transform="translate(148,602)"/>
<path d="M0 0 C3.63 0 7.26 0 11 0 C11 0.33 11 0.66 11 1 C7.37 1 3.74 1 0 1 C0 0.67 0 0.34 0 0 Z " fill="#000000" transform="translate(127,370)"/>
<path d="M0 0 C3.63 0 7.26 0 11 0 C11 0.33 11 0.66 11 1 C7.37 1 3.74 1 0 1 C0 0.67 0 0.34 0 0 Z " fill="#000000" transform="translate(94,370)"/>
<path d="M0 0 C-3.3 0 -6.6 0 -10 0 C-10 -0.33 -10 -0.66 -10 -1 C-3.375 -2.25 -3.375 -2.25 0 0 Z " fill="#000000" transform="translate(96,233)"/>
<path d="M0 0 C0.33 0 0.66 0 1 0 C1 3.3 1 6.6 1 10 C0.67 10 0.34 10 0 10 C0 6.7 0 3.4 0 0 Z " fill="#000000" transform="translate(33,121)"/>
<path d="M0 0 C2.97 0 5.94 0 9 0 C9 0.33 9 0.66 9 1 C6.03 1 3.06 1 0 1 C0 0.67 0 0.34 0 0 Z " fill="#000000" transform="translate(296,607)"/>
<path d="M0 0 C2.97 0 5.94 0 9 0 C9 0.33 9 0.66 9 1 C6.03 1 3.06 1 0 1 C0 0.67 0 0.34 0 0 Z " fill="#000000" transform="translate(174,607)"/>
<path d="M0 0 C0.33 0 0.66 0 1 0 C1 2.97 1 5.94 1 9 C0.67 9 0.34 9 0 9 C0 6.03 0 3.06 0 0 Z " fill="#000000" transform="translate(671,225)"/>
<path d="M0 0 C2.64 0.33 5.28 0.66 8 1 C8 1.33 8 1.66 8 2 C5.36 1.67 2.72 1.34 0 1 C0 0.67 0 0.34 0 0 Z " fill="#000000" transform="translate(277,174)"/>
<path d="M0 0 C-2.64 0.33 -5.28 0.66 -8 1 C-4.93251126 -0.86240388 -3.40254489 -1.2151946 0 0 Z " fill="#000000" transform="translate(703,90)"/>
<path d="M0 0 C2.64 0 5.28 0 8 0 C8 0.33 8 0.66 8 1 C5.36 1 2.72 1 0 1 C0 0.67 0 0.34 0 0 Z " fill="#000000" transform="translate(329,185)"/>
<path d="M0 0 C2.31 0 4.62 0 7 0 C7 0.33 7 0.66 7 1 C4.69 1 2.38 1 0 1 C0 0.67 0 0.34 0 0 Z " fill="#000000" transform="translate(289,608)"/>
<path d="M0 0 C2.31 0 4.62 0 7 0 C7 0.33 7 0.66 7 1 C4.69 1 2.38 1 0 1 C0 0.67 0 0.34 0 0 Z " fill="#000000" transform="translate(183,608)"/>
<path d="M0 0 C2.31 0 4.62 0 7 0 C7 0.33 7 0.66 7 1 C4.69 1 2.38 1 0 1 C0 0.67 0 0.34 0 0 Z " fill="#000000" transform="translate(311,605)"/>
<path d="M0 0 C2.31 0 4.62 0 7 0 C7 0.33 7 0.66 7 1 C4.69 1 2.38 1 0 1 C0 0.67 0 0.34 0 0 Z " fill="#000000" transform="translate(162,605)"/>
<path d="M0 0 C0.99 0.33 1.98 0.66 3 1 C1.02 1.33 -0.96 1.66 -3 2 C-2.01 1.34 -1.02 0.68 0 0 Z " fill="#000000" transform="translate(390,585)"/>
<path d="M0 0 C2.31 0 4.62 0 7 0 C7 0.33 7 0.66 7 1 C4.69 1 2.38 1 0 1 C0 0.67 0 0.34 0 0 Z " fill="#000000" transform="translate(71,538)"/>
<path d="M0 0 C2.31 0 4.62 0 7 0 C7 0.33 7 0.66 7 1 C4.69 1 2.38 1 0 1 C0 0.67 0 0.34 0 0 Z " fill="#000000" transform="translate(78,537)"/>
<path d="M0 0 C0.99 0.33 1.98 0.66 3 1 C1.02 1.33 -0.96 1.66 -3 2 C-2.01 1.34 -1.02 0.68 0 0 Z " fill="#000000" transform="translate(136,524)"/>
<path d="M0 0 C0.33 0 0.66 0 1 0 C1 2.31 1 4.62 1 7 C0.67 7 0.34 7 0 7 C0 4.69 0 2.38 0 0 Z " fill="#000000" transform="translate(672,218)"/>
<path d="M0 0 C0.33 0 0.66 0 1 0 C1 2.31 1 4.62 1 7 C0.67 7 0.34 7 0 7 C0 4.69 0 2.38 0 0 Z " fill="#000000" transform="translate(366,179)"/>
<path d="M0 0 C0.33 0 0.66 0 1 0 C1 2.31 1 4.62 1 7 C0.67 7 0.34 7 0 7 C0 4.69 0 2.38 0 0 Z " fill="#000000" transform="translate(365,172)"/>
<path d="M0 0 C0.33 0 0.66 0 1 0 C1 2.31 1 4.62 1 7 C0.67 7 0.34 7 0 7 C0 4.69 0 2.38 0 0 Z " fill="#000000" transform="translate(365,134)"/>
<path d="M0 0 C0.33 0 0.66 0 1 0 C1 2.31 1 4.62 1 7 C0.67 7 0.34 7 0 7 C0 4.69 0 2.38 0 0 Z " fill="#000000" transform="translate(366,127)"/>
<path d="M0 0 C1.32 0.66 2.64 1.32 4 2 C2.35 2 0.7 2 -1 2 C-0.67 1.34 -0.34 0.68 0 0 Z " fill="#000000" transform="translate(671,94)"/>
<path d="M0 0 C0.625 1.875 0.625 1.875 1 4 C0.34 4.66 -0.32 5.32 -1 6 C-0.67 4.02 -0.34 2.04 0 0 Z " fill="#000000" transform="translate(729,16)"/>
<path d="M0 0 C2.31 0 4.62 0 7 0 C7 0.33 7 0.66 7 1 C4.69 1 2.38 1 0 1 C0 0.67 0 0.34 0 0 Z " fill="#000000" transform="translate(542,3)"/>
<path d="M0 0 C2.31 0 4.62 0 7 0 C7 0.33 7 0.66 7 1 C4.69 1 2.38 1 0 1 C0 0.67 0 0.34 0 0 Z " fill="#000000" transform="translate(490,3)"/>
<path d="M0 0 C2.31 0 4.62 0 7 0 C7 0.33 7 0.66 7 1 C4.69 1 2.38 1 0 1 C0 0.67 0 0.34 0 0 Z " fill="#000000" transform="translate(535,2)"/>
<path d="M0 0 C2.31 0 4.62 0 7 0 C7 0.33 7 0.66 7 1 C4.69 1 2.38 1 0 1 C0 0.67 0 0.34 0 0 Z " fill="#000000" transform="translate(497,2)"/>
<path d="M0 0 C1.98 0 3.96 0 6 0 C6 0.33 6 0.66 6 1 C4.02 1 2.04 1 0 1 C0 0.67 0 0.34 0 0 Z " fill="#000000" transform="translate(305,606)"/>
<path d="M0 0 C1.98 0 3.96 0 6 0 C6 0.33 6 0.66 6 1 C4.02 1 2.04 1 0 1 C0 0.67 0 0.34 0 0 Z " fill="#000000" transform="translate(323,603)"/>
<path d="M0 0 C1.98 0 3.96 0 6 0 C6 0.33 6 0.66 6 1 C4.02 1 2.04 1 0 1 C0 0.67 0 0.34 0 0 Z " fill="#000000" transform="translate(3,538)"/>
<path d="M0 0 C1.98 0 3.96 0 6 0 C6 0.33 6 0.66 6 1 C4.02 1 2.04 1 0 1 C0 0.67 0 0.34 0 0 Z " fill="#000000" transform="translate(92,535)"/>
<path d="M0 0 C1.98 0 3.96 0 6 0 C6 0.33 6 0.66 6 1 C4.02 1 2.04 1 0 1 C0 0.67 0 0.34 0 0 Z " fill="#000000" transform="translate(102,533)"/>
<path d="M0 0 C2.475 0.495 2.475 0.495 5 1 C4.01 1.33 3.02 1.66 2 2 C1.34 1.34 0.68 0.68 0 0 Z " fill="#000000" transform="translate(177,469)"/>
<path d="M0 0 C0.33 0 0.66 0 1 0 C1 1.98 1 3.96 1 6 C0.67 6 0.34 6 0 6 C0 4.02 0 2.04 0 0 Z " fill="#000000" transform="translate(667,251)"/>
<path d="M0 0 C1.98 0 3.96 0 6 0 C6 0.33 6 0.66 6 1 C4.02 1 2.04 1 0 1 C0 0.67 0 0.34 0 0 Z " fill="#000000" transform="translate(75,230)"/>
<path d="M0 0 C1.98 0 3.96 0 6 0 C6 0.33 6 0.66 6 1 C4.02 1 2.04 1 0 1 C0 0.67 0 0.34 0 0 Z " fill="#000000" transform="translate(337,186)"/>
<path d="M0 0 C1.98 0 3.96 0 6 0 C6 0.33 6 0.66 6 1 C4.02 1 2.04 1 0 1 C0 0.67 0 0.34 0 0 Z " fill="#000000" transform="translate(306,181)"/>
<path d="M0 0 C0.66 0.33 1.32 0.66 2 1 C0.02 1.99 0.02 1.99 -2 3 C-1.34 2.01 -0.68 1.02 0 0 Z " fill="#000000" transform="translate(691,141)"/>
<path d="M0 0 C0.33 0 0.66 0 1 0 C1 1.98 1 3.96 1 6 C0.67 6 0.34 6 0 6 C0 4.02 0 2.04 0 0 Z " fill="#000000" transform="translate(35,136)"/>
<path d="M0 0 C1.98 0 3.96 0 6 0 C6 0.33 6 0.66 6 1 C4.02 1 2.04 1 0 1 C0 0.67 0 0.34 0 0 Z " fill="#000000" transform="translate(675,94)"/>
<path d="M0 0 C0.33 0 0.66 0 1 0 C1 1.98 1 3.96 1 6 C0.67 6 0.34 6 0 6 C0 4.02 0 2.04 0 0 Z " fill="#000000" transform="translate(35,75)"/>
<path d="M0 0 C1.65 0 3.3 0 5 0 C5 0.33 5 0.66 5 1 C3.35 1 1.7 1 0 1 C0 0.67 0 0.34 0 0 Z " fill="#000000" transform="translate(169,606)"/>
<path d="M0 0 C1.65 0 3.3 0 5 0 C5 0.33 5 0.66 5 1 C3.35 1 1.7 1 0 1 C0 0.67 0 0.34 0 0 Z " fill="#000000" transform="translate(333,601)"/>
<path d="M0 0 C1.65 0 3.3 0 5 0 C5 0.33 5 0.66 5 1 C3.35 1 1.7 1 0 1 C0 0.67 0 0.34 0 0 Z " fill="#000000" transform="translate(142,601)"/>
<path d="M0 0 C1.65 0 3.3 0 5 0 C5 0.33 5 0.66 5 1 C3.35 1 1.7 1 0 1 C0 0.67 0 0.34 0 0 Z " fill="#000000" transform="translate(342,599)"/>
<path d="M0 0 C1.98 0.99 1.98 0.99 4 2 C2.68 1.67 1.36 1.34 0 1 C0 0.67 0 0.34 0 0 Z " fill="#000000" transform="translate(53,570)"/>
<path d="M0 0 C1.65 0 3.3 0 5 0 C5 0.33 5 0.66 5 1 C3.35 1 1.7 1 0 1 C0 0.67 0 0.34 0 0 Z " fill="#000000" transform="translate(87,536)"/>
<path d="M0 0 C1.65 0 3.3 0 5 0 C5 0.33 5 0.66 5 1 C3.35 1 1.7 1 0 1 C0 0.67 0 0.34 0 0 Z " fill="#000000" transform="translate(111,531)"/>
<path d="M0 0 C1.65 0 3.3 0 5 0 C5 0.33 5 0.66 5 1 C3.35 1 1.7 1 0 1 C0 0.67 0 0.34 0 0 Z " fill="#000000" transform="translate(119,529)"/>
<path d="M0 0 C1.98 0.99 1.98 0.99 4 2 C2.68 1.67 1.36 1.34 0 1 C0 0.67 0 0.34 0 0 Z " fill="#000000" transform="translate(158,460)"/>
<path d="M0 0 C1.65 0 3.3 0 5 0 C5 0.33 5 0.66 5 1 C3.35 1 1.7 1 0 1 C0 0.67 0 0.34 0 0 Z " fill="#000000" transform="translate(138,369)"/>
<path d="M0 0 C1.65 0 3.3 0 5 0 C5 0.33 5 0.66 5 1 C3.35 1 1.7 1 0 1 C0 0.67 0 0.34 0 0 Z " fill="#000000" transform="translate(89,369)"/>
<path d="M0 0 C0.33 0.99 0.66 1.98 1 3 C0.01 3.495 0.01 3.495 -1 4 C-0.67 2.68 -0.34 1.36 0 0 Z " fill="#000000" transform="translate(635,354)"/>
<path d="M0 0 C0.33 0 0.66 0 1 0 C1 1.65 1 3.3 1 5 C0.67 5 0.34 5 0 5 C0 3.35 0 1.7 0 0 Z " fill="#000000" transform="translate(35,252)"/>
<path d="M0 0 C0.33 0 0.66 0 1 0 C1 1.65 1 3.3 1 5 C0.67 5 0.34 5 0 5 C0 3.35 0 1.7 0 0 Z " fill="#000000" transform="translate(670,234)"/>
<path d="M0 0 C1.65 0 3.3 0 5 0 C5 0.33 5 0.66 5 1 C3.35 1 1.7 1 0 1 C0 0.67 0 0.34 0 0 Z " fill="#000000" transform="translate(81,231)"/>
<path d="M0 0 C1.65 0 3.3 0 5 0 C5 0.33 5 0.66 5 1 C3.35 1 1.7 1 0 1 C0 0.67 0 0.34 0 0 Z " fill="#000000" transform="translate(297,179)"/>
<path d="M0 0 C1.65 0 3.3 0 5 0 C5 0.33 5 0.66 5 1 C3.35 1 1.7 1 0 1 C0 0.67 0 0.34 0 0 Z " fill="#000000" transform="translate(288,177)"/>
<path d="M0 0 C0.33 0 0.66 0 1 0 C1 1.65 1 3.3 1 5 C0.67 5 0.34 5 0 5 C0 3.35 0 1.7 0 0 Z " fill="#000000" transform="translate(34,131)"/>
<path d="M0 0 C1.65 0 3.3 0 5 0 C5 0.33 5 0.66 5 1 C3.35 1 1.7 1 0 1 C0 0.67 0 0.34 0 0 Z " fill="#000000" transform="translate(686,92)"/>
<path d="M0 0 C0.33 0 0.66 0 1 0 C1 1.65 1 3.3 1 5 C0.67 5 0.34 5 0 5 C0 3.35 0 1.7 0 0 Z " fill="#000000" transform="translate(34,81)"/>
<path d="M0 0 C0.99 0.33 1.98 0.66 3 1 C1.68 1.33 0.36 1.66 -1 2 C-0.67 1.34 -0.34 0.68 0 0 Z " fill="#000000" transform="translate(736,77)"/>
<path d="M0 0 C0.99 0.33 1.98 0.66 3 1 C1.68 1.33 0.36 1.66 -1 2 C-0.67 1.34 -0.34 0.68 0 0 Z " fill="#000000" transform="translate(741,75)"/>
<path d="M0 0 C0.99 0.33 1.98 0.66 3 1 C1.68 1.33 0.36 1.66 -1 2 C-0.67 1.34 -0.34 0.68 0 0 Z " fill="#000000" transform="translate(691,30)"/>
<path d="M0 0 C1.65 0 3.3 0 5 0 C5 0.33 5 0.66 5 1 C3.35 1 1.7 1 0 1 C0 0.67 0 0.34 0 0 Z " fill="#000000" transform="translate(553,5)"/>
<path d="M0 0 C1.65 0 3.3 0 5 0 C5 0.33 5 0.66 5 1 C3.35 1 1.7 1 0 1 C0 0.67 0 0.34 0 0 Z " fill="#000000" transform="translate(481,5)"/>
<path d="M0 0 C4 1 4 1 4 1 Z " fill="#000000" transform="translate(318,604)"/>
<path d="M0 0 C4 1 4 1 4 1 Z " fill="#000000" transform="translate(158,604)"/>
<path d="M0 0 C4 1 4 1 4 1 Z " fill="#000000" transform="translate(338,600)"/>
<path d="M0 0 C4 1 4 1 4 1 Z " fill="#000000" transform="translate(134,599)"/>
<path d="M0 0 C4 1 4 1 4 1 Z " fill="#000000" transform="translate(351,597)"/>
<path d="M0 0 C4 1 4 1 4 1 Z " fill="#000000" transform="translate(126,597)"/>
<path d="M0 0 C4 1 4 1 4 1 Z " fill="#000000" transform="translate(362,594)"/>
<path d="M0 0 C4 1 4 1 4 1 Z " fill="#000000" transform="translate(115,594)"/>
<path d="M0 0 C4 1 4 1 4 1 Z " fill="#000000" transform="translate(369,592)"/>
<path d="M0 0 C4 1 4 1 4 1 Z " fill="#000000" transform="translate(375,590)"/>
<path d="M0 0 C4 1 4 1 4 1 Z " fill="#000000" transform="translate(102,590)"/>
<path d="M0 0 C4 1 4 1 4 1 Z " fill="#000000" transform="translate(381,588)"/>
<path d="M0 0 C4 1 4 1 4 1 Z " fill="#000000" transform="translate(96,588)"/>
<path d="M0 0 C4 1 4 1 4 1 Z " fill="#000000" transform="translate(126,527)"/>
<path d="M0 0 C0.66 0.33 1.32 0.66 2 1 C1.01 1 0.02 1 -1 1 C-0.67 0.67 -0.34 0.34 0 0 Z " fill="#000000" transform="translate(503,523)"/>
<path d="M0 0 C4 1 4 1 4 1 Z " fill="#000000" transform="translate(200,476)"/>
<path d="M0 0 C4 1 4 1 4 1 Z " fill="#000000" transform="translate(196,475)"/>
<path d="M0 0 C4 1 4 1 4 1 Z " fill="#000000" transform="translate(188,473)"/>
<path d="M0 0 C0.99 0.33 1.98 0.66 3 1 C2.01 1 1.02 1 0 1 C0 0.67 0 0.34 0 0 Z " fill="#000000" transform="translate(148,454)"/>
<path d="M0 0 C0.99 0.33 1.98 0.66 3 1 C2.01 1 1.02 1 0 1 C0 0.67 0 0.34 0 0 Z " fill="#000000" transform="translate(138,447)"/>
<path d="M0 0 C1 4 1 4 1 4 Z " fill="#000000" transform="translate(658,290)"/>
<path d="M0 0 C1 4 1 4 1 4 Z " fill="#000000" transform="translate(664,266)"/>
<path d="M0 0 C1 4 1 4 1 4 Z " fill="#000000" transform="translate(665,262)"/>
<path d="M0 0 C1 4 1 4 1 4 Z " fill="#000000" transform="translate(37,260)"/>
<path d="M0 0 C4 1 4 1 4 1 Z " fill="#000000" transform="translate(71,229)"/>
<path d="M0 0 C4 1 4 1 4 1 Z " fill="#000000" transform="translate(67,228)"/>
<path d="M0 0 C4 1 4 1 4 1 Z " fill="#000000" transform="translate(60,226)"/>
<path d="M0 0 C0.99 0.33 1.98 0.66 3 1 C2.01 1 1.02 1 0 1 C0 0.67 0 0.34 0 0 Z " fill="#000000" transform="translate(82,222)"/>
<path d="M0 0 C4 1 4 1 4 1 Z " fill="#000000" transform="translate(312,182)"/>
<path d="M0 0 C4 1 4 1 4 1 Z " fill="#000000" transform="translate(302,180)"/>
<path d="M0 0 C4 1 4 1 4 1 Z " fill="#000000" transform="translate(293,178)"/>
<path d="M0 0 C4 1 4 1 4 1 Z " fill="#000000" transform="translate(273,173)"/>
<path d="M0 0 C0.66 0.33 1.32 0.66 2 1 C1.01 1 0.02 1 -1 1 C-0.67 0.67 -0.34 0.34 0 0 Z " fill="#000000" transform="translate(680,150)"/>
<path d="M0 0 C4 1 4 1 4 1 Z " fill="#000000" transform="translate(682,93)"/>
<path d="M0 0 C4 1 4 1 4 1 Z " fill="#000000" transform="translate(691,91)"/>
<path d="M0 0 C4 1 4 1 4 1 Z " fill="#000000" transform="translate(703,88)"/>
<path d="M0 0 C4 1 4 1 4 1 Z " fill="#000000" transform="translate(710,86)"/>
<path d="M0 0 C4 1 4 1 4 1 Z " fill="#000000" transform="translate(635,48)"/>
<path d="M0 0 C4 1 4 1 4 1 Z " fill="#000000" transform="translate(639,47)"/>
<path d="M0 0 C4 1 4 1 4 1 Z " fill="#000000" transform="translate(647,45)"/>
<path d="M0 0 C4 1 4 1 4 1 Z " fill="#000000" transform="translate(654,43)"/>
<path d="M0 0 C4 1 4 1 4 1 Z " fill="#000000" transform="translate(661,41)"/>
<path d="M0 0 C4 1 4 1 4 1 Z " fill="#000000" transform="translate(667,39)"/>
<path d="M0 0 C0.99 0.33 1.98 0.66 3 1 C2.01 1 1.02 1 0 1 C0 0.67 0 0.34 0 0 Z " fill="#000000" transform="translate(620,39)"/>
<path d="M0 0 C4 1 4 1 4 1 Z " fill="#000000" transform="translate(673,37)"/>
<path d="M0 0 C0.66 0.33 1.32 0.66 2 1 C1.01 1 0.02 1 -1 1 C-0.67 0.67 -0.34 0.34 0 0 Z " fill="#000000" transform="translate(427,31)"/>
<path d="M0 0 C0.66 0.33 1.32 0.66 2 1 C1.01 1 0.02 1 -1 1 C-0.67 0.67 -0.34 0.34 0 0 Z " fill="#000000" transform="translate(434,26)"/>
<path d="M0 0 C4 1 4 1 4 1 Z " fill="#000000" transform="translate(567,9)"/>
<path d="M0 0 C4 1 4 1 4 1 Z " fill="#000000" transform="translate(468,9)"/>
<path d="M0 0 C4 1 4 1 4 1 Z " fill="#000000" transform="translate(561,7)"/>
<path d="M0 0 C4 1 4 1 4 1 Z " fill="#000000" transform="translate(474,7)"/>
<path d="M0 0 C4 1 4 1 4 1 Z " fill="#000000" transform="translate(549,4)"/>
<path d="M0 0 C4 1 4 1 4 1 Z " fill="#000000" transform="translate(486,4)"/>
<path d="M0 0 C3 1 3 1 3 1 Z " fill="#000000" transform="translate(329,602)"/>
<path d="M0 0 C3 1 3 1 3 1 Z " fill="#000000" transform="translate(139,600)"/>
<path d="M0 0 C3 1 3 1 3 1 Z " fill="#000000" transform="translate(347,598)"/>
<path d="M0 0 C3 1 3 1 3 1 Z " fill="#000000" transform="translate(131,598)"/>
<path d="M0 0 C3 1 3 1 3 1 Z " fill="#000000" transform="translate(355,596)"/>
<path d="M0 0 C3 1 3 1 3 1 Z " fill="#000000" transform="translate(123,596)"/>
<path d="M0 0 C3 1 3 1 3 1 Z " fill="#000000" transform="translate(359,595)"/>
<path d="M0 0 C3 1 3 1 3 1 Z " fill="#000000" transform="translate(119,595)"/>
<path d="M0 0 C3 1 3 1 3 1 Z " fill="#000000" transform="translate(366,593)"/>
<path d="M0 0 C3 1 3 1 3 1 Z " fill="#000000" transform="translate(112,593)"/>
<path d="M0 0 C3 1 3 1 3 1 Z " fill="#000000" transform="translate(109,592)"/>
<path d="M0 0 C3 1 3 1 3 1 Z " fill="#000000" transform="translate(106,591)"/>
<path d="M0 0 C3 1 3 1 3 1 Z " fill="#000000" transform="translate(91,586)"/>
<path d="M0 0 C3 1 3 1 3 1 Z " fill="#000000" transform="translate(393,584)"/>
<path d="M0 0 C3 1 3 1 3 1 Z " fill="#000000" transform="translate(85,584)"/>
<path d="M0 0 C3 1 3 1 3 1 Z " fill="#000000" transform="translate(398,582)"/>
<path d="M0 0 C3 1 3 1 3 1 Z " fill="#000000" transform="translate(80,582)"/>
<path d="M0 0 C3 1 3 1 3 1 Z " fill="#000000" transform="translate(75,580)"/>
<path d="M0 0 C3 1 3 1 3 1 Z " fill="#000000" transform="translate(70,578)"/>
<path d="M0 0 C3 1 3 1 3 1 Z " fill="#000000" transform="translate(413,576)"/>
<path d="M0 0 C3 1 3 1 3 1 Z " fill="#000000" transform="translate(63,575)"/>
<path d="M0 0 C3 1 3 1 3 1 Z " fill="#000000" transform="translate(420,573)"/>
<path d="M0 0 C3 1 3 1 3 1 Z " fill="#000000" transform="translate(424,571)"/>
<path d="M0 0 C3 1 3 1 3 1 Z " fill="#000000" transform="translate(50,569)"/>
<path d="M0 0 C3 1 3 1 3 1 Z " fill="#000000" transform="translate(99,534)"/>
<path d="M0 0 C3 1 3 1 3 1 Z " fill="#000000" transform="translate(108,532)"/>
<path d="M0 0 C3 1 3 1 3 1 Z " fill="#000000" transform="translate(116,530)"/>
<path d="M0 0 C3 1 3 1 3 1 Z " fill="#000000" transform="translate(130,526)"/>
<path d="M0 0 C3 1 3 1 3 1 Z " fill="#000000" transform="translate(139,523)"/>
<path d="M0 0 C3 1 3 1 3 1 Z " fill="#000000" transform="translate(142,522)"/>
<path d="M0 0 C3 1 3 1 3 1 Z " fill="#000000" transform="translate(145,521)"/>
<path d="M0 0 C3 1 3 1 3 1 Z " fill="#000000" transform="translate(153,518)"/>
<path d="M0 0 C3 1 3 1 3 1 Z " fill="#000000" transform="translate(162,514)"/>
<path d="M0 0 C3 1 3 1 3 1 Z " fill="#000000" transform="translate(171,510)"/>
<path d="M0 0 C3 1 3 1 3 1 Z " fill="#000000" transform="translate(192,474)"/>
<path d="M0 0 C3 1 3 1 3 1 Z " fill="#000000" transform="translate(185,472)"/>
<path d="M0 0 C3 1 3 1 3 1 Z " fill="#000000" transform="translate(182,471)"/>
<path d="M0 0 C3 1 3 1 3 1 Z " fill="#000000" transform="translate(174,468)"/>
<path d="M0 0 C3 1 3 1 3 1 Z " fill="#000000" transform="translate(167,465)"/>
<path d="M0 0 C3 1 3 1 3 1 Z " fill="#000000" transform="translate(163,463)"/>
<path d="M0 0 C3 1 3 1 3 1 Z " fill="#000000" transform="translate(138,366)"/>
<path d="M0 0 C3 1 3 1 3 1 Z " fill="#000000" transform="translate(135,365)"/>
<path d="" fill="#000000" transform="translate(0,0)"/>
<path d="M0 0 C3 1 3 1 3 1 Z " fill="#000000" transform="translate(130,363)"/>
<path d="M0 0 C3 1 3 1 3 1 Z " fill="#000000" transform="translate(125,361)"/>
<path d="" fill="#000000" transform="translate(0,0)"/>
<path d="" fill="#000000" transform="translate(0,0)"/>
<path d="M0 0 C0.66 0.66 1.32 1.32 2 2 C1.34 2 0.68 2 0 2 C0 1.34 0 0.68 0 0 Z " fill="#000000" transform="translate(85,335)"/>
<path d="" fill="#000000" transform="translate(0,0)"/>
<path d="" fill="#000000" transform="translate(0,0)"/>
<path d="" fill="#000000" transform="translate(0,0)"/>
<path d="" fill="#000000" transform="translate(0,0)"/>
<path d="" fill="#000000" transform="translate(0,0)"/>
<path d="" fill="#000000" transform="translate(0,0)"/>
<path d="M0 0 C3 1 3 1 3 1 Z " fill="#000000" transform="translate(64,227)"/>
<path d="M0 0 C3 1 3 1 3 1 Z " fill="#000000" transform="translate(52,223)"/>
<path d="M0 0 C3 1 3 1 3 1 Z " fill="#000000" transform="translate(47,221)"/>
<path d="M0 0 C0.66 0.66 1.32 1.32 2 2 C1.34 2 0.68 2 0 2 C0 1.34 0 0.68 0 0 Z " fill="#000000" transform="translate(71,210)"/>
<path d="" fill="#000000" transform="translate(0,0)"/>
<path d="M0 0 C3 1 3 1 3 1 Z " fill="#000000" transform="translate(285,176)"/>
<path d="M0 0 C3 1 3 1 3 1 Z " fill="#000000" transform="translate(270,172)"/>
<path d="M0 0 C3 1 3 1 3 1 Z " fill="#000000" transform="translate(264,170)"/>
<path d="M0 0 C3 1 3 1 3 1 Z " fill="#000000" transform="translate(260,169)"/>
<path d="M0 0 C3 1 3 1 3 1 Z " fill="#000000" transform="translate(257,168)"/>
<path d="M0 0 C3 1 3 1 3 1 Z " fill="#000000" transform="translate(251,166)"/>
<path d="M0 0 C3 1 3 1 3 1 Z " fill="#000000" transform="translate(248,165)"/>
<path d="M0 0 C3 1 3 1 3 1 Z " fill="#000000" transform="translate(245,164)"/>
<path d="M0 0 C3 1 3 1 3 1 Z " fill="#000000" transform="translate(240,162)"/>
<path d="M0 0 C3 1 3 1 3 1 Z " fill="#000000" transform="translate(235,160)"/>
<path d="M0 0 C3 1 3 1 3 1 Z " fill="#000000" transform="translate(232,159)"/>
<path d="M0 0 C3 1 3 1 3 1 Z " fill="#000000" transform="translate(213,151)"/>
<path d="" fill="#000000" transform="translate(0,0)"/>
<path d="M0 0 C3 1 3 1 3 1 Z " fill="#000000" transform="translate(707,87)"/>
<path d="M0 0 C3 1 3 1 3 1 Z " fill="#000000" transform="translate(714,85)"/>
<path d="M0 0 C3 1 3 1 3 1 Z " fill="#000000" transform="translate(717,84)"/>
<path d="M0 0 C3 1 3 1 3 1 Z " fill="#000000" transform="translate(720,83)"/>
<path d="M0 0 C3 1 3 1 3 1 Z " fill="#000000" transform="translate(726,81)"/>
<path d="M0 0 C0.33 0.66 0.66 1.32 1 2 C0.34 1.67 -0.32 1.34 -1 1 C-0.67 0.67 -0.34 0.34 0 0 Z " fill="#000000" transform="translate(688,80)"/>
<path d="M0 0 C3 1 3 1 3 1 Z " fill="#000000" transform="translate(731,79)"/>
<path d="M0 0 C3 1 3 1 3 1 Z " fill="#000000" transform="translate(746,73)"/>
<path d="" fill="#000000" transform="translate(0,0)"/>
<path d="M0 0 C0.66 0 1.32 0 2 0 C1.67 0.66 1.34 1.32 1 2 C0.67 1.34 0.34 0.68 0 0 Z " fill="#000000" transform="translate(89,66)"/>
<path d="M0 0 C0.99 0.495 0.99 0.495 2 1 C1.01 1.495 1.01 1.495 0 2 C0 1.34 0 0.68 0 0 Z " fill="#000000" transform="translate(397,60)"/>
<path d="M0 0 C0.66 0 1.32 0 2 0 C1.67 0.66 1.34 1.32 1 2 C0.67 1.34 0.34 0.68 0 0 Z " fill="#000000" transform="translate(83,60)"/>
<path d="M0 0 C0.66 0 1.32 0 2 0 C1.67 0.66 1.34 1.32 1 2 C0.67 1.34 0.34 0.68 0 0 Z " fill="#000000" transform="translate(81,58)"/>
<path d="M0 0 C0.66 0 1.32 0 2 0 C1.67 0.66 1.34 1.32 1 2 C0.67 1.34 0.34 0.68 0 0 Z " fill="#000000" transform="translate(79,56)"/>
<path d="" fill="#000000" transform="translate(0,0)"/>
<path d="M0 0 C3 1 3 1 3 1 Z " fill="#000000" transform="translate(631,49)"/>
<path d="M0 0 C3 1 3 1 3 1 Z " fill="#000000" transform="translate(644,46)"/>
<path d="M0 0 C3 1 3 1 3 1 Z " fill="#000000" transform="translate(658,42)"/>
<path d="M0 0 C3 1 3 1 3 1 Z " fill="#000000" transform="translate(679,35)"/>
<path d="M0 0 C0.66 0 1.32 0 2 0 C1.67 0.66 1.34 1.32 1 2 C0.67 1.34 0.34 0.68 0 0 Z " fill="#000000" transform="translate(57,31)"/>
<path d="" fill="#000000" transform="translate(0,0)"/>
<path d="M0 0 C3 1 3 1 3 1 Z " fill="#000000" transform="translate(696,28)"/>
<path d="M0 0 C3 1 3 1 3 1 Z " fill="#000000" transform="translate(700,26)"/>
<path d="M0 0 C3 1 3 1 3 1 Z " fill="#000000" transform="translate(578,13)"/>
<path d="M0 0 C3 1 3 1 3 1 Z " fill="#000000" transform="translate(458,13)"/>
<path d="M0 0 C3 1 3 1 3 1 Z " fill="#000000" transform="translate(573,11)"/>
<path d="M0 0 C3 1 3 1 3 1 Z " fill="#000000" transform="translate(463,11)"/>
<path d="M0 0 C3 1 3 1 3 1 Z " fill="#000000" transform="translate(558,6)"/>
<path d="M0 0 C3 1 3 1 3 1 Z " fill="#000000" transform="translate(478,6)"/>
<path d="M0 0 C2 1 2 1 2 1 Z " fill="#000000" transform="translate(373,591)"/>
<path d="M0 0 C2 1 2 1 2 1 Z " fill="#000000" transform="translate(379,589)"/>
<path d="M0 0 C2 1 2 1 2 1 Z " fill="#000000" transform="translate(100,589)"/>
<path d="M0 0 C2 1 2 1 2 1 Z " fill="#000000" transform="translate(385,587)"/>
<path d="M0 0 C2 1 2 1 2 1 Z " fill="#000000" transform="translate(94,587)"/>
<path d="M0 0 C2 1 2 1 2 1 Z " fill="#000000" transform="translate(89,585)"/>
<path d="M0 0 C2 1 2 1 2 1 Z " fill="#000000" transform="translate(396,583)"/>
<path d="M0 0 C2 1 2 1 2 1 Z " fill="#000000" transform="translate(83,583)"/>
<path d="M0 0 C2 1 2 1 2 1 Z " fill="#000000" transform="translate(401,581)"/>
<path d="M0 0 C2 1 2 1 2 1 Z " fill="#000000" transform="translate(78,581)"/>
<path d="M0 0 C2 1 2 1 2 1 Z " fill="#000000" transform="translate(404,580)"/>
<path d="M0 0 C2 1 2 1 2 1 Z " fill="#000000" transform="translate(406,579)"/>
<path d="M0 0 C2 1 2 1 2 1 Z " fill="#000000" transform="translate(73,579)"/>
<path d="M0 0 C2 1 2 1 2 1 Z " fill="#000000" transform="translate(409,578)"/>
<path d="M0 0 C2 1 2 1 2 1 Z " fill="#000000" transform="translate(411,577)"/>
<path d="M0 0 C2 1 2 1 2 1 Z " fill="#000000" transform="translate(68,577)"/>
<path d="M0 0 C2 1 2 1 2 1 Z " fill="#000000" transform="translate(66,576)"/>
<path d="M0 0 C2 1 2 1 2 1 Z " fill="#000000" transform="translate(416,575)"/>
<path d="M0 0 C2 1 2 1 2 1 Z " fill="#000000" transform="translate(418,574)"/>
<path d="M0 0 C2 1 2 1 2 1 Z " fill="#000000" transform="translate(61,574)"/>
<path d="M0 0 C2 1 2 1 2 1 Z " fill="#000000" transform="translate(59,573)"/>
<path d="M0 0 C2 1 2 1 2 1 Z " fill="#000000" transform="translate(57,572)"/>
<path d="M0 0 C2 1 2 1 2 1 Z " fill="#000000" transform="translate(427,570)"/>
<path d="M0 0 C2 1 2 1 2 1 Z " fill="#000000" transform="translate(429,569)"/>
<path d="M0 0 C2 1 2 1 2 1 Z " fill="#000000" transform="translate(431,568)"/>
<path d="M0 0 C2 1 2 1 2 1 Z " fill="#000000" transform="translate(433,567)"/>
<path d="M0 0 C2 1 2 1 2 1 Z " fill="#000000" transform="translate(46,567)"/>
<path d="M0 0 C2 1 2 1 2 1 Z " fill="#000000" transform="translate(435,566)"/>
<path d="M0 0 C2 1 2 1 2 1 Z " fill="#000000" transform="translate(437,565)"/>
<path d="M0 0 C2 1 2 1 2 1 Z " fill="#000000" transform="translate(42,565)"/>
<path d="M0 0 C2 1 2 1 2 1 Z " fill="#000000" transform="translate(439,564)"/>
<path d="M0 0 C2 1 2 1 2 1 Z " fill="#000000" transform="translate(441,563)"/>
<path d="M0 0 C2 1 2 1 2 1 Z " fill="#000000" transform="translate(38,563)"/>
<path d="M0 0 C2 1 2 1 2 1 Z " fill="#000000" transform="translate(445,561)"/>
<path d="M0 0 C2 1 2 1 2 1 Z " fill="#000000" transform="translate(34,561)"/>
<path d="M0 0 C2 1 2 1 2 1 Z " fill="#000000" transform="translate(448,559)"/>
<path d="M0 0 C2 1 2 1 2 1 Z " fill="#000000" transform="translate(31,559)"/>
<path d="M0 0 C2 1 2 1 2 1 Z " fill="#000000" transform="translate(450,558)"/>
<path d="M0 0 C2 1 2 1 2 1 Z " fill="#000000" transform="translate(29,558)"/>
<path d="M0 0 C2 1 2 1 2 1 Z " fill="#000000" transform="translate(452,557)"/>
<path d="M0 0 C2 1 2 1 2 1 Z " fill="#000000" transform="translate(27,557)"/>
<path d="M0 0 C2 1 2 1 2 1 Z " fill="#000000" transform="translate(454,556)"/>
<path d="M0 0 C2 1 2 1 2 1 Z " fill="#000000" transform="translate(25,556)"/>
<path d="M0 0 C2 1 2 1 2 1 Z " fill="#000000" transform="translate(457,554)"/>
<path d="M0 0 C2 1 2 1 2 1 Z " fill="#000000" transform="translate(22,554)"/>
<path d="M0 0 C2 1 2 1 2 1 Z " fill="#000000" transform="translate(459,553)"/>
<path d="M0 0 C2 1 2 1 2 1 Z " fill="#000000" transform="translate(20,553)"/>
<path d="M0 0 C2 1 2 1 2 1 Z " fill="#000000" transform="translate(18,552)"/>
<path d="M0 0 C2 1 2 1 2 1 Z " fill="#000000" transform="translate(464,550)"/>
<path d="M0 0 C2 1 2 1 2 1 Z " fill="#000000" transform="translate(15,550)"/>
<path d="M0 0 C2 1 2 1 2 1 Z " fill="#000000" transform="translate(467,548)"/>
<path d="M0 0 C2 1 2 1 2 1 Z " fill="#000000" transform="translate(10,547)"/>
<path d="M0 0 C2 1 2 1 2 1 Z " fill="#000000" transform="translate(8,546)"/>
<path d="M0 0 C2 1 2 1 2 1 Z " fill="#000000" transform="translate(472,545)"/>
<path d="M0 0 C2 1 2 1 2 1 Z " fill="#000000" transform="translate(5,544)"/>
<path d="M0 0 C2 1 2 1 2 1 Z " fill="#000000" transform="translate(475,543)"/>
<path d="M0 0 C2 1 2 1 2 1 Z " fill="#000000" transform="translate(478,541)"/>
<path d="M0 0 C2 1 2 1 2 1 Z " fill="#000000" transform="translate(481,539)"/>
<path d="M0 0 C2 1 2 1 2 1 Z " fill="#000000" transform="translate(484,537)"/>
<path d="M0 0 C2 1 2 1 2 1 Z " fill="#000000" transform="translate(487,535)"/>
<path d="M0 0 C2 1 2 1 2 1 Z " fill="#000000" transform="translate(491,532)"/>
<path d="M0 0 C2 1 2 1 2 1 Z " fill="#000000" transform="translate(495,529)"/>
<path d="M0 0 C2 1 2 1 2 1 Z " fill="#000000" transform="translate(124,528)"/>
<path d="M0 0 C2 1 2 1 2 1 Z " fill="#000000" transform="translate(507,520)"/>
<path d="M0 0 C2 1 2 1 2 1 Z " fill="#000000" transform="translate(148,520)"/>
<path d="M0 0 C2 1 2 1 2 1 Z " fill="#000000" transform="translate(151,519)"/>
<path d="M0 0 C2 1 2 1 2 1 Z " fill="#000000" transform="translate(156,517)"/>
<path d="M0 0 C2 1 2 1 2 1 Z " fill="#000000" transform="translate(512,516)"/>
<path d="M0 0 C2 1 2 1 2 1 Z " fill="#000000" transform="translate(158,516)"/>
<path d="M0 0 C2 1 2 1 2 1 Z " fill="#000000" transform="translate(165,513)"/>
<path d="M0 0 C2 1 2 1 2 1 Z " fill="#000000" transform="translate(167,512)"/>
<path d="M0 0 C2 1 2 1 2 1 Z " fill="#000000" transform="translate(169,511)"/>
<path d="M0 0 C2 1 2 1 2 1 Z " fill="#000000" transform="translate(519,510)"/>
<path d="M0 0 C2 1 2 1 2 1 Z " fill="#000000" transform="translate(176,508)"/>
<path d="M0 0 C2 1 2 1 2 1 Z " fill="#000000" transform="translate(178,507)"/>
<path d="M0 0 C2 1 2 1 2 1 Z " fill="#000000" transform="translate(181,505)"/>
<path d="M0 0 C2 1 2 1 2 1 Z " fill="#000000" transform="translate(185,503)"/>
<path d="M0 0 C2 1 2 1 2 1 Z " fill="#000000" transform="translate(187,502)"/>
<path d="M0 0 C2 1 2 1 2 1 Z " fill="#000000" transform="translate(189,501)"/>
<path d="M0 0 C2 1 2 1 2 1 Z " fill="#000000" transform="translate(192,499)"/>
<path d="M0 0 C2 1 2 1 2 1 Z " fill="#000000" transform="translate(194,498)"/>
<path d="M0 0 C2 1 2 1 2 1 Z " fill="#000000" transform="translate(196,497)"/>
<path d="M0 0 C2 1 2 1 2 1 Z " fill="#000000" transform="translate(199,495)"/>
<path d="M0 0 C2 1 2 1 2 1 Z " fill="#000000" transform="translate(204,492)"/>
<path d="M0 0 C2 1 2 1 2 1 Z " fill="#000000" transform="translate(207,490)"/>
<path d="M0 0 C2 1 2 1 2 1 Z " fill="#000000" transform="translate(210,488)"/>
<path d="M0 0 C2 1 2 1 2 1 Z " fill="#000000" transform="translate(213,486)"/>
<path d="M0 0 C2 1 2 1 2 1 Z " fill="#000000" transform="translate(216,484)"/>
<path d="M0 0 C2 1 2 1 2 1 Z " fill="#000000" transform="translate(220,481)"/>
<path d="M0 0 C2 1 2 1 2 1 Z " fill="#000000" transform="translate(172,467)"/>
<path d="M0 0 C2 1 2 1 2 1 Z " fill="#000000" transform="translate(170,466)"/>
<path d="M0 0 C2 1 2 1 2 1 Z " fill="#000000" transform="translate(156,459)"/>
<path d="M0 0 C2 1 2 1 2 1 Z " fill="#000000" transform="translate(151,456)"/>
<path d="M0 0 C2 1 2 1 2 1 Z " fill="#000000" transform="translate(142,450)"/>
<path d="" fill="#000000" transform="translate(0,0)"/>
<path d="" fill="#000000" transform="translate(0,0)"/>
<path d="" fill="#000000" transform="translate(0,0)"/>
<path d="M0 0 C2 1 2 1 2 1 Z " fill="#000000" transform="translate(87,368)"/>
<path d="M0 0 C2 1 2 1 2 1 Z " fill="#000000" transform="translate(133,364)"/>
<path d="M0 0 C2 1 2 1 2 1 Z " fill="#000000" transform="translate(128,362)"/>
<path d="M0 0 C2 1 2 1 2 1 Z " fill="#000000" transform="translate(123,360)"/>
<path d="M0 0 C2 1 2 1 2 1 Z " fill="#000000" transform="translate(121,359)"/>
<path d="M0 0 C2 1 2 1 2 1 Z " fill="#000000" transform="translate(119,358)"/>
<path d="M0 0 C2 1 2 1 2 1 Z " fill="#000000" transform="translate(117,357)"/>
<path d="M0 0 C2 1 2 1 2 1 Z " fill="#000000" transform="translate(115,356)"/>
<path d="M0 0 C2 1 2 1 2 1 Z " fill="#000000" transform="translate(113,355)"/>
<path d="M0 0 C2 1 2 1 2 1 Z " fill="#000000" transform="translate(111,354)"/>
<path d="" fill="#000000" transform="translate(0,0)"/>
<path d="M0 0 C2 1 2 1 2 1 Z " fill="#000000" transform="translate(109,353)"/>
<path d="M0 0 C2 1 2 1 2 1 Z " fill="#000000" transform="translate(106,351)"/>
<path d="" fill="#000000" transform="translate(0,0)"/>
<path d="M0 0 C2 1 2 1 2 1 Z " fill="#000000" transform="translate(101,348)"/>
<path d="M0 0 C2 1 2 1 2 1 Z " fill="#000000" transform="translate(98,346)"/>
<path d="M0 0 C2 1 2 1 2 1 Z " fill="#000000" transform="translate(94,343)"/>
<path d="M0 0 C2 1 2 1 2 1 Z " fill="#000000" transform="translate(90,340)"/>
<path d="" fill="#000000" transform="translate(0,0)"/>
<path d="M0 0 C2 1 2 1 2 1 Z " fill="#000000" transform="translate(83,334)"/>
<path d="" fill="#000000" transform="translate(0,0)"/>
<path d="" fill="#000000" transform="translate(0,0)"/>
<path d="" fill="#000000" transform="translate(0,0)"/>
<path d="" fill="#000000" transform="translate(0,0)"/>
<path d="" fill="#000000" transform="translate(0,0)"/>
<path d="" fill="#000000" transform="translate(0,0)"/>
<path d="M0 0 C2 1 2 1 2 1 Z " fill="#000000" transform="translate(58,225)"/>
<path d="M0 0 C2 1 2 1 2 1 Z " fill="#000000" transform="translate(55,224)"/>
<path d="M0 0 C2 1 2 1 2 1 Z " fill="#000000" transform="translate(50,222)"/>
<path d="M0 0 C2 1 2 1 2 1 Z " fill="#000000" transform="translate(45,220)"/>
<path d="M0 0 C2 1 2 1 2 1 Z " fill="#000000" transform="translate(43,219)"/>
<path d="M0 0 C2 1 2 1 2 1 Z " fill="#000000" transform="translate(41,218)"/>
<path d="M0 0 C2 1 2 1 2 1 Z " fill="#000000" transform="translate(39,217)"/>
<path d="M0 0 C2 1 2 1 2 1 Z " fill="#000000" transform="translate(37,216)"/>
<path d="M0 0 C2 1 2 1 2 1 Z " fill="#000000" transform="translate(35,215)"/>
<path d="M0 0 C2 1 2 1 2 1 Z " fill="#000000" transform="translate(33,214)"/>
<path d="M0 0 C2 1 2 1 2 1 Z " fill="#000000" transform="translate(267,171)"/>
<path d="" fill="#000000" transform="translate(0,0)"/>
<path d="M0 0 C2 1 2 1 2 1 Z " fill="#000000" transform="translate(254,167)"/>
<path d="" fill="#000000" transform="translate(0,0)"/>
<path d="M0 0 C2 1 2 1 2 1 Z " fill="#000000" transform="translate(243,163)"/>
<path d="M0 0 C2 1 2 1 2 1 Z " fill="#000000" transform="translate(238,161)"/>
<path d="M0 0 C2 1 2 1 2 1 Z " fill="#000000" transform="translate(230,158)"/>
<path d="M0 0 C2 1 2 1 2 1 Z " fill="#000000" transform="translate(228,157)"/>
<path d="" fill="#000000" transform="translate(0,0)"/>
<path d="M0 0 C2 1 2 1 2 1 Z " fill="#000000" transform="translate(225,156)"/>
<path d="M0 0 C2 1 2 1 2 1 Z " fill="#000000" transform="translate(223,155)"/>
<path d="M0 0 C2 1 2 1 2 1 Z " fill="#000000" transform="translate(220,154)"/>
<path d="M0 0 C2 1 2 1 2 1 Z " fill="#000000" transform="translate(676,153)"/>
<path d="M0 0 C2 1 2 1 2 1 Z " fill="#000000" transform="translate(218,153)"/>
<path d="M0 0 C2 1 2 1 2 1 Z " fill="#000000" transform="translate(211,150)"/>
<path d="M0 0 C2 1 2 1 2 1 Z " fill="#000000" transform="translate(209,149)"/>
<path d="M0 0 C2 1 2 1 2 1 Z " fill="#000000" transform="translate(207,148)"/>
<path d="M0 0 C2 1 2 1 2 1 Z " fill="#000000" transform="translate(684,147)"/>
<path d="M0 0 C2 1 2 1 2 1 Z " fill="#000000" transform="translate(205,147)"/>
<path d="M0 0 C2 1 2 1 2 1 Z " fill="#000000" transform="translate(203,146)"/>
<path d="M0 0 C2 1 2 1 2 1 Z " fill="#000000" transform="translate(201,145)"/>
<path d="M0 0 C2 1 2 1 2 1 Z " fill="#000000" transform="translate(199,144)"/>
<path d="M0 0 C2 1 2 1 2 1 Z " fill="#000000" transform="translate(197,143)"/>
<path d="M0 0 C2 1 2 1 2 1 Z " fill="#000000" transform="translate(195,142)"/>
<path d="M0 0 C2 1 2 1 2 1 Z " fill="#000000" transform="translate(193,141)"/>
<path d="M0 0 C2 1 2 1 2 1 Z " fill="#000000" transform="translate(191,140)"/>
<path d="M0 0 C2 1 2 1 2 1 Z " fill="#000000" transform="translate(189,139)"/>
<path d="M0 0 C2 1 2 1 2 1 Z " fill="#000000" transform="translate(187,138)"/>
<path d="M0 0 C2 1 2 1 2 1 Z " fill="#000000" transform="translate(185,137)"/>
<path d="M0 0 C2 1 2 1 2 1 Z " fill="#000000" transform="translate(697,136)"/>
<path d="M0 0 C2 1 2 1 2 1 Z " fill="#000000" transform="translate(183,136)"/>
<path d="M0 0 C2 1 2 1 2 1 Z " fill="#000000" transform="translate(180,134)"/>
<path d="M0 0 C2 1 2 1 2 1 Z " fill="#000000" transform="translate(178,133)"/>
<path d="M0 0 C2 1 2 1 2 1 Z " fill="#000000" transform="translate(176,132)"/>
<path d="M0 0 C2 1 2 1 2 1 Z " fill="#000000" transform="translate(173,130)"/>
<path d="M0 0 C2 1 2 1 2 1 Z " fill="#000000" transform="translate(171,129)"/>
<path d="M0 0 C2 1 2 1 2 1 Z " fill="#000000" transform="translate(168,127)"/>
<path d="M0 0 C2 1 2 1 2 1 Z " fill="#000000" transform="translate(166,126)"/>
<path d="M0 0 C2 1 2 1 2 1 Z " fill="#000000" transform="translate(163,124)"/>
<path d="M0 0 C2 1 2 1 2 1 Z " fill="#000000" transform="translate(158,121)"/>
<path d="M0 0 C2 1 2 1 2 1 Z " fill="#000000" transform="translate(155,119)"/>
<path d="M0 0 C2 1 2 1 2 1 Z " fill="#000000" transform="translate(152,117)"/>
<path d="M0 0 C2 1 2 1 2 1 Z " fill="#000000" transform="translate(149,115)"/>
<path d="M0 0 C2 1 2 1 2 1 Z " fill="#000000" transform="translate(146,113)"/>
<path d="M0 0 C2 1 2 1 2 1 Z " fill="#000000" transform="translate(143,111)"/>
<path d="M0 0 C2 1 2 1 2 1 Z " fill="#000000" transform="translate(139,108)"/>
<path d="M0 0 C2 1 2 1 2 1 Z " fill="#000000" transform="translate(136,106)"/>
<path d="M0 0 C2 1 2 1 2 1 Z " fill="#000000" transform="translate(132,103)"/>
<path d="M0 0 C2 1 2 1 2 1 Z " fill="#000000" transform="translate(128,100)"/>
<path d="" fill="#000000" transform="translate(0,0)"/>
<path d="M0 0 C2 1 2 1 2 1 Z " fill="#000000" transform="translate(668,96)"/>
<path d="M0 0 C2 1 2 1 2 1 Z " fill="#000000" transform="translate(123,96)"/>
<path d="M0 0 C2 1 2 1 2 1 Z " fill="#000000" transform="translate(118,92)"/>
<path d="M0 0 C2 1 2 1 2 1 Z " fill="#000000" transform="translate(675,91)"/>
<path d="M0 0 C2 1 2 1 2 1 Z " fill="#000000" transform="translate(680,87)"/>
<path d="M0 0 C2 1 2 1 2 1 Z " fill="#000000" transform="translate(724,82)"/>
<path d="M0 0 C2 1 2 1 2 1 Z " fill="#000000" transform="translate(105,81)"/>
<path d="M0 0 C2 1 2 1 2 1 Z " fill="#000000" transform="translate(729,80)"/>
<path d="M0 0 C2 1 2 1 2 1 Z " fill="#000000" transform="translate(744,74)"/>
<path d="" fill="#000000" transform="translate(0,0)"/>
<path d="M0 0 C2 1 2 1 2 1 Z " fill="#000000" transform="translate(652,44)"/>
<path d="M0 0 C2 1 2 1 2 1 Z " fill="#000000" transform="translate(665,40)"/>
<path d="M0 0 C2 1 2 1 2 1 Z " fill="#000000" transform="translate(671,38)"/>
<path d="M0 0 C2 1 2 1 2 1 Z " fill="#000000" transform="translate(677,36)"/>
<path d="M0 0 C2 1 2 1 2 1 Z " fill="#000000" transform="translate(422,35)"/>
<path d="M0 0 C2 1 2 1 2 1 Z " fill="#000000" transform="translate(682,34)"/>
<path d="M0 0 C2 1 2 1 2 1 Z " fill="#000000" transform="translate(685,33)"/>
<path d="M0 0 C2 1 2 1 2 1 Z " fill="#000000" transform="translate(687,32)"/>
<path d="M0 0 C2 1 2 1 2 1 Z " fill="#000000" transform="translate(610,31)"/>
<path d="M0 0 C2 1 2 1 2 1 Z " fill="#000000" transform="translate(694,29)"/>
<path d="M0 0 C2 1 2 1 2 1 Z " fill="#000000" transform="translate(430,29)"/>
<path d="" fill="#000000" transform="translate(0,0)"/>
<path d="M0 0 C2 1 2 1 2 1 Z " fill="#000000" transform="translate(603,26)"/>
<path d="M0 0 C2 1 2 1 2 1 Z " fill="#000000" transform="translate(703,25)"/>
<path d="M0 0 C2 1 2 1 2 1 Z " fill="#000000" transform="translate(436,25)"/>
<path d="M0 0 C2 1 2 1 2 1 Z " fill="#000000" transform="translate(705,24)"/>
<path d="M0 0 C2 1 2 1 2 1 Z " fill="#000000" transform="translate(707,23)"/>
<path d="M0 0 C2 1 2 1 2 1 Z " fill="#000000" transform="translate(598,23)"/>
<path d="M0 0 C2 1 2 1 2 1 Z " fill="#000000" transform="translate(439,23)"/>
<path d="M0 0 C2 1 2 1 2 1 Z " fill="#000000" transform="translate(709,22)"/>
<path d="M0 0 C2 1 2 1 2 1 Z " fill="#000000" transform="translate(441,22)"/>
<path d="M0 0 C2 1 2 1 2 1 Z " fill="#000000" transform="translate(711,21)"/>
<path d="M0 0 C2 1 2 1 2 1 Z " fill="#000000" transform="translate(595,21)"/>
<path d="M0 0 C2 1 2 1 2 1 Z " fill="#000000" transform="translate(713,20)"/>
<path d="M0 0 C2 1 2 1 2 1 Z " fill="#000000" transform="translate(593,20)"/>
<path d="M0 0 C2 1 2 1 2 1 Z " fill="#000000" transform="translate(444,20)"/>
<path d="M0 0 C2 1 2 1 2 1 Z " fill="#000000" transform="translate(715,19)"/>
<path d="M0 0 C2 1 2 1 2 1 Z " fill="#000000" transform="translate(591,19)"/>
<path d="M0 0 C2 1 2 1 2 1 Z " fill="#000000" transform="translate(446,19)"/>
<path d="M0 0 C2 1 2 1 2 1 Z " fill="#000000" transform="translate(589,18)"/>
<path d="M0 0 C2 1 2 1 2 1 Z " fill="#000000" transform="translate(448,18)"/>
<path d="M0 0 C2 1 2 1 2 1 Z " fill="#000000" transform="translate(718,17)"/>
<path d="M0 0 C2 1 2 1 2 1 Z " fill="#000000" transform="translate(587,17)"/>
<path d="M0 0 C2 1 2 1 2 1 Z " fill="#000000" transform="translate(450,17)"/>
<path d="M0 0 C2 1 2 1 2 1 Z " fill="#000000" transform="translate(720,16)"/>
<path d="M0 0 C2 1 2 1 2 1 Z " fill="#000000" transform="translate(585,16)"/>
<path d="M0 0 C2 1 2 1 2 1 Z " fill="#000000" transform="translate(452,16)"/>
<path d="" fill="#000000" transform="translate(0,0)"/>
<path d="M0 0 C2 1 2 1 2 1 Z " fill="#000000" transform="translate(722,15)"/>
<path d="M0 0 C2 1 2 1 2 1 Z " fill="#000000" transform="translate(583,15)"/>
<path d="M0 0 C2 1 2 1 2 1 Z " fill="#000000" transform="translate(454,15)"/>
<path d="M0 0 C2 1 2 1 2 1 Z " fill="#000000" transform="translate(581,14)"/>
<path d="M0 0 C2 1 2 1 2 1 Z " fill="#000000" transform="translate(456,14)"/>
<path d="M0 0 C2 1 2 1 2 1 Z " fill="#000000" transform="translate(725,13)"/>
<path d="M0 0 C2 1 2 1 2 1 Z " fill="#000000" transform="translate(727,12)"/>
<path d="M0 0 C2 1 2 1 2 1 Z " fill="#000000" transform="translate(576,12)"/>
<path d="M0 0 C2 1 2 1 2 1 Z " fill="#000000" transform="translate(461,12)"/>
<path d="M0 0 C2 1 2 1 2 1 Z " fill="#000000" transform="translate(571,10)"/>
<path d="M0 0 C2 1 2 1 2 1 Z " fill="#000000" transform="translate(466,10)"/>
<path d="M0 0 C2 1 2 1 2 1 Z " fill="#000000" transform="translate(565,8)"/>
<path d="M0 0 C2 1 2 1 2 1 Z " fill="#000000" transform="translate(472,8)"/>
<path d="" fill="#000000" transform="translate(0,0)"/>
<path d="" fill="#000000" transform="translate(0,0)"/>
<path d="" fill="#000000" transform="translate(0,0)"/>
<path d="" fill="#000000" transform="translate(0,0)"/>
<path d="" fill="#000000" transform="translate(0,0)"/>
<path d="" fill="#000000" transform="translate(0,0)"/>
<path d="" fill="#000000" transform="translate(0,0)"/>
<path d="" fill="#000000" transform="translate(0,0)"/>
<path d="" fill="#000000" transform="translate(0,0)"/>
<path d="" fill="#000000" transform="translate(0,0)"/>
<path d="" fill="#000000" transform="translate(0,0)"/>
<path d="" fill="#000000" transform="translate(0,0)"/>
<path d="" fill="#000000" transform="translate(0,0)"/>
<path d="" fill="#000000" transform="translate(0,0)"/>
<path d="" fill="#000000" transform="translate(0,0)"/>
<path d="" fill="#000000" transform="translate(0,0)"/>
<path d="" fill="#000000" transform="translate(0,0)"/>
<path d="" fill="#000000" transform="translate(0,0)"/>
<path d="" fill="#000000" transform="translate(0,0)"/>
<path d="" fill="#000000" transform="translate(0,0)"/>
<path d="" fill="#000000" transform="translate(0,0)"/>
<path d="" fill="#000000" transform="translate(0,0)"/>
<path d="" fill="#000000" transform="translate(0,0)"/>
<path d="" fill="#000000" transform="translate(0,0)"/>
<path d="" fill="#000000" transform="translate(0,0)"/>
<path d="" fill="#000000" transform="translate(0,0)"/>
<path d="" fill="#000000" transform="translate(0,0)"/>
<path d="" fill="#000000" transform="translate(0,0)"/>
<path d="" fill="#000000" transform="translate(0,0)"/>
<path d="" fill="#000000" transform="translate(0,0)"/>
<path d="" fill="#000000" transform="translate(0,0)"/>
<path d="" fill="#000000" transform="translate(0,0)"/>
<path d="" fill="#000000" transform="translate(0,0)"/>
<path d="" fill="#000000" transform="translate(0,0)"/>
<path d="" fill="#000000" transform="translate(0,0)"/>
<path d="" fill="#000000" transform="translate(0,0)"/>
<path d="" fill="#000000" transform="translate(0,0)"/>
<path d="" fill="#000000" transform="translate(0,0)"/>
<path d="" fill="#000000" transform="translate(0,0)"/>
<path d="" fill="#000000" transform="translate(0,0)"/>
<path d="" fill="#000000" transform="translate(0,0)"/>
<path d="" fill="#000000" transform="translate(0,0)"/>
<path d="" fill="#000000" transform="translate(0,0)"/>
<path d="" fill="#000000" transform="translate(0,0)"/>
<path d="" fill="#000000" transform="translate(0,0)"/>
<path d="" fill="#000000" transform="translate(0,0)"/>
<path d="" fill="#000000" transform="translate(0,0)"/>
<path d="" fill="#000000" transform="translate(0,0)"/>
<path d="" fill="#000000" transform="translate(0,0)"/>
<path d="" fill="#000000" transform="translate(0,0)"/>
<path d="" fill="#000000" transform="translate(0,0)"/>
<path d="" fill="#000000" transform="translate(0,0)"/>
<path d="" fill="#000000" transform="translate(0,0)"/>
<path d="" fill="#000000" transform="translate(0,0)"/>
<path d="" fill="#000000" transform="translate(0,0)"/>
<path d="" fill="#000000" transform="translate(0,0)"/>
<path d="" fill="#000000" transform="translate(0,0)"/>
<path d="" fill="#000000" transform="translate(0,0)"/>
<path d="" fill="#000000" transform="translate(0,0)"/>
<path d="" fill="#000000" transform="translate(0,0)"/>
<path d="" fill="#000000" transform="translate(0,0)"/>
<path d="" fill="#000000" transform="translate(0,0)"/>
<path d="" fill="#000000" transform="translate(0,0)"/>
<path d="" fill="#000000" transform="translate(0,0)"/>
<path d="" fill="#000000" transform="translate(0,0)"/>
<path d="" fill="#000000" transform="translate(0,0)"/>
<path d="" fill="#000000" transform="translate(0,0)"/>
<path d="" fill="#000000" transform="translate(0,0)"/>
<path d="" fill="#000000" transform="translate(0,0)"/>
<path d="" fill="#000000" transform="translate(0,0)"/>
<path d="" fill="#000000" transform="translate(0,0)"/>
<path d="" fill="#000000" transform="translate(0,0)"/>
<path d="" fill="#000000" transform="translate(0,0)"/>
<path d="" fill="#000000" transform="translate(0,0)"/>
<path d="" fill="#000000" transform="translate(0,0)"/>
<path d="" fill="#000000" transform="translate(0,0)"/>
<path d="" fill="#000000" transform="translate(0,0)"/>
<path d="" fill="#000000" transform="translate(0,0)"/>
<path d="" fill="#000000" transform="translate(0,0)"/>
<path d="" fill="#000000" transform="translate(0,0)"/>
<path d="" fill="#000000" transform="translate(0,0)"/>
<path d="" fill="#000000" transform="translate(0,0)"/>
<path d="" fill="#000000" transform="translate(0,0)"/>
<path d="" fill="#000000" transform="translate(0,0)"/>
<path d="" fill="#000000" transform="translate(0,0)"/>
<path d="" fill="#000000" transform="translate(0,0)"/>
<path d="" fill="#000000" transform="translate(0,0)"/>
<path d="" fill="#000000" transform="translate(0,0)"/>
<path d="" fill="#000000" transform="translate(0,0)"/>
<path d="" fill="#000000" transform="translate(0,0)"/>
<path d="" fill="#000000" transform="translate(0,0)"/>
<path d="" fill="#000000" transform="translate(0,0)"/>
<path d="" fill="#000000" transform="translate(0,0)"/>
<path d="" fill="#000000" transform="translate(0,0)"/>
<path d="" fill="#000000" transform="translate(0,0)"/>
<path d="" fill="#000000" transform="translate(0,0)"/>
<path d="" fill="#000000" transform="translate(0,0)"/>
<path d="" fill="#000000" transform="translate(0,0)"/>
<path d="" fill="#000000" transform="translate(0,0)"/>
<path d="" fill="#000000" transform="translate(0,0)"/>
<path d="" fill="#000000" transform="translate(0,0)"/>
<path d="" fill="#000000" transform="translate(0,0)"/>
<path d="" fill="#000000" transform="translate(0,0)"/>
<path d="" fill="#000000" transform="translate(0,0)"/>
<path d="" fill="#000000" transform="translate(0,0)"/>
<path d="" fill="#000000" transform="translate(0,0)"/>
<path d="" fill="#000000" transform="translate(0,0)"/>
<path d="" fill="#000000" transform="translate(0,0)"/>
<path d="" fill="#000000" transform="translate(0,0)"/>
<path d="" fill="#000000" transform="translate(0,0)"/>
<path d="" fill="#000000" transform="translate(0,0)"/>
<path d="" fill="#000000" transform="translate(0,0)"/>
<path d="" fill="#000000" transform="translate(0,0)"/>
<path d="" fill="#000000" transform="translate(0,0)"/>
<path d="" fill="#000000" transform="translate(0,0)"/>
<path d="" fill="#000000" transform="translate(0,0)"/>
<path d="" fill="#000000" transform="translate(0,0)"/>
<path d="" fill="#000000" transform="translate(0,0)"/>
<path d="" fill="#000000" transform="translate(0,0)"/>
<path d="" fill="#000000" transform="translate(0,0)"/>
<path d="" fill="#000000" transform="translate(0,0)"/>
<path d="" fill="#000000" transform="translate(0,0)"/>
<path d="" fill="#000000" transform="translate(0,0)"/>
<path d="" fill="#000000" transform="translate(0,0)"/>
<path d="" fill="#000000" transform="translate(0,0)"/>
<path d="" fill="#000000" transform="translate(0,0)"/>
<path d="" fill="#000000" transform="translate(0,0)"/>
<path d="" fill="#000000" transform="translate(0,0)"/>
<path d="" fill="#000000" transform="translate(0,0)"/>
<path d="" fill="#000000" transform="translate(0,0)"/>
<path d="" fill="#000000" transform="translate(0,0)"/>
<path d="" fill="#000000" transform="translate(0,0)"/>
<path d="" fill="#000000" transform="translate(0,0)"/>
<path d="" fill="#000000" transform="translate(0,0)"/>
<path d="" fill="#000000" transform="translate(0,0)"/>
<path d="" fill="#000000" transform="translate(0,0)"/>
<path d="" fill="#000000" transform="translate(0,0)"/>
<path d="" fill="#000000" transform="translate(0,0)"/>
<path d="" fill="#000000" transform="translate(0,0)"/>
<path d="" fill="#000000" transform="translate(0,0)"/>
<path d="" fill="#000000" transform="translate(0,0)"/>
<path d="" fill="#000000" transform="translate(0,0)"/>
<path d="" fill="#000000" transform="translate(0,0)"/>
<path d="" fill="#000000" transform="translate(0,0)"/>
<path d="" fill="#000000" transform="translate(0,0)"/>
<path d="" fill="#000000" transform="translate(0,0)"/>
<path d="" fill="#000000" transform="translate(0,0)"/>
<path d="" fill="#000000" transform="translate(0,0)"/>
<path d="" fill="#000000" transform="translate(0,0)"/>
<path d="" fill="#000000" transform="translate(0,0)"/>
<path d="" fill="#000000" transform="translate(0,0)"/>
<path d="" fill="#000000" transform="translate(0,0)"/>
<path d="" fill="#000000" transform="translate(0,0)"/>
<path d="" fill="#000000" transform="translate(0,0)"/>
<path d="" fill="#000000" transform="translate(0,0)"/>
<path d="" fill="#000000" transform="translate(0,0)"/>
<path d="" fill="#000000" transform="translate(0,0)"/>
<path d="" fill="#000000" transform="translate(0,0)"/>
<path d="" fill="#000000" transform="translate(0,0)"/>
<path d="" fill="#000000" transform="translate(0,0)"/>
<path d="" fill="#000000" transform="translate(0,0)"/>
<path d="" fill="#000000" transform="translate(0,0)"/>
<path d="" fill="#000000" transform="translate(0,0)"/>
<path d="" fill="#000000" transform="translate(0,0)"/>
<path d="" fill="#000000" transform="translate(0,0)"/>
<path d="" fill="#000000" transform="translate(0,0)"/>
<path d="" fill="#000000" transform="translate(0,0)"/>
<path d="" fill="#000000" transform="translate(0,0)"/>
<path d="" fill="#000000" transform="translate(0,0)"/>
<path d="" fill="#000000" transform="translate(0,0)"/>
<path d="" fill="#000000" transform="translate(0,0)"/>
<path d="" fill="#000000" transform="translate(0,0)"/>
<path d="" fill="#000000" transform="translate(0,0)"/>
<path d="" fill="#000000" transform="translate(0,0)"/>
<path d="" fill="#000000" transform="translate(0,0)"/>
<path d="" fill="#000000" transform="translate(0,0)"/>
<path d="" fill="#000000" transform="translate(0,0)"/>
<path d="" fill="#000000" transform="translate(0,0)"/>
<path d="" fill="#000000" transform="translate(0,0)"/>
<path d="" fill="#000000" transform="translate(0,0)"/>
<path d="" fill="#000000" transform="translate(0,0)"/>
<path d="" fill="#000000" transform="translate(0,0)"/>
<path d="" fill="#000000" transform="translate(0,0)"/>
<path d="" fill="#000000" transform="translate(0,0)"/>
<path d="" fill="#000000" transform="translate(0,0)"/>
<path d="" fill="#000000" transform="translate(0,0)"/>
<path d="" fill="#000000" transform="translate(0,0)"/>
<path d="" fill="#000000" transform="translate(0,0)"/>
<path d="" fill="#000000" transform="translate(0,0)"/>
<path d="" fill="#000000" transform="translate(0,0)"/>
<path d="" fill="#000000" transform="translate(0,0)"/>
<path d="" fill="#000000" transform="translate(0,0)"/>
<path d="" fill="#000000" transform="translate(0,0)"/>
<path d="" fill="#000000" transform="translate(0,0)"/>
<path d="" fill="#000000" transform="translate(0,0)"/>
<path d="" fill="#000000" transform="translate(0,0)"/>
<path d="" fill="#000000" transform="translate(0,0)"/>
<path d="" fill="#000000" transform="translate(0,0)"/>
<path d="" fill="#000000" transform="translate(0,0)"/>
<path d="" fill="#000000" transform="translate(0,0)"/>
<path d="" fill="#000000" transform="translate(0,0)"/>
<path d="" fill="#000000" transform="translate(0,0)"/>
<path d="" fill="#000000" transform="translate(0,0)"/>
<path d="" fill="#000000" transform="translate(0,0)"/>
<path d="" fill="#000000" transform="translate(0,0)"/>
<path d="" fill="#000000" transform="translate(0,0)"/>
<path d="" fill="#000000" transform="translate(0,0)"/>
<path d="" fill="#000000" transform="translate(0,0)"/>
<path d="" fill="#000000" transform="translate(0,0)"/>
<path d="" fill="#000000" transform="translate(0,0)"/>
<path d="" fill="#000000" transform="translate(0,0)"/>
<path d="" fill="#000000" transform="translate(0,0)"/>
<path d="" fill="#000000" transform="translate(0,0)"/>
<path d="" fill="#000000" transform="translate(0,0)"/>
<path d="" fill="#000000" transform="translate(0,0)"/>
<path d="" fill="#000000" transform="translate(0,0)"/>
<path d="" fill="#000000" transform="translate(0,0)"/>
<path d="" fill="#000000" transform="translate(0,0)"/>
<path d="" fill="#000000" transform="translate(0,0)"/>
<path d="" fill="#000000" transform="translate(0,0)"/>
<path d="" fill="#000000" transform="translate(0,0)"/>
<path d="" fill="#000000" transform="translate(0,0)"/>
<path d="" fill="#000000" transform="translate(0,0)"/>
<path d="" fill="#000000" transform="translate(0,0)"/>
<path d="" fill="#000000" transform="translate(0,0)"/>
<path d="" fill="#000000" transform="translate(0,0)"/>
<path d="" fill="#000000" transform="translate(0,0)"/>
<path d="" fill="#000000" transform="translate(0,0)"/>
<path d="" fill="#000000" transform="translate(0,0)"/>
<path d="" fill="#000000" transform="translate(0,0)"/>
<path d="" fill="#000000" transform="translate(0,0)"/>
<path d="" fill="#000000" transform="translate(0,0)"/>
<path d="" fill="#000000" transform="translate(0,0)"/>
<path d="" fill="#000000" transform="translate(0,0)"/>
<path d="" fill="#000000" transform="translate(0,0)"/>
<path d="" fill="#000000" transform="translate(0,0)"/>
<path d="" fill="#000000" transform="translate(0,0)"/>
<path d="" fill="#000000" transform="translate(0,0)"/>
<path d="" fill="#000000" transform="translate(0,0)"/>
<path d="" fill="#000000" transform="translate(0,0)"/>
<path d="" fill="#000000" transform="translate(0,0)"/>
<path d="" fill="#000000" transform="translate(0,0)"/>
<path d="" fill="#000000" transform="translate(0,0)"/>
<path d="" fill="#000000" transform="translate(0,0)"/>
<path d="" fill="#000000" transform="translate(0,0)"/>
<path d="" fill="#000000" transform="translate(0,0)"/>
<path d="" fill="#000000" transform="translate(0,0)"/>
<path d="" fill="#000000" transform="translate(0,0)"/>
<path d="" fill="#000000" transform="translate(0,0)"/>
<path d="" fill="#000000" transform="translate(0,0)"/>
<path d="" fill="#000000" transform="translate(0,0)"/>
<path d="" fill="#000000" transform="translate(0,0)"/>
<path d="" fill="#000000" transform="translate(0,0)"/>
<path d="" fill="#000000" transform="translate(0,0)"/>
<path d="" fill="#000000" transform="translate(0,0)"/>
<path d="" fill="#000000" transform="translate(0,0)"/>
<path d="" fill="#000000" transform="translate(0,0)"/>
<path d="" fill="#000000" transform="translate(0,0)"/>
<path d="" fill="#000000" transform="translate(0,0)"/>
<path d="" fill="#000000" transform="translate(0,0)"/>
<path d="" fill="#000000" transform="translate(0,0)"/>
<path d="" fill="#000000" transform="translate(0,0)"/>
<path d="" fill="#000000" transform="translate(0,0)"/>
<path d="" fill="#000000" transform="translate(0,0)"/>
<path d="" fill="#000000" transform="translate(0,0)"/>
<path d="" fill="#000000" transform="translate(0,0)"/>
<path d="" fill="#000000" transform="translate(0,0)"/>
<path d="" fill="#000000" transform="translate(0,0)"/>
<path d="" fill="#000000" transform="translate(0,0)"/>
<path d="" fill="#000000" transform="translate(0,0)"/>
<path d="" fill="#000000" transform="translate(0,0)"/>
<path d="" fill="#000000" transform="translate(0,0)"/>
<path d="" fill="#000000" transform="translate(0,0)"/>
<path d="" fill="#000000" transform="translate(0,0)"/>
<path d="" fill="#000000" transform="translate(0,0)"/>
<path d="" fill="#000000" transform="translate(0,0)"/>
<path d="" fill="#000000" transform="translate(0,0)"/>
<path d="" fill="#000000" transform="translate(0,0)"/>
<path d="" fill="#000000" transform="translate(0,0)"/>
<path d="" fill="#000000" transform="translate(0,0)"/>
<path d="" fill="#000000" transform="translate(0,0)"/>
<path d="" fill="#000000" transform="translate(0,0)"/>
<path d="" fill="#000000" transform="translate(0,0)"/>
<path d="" fill="#000000" transform="translate(0,0)"/>
<path d="" fill="#000000" transform="translate(0,0)"/>
<path d="" fill="#000000" transform="translate(0,0)"/>
<path d="" fill="#000000" transform="translate(0,0)"/>
<path d="" fill="#000000" transform="translate(0,0)"/>
<path d="" fill="#000000" transform="translate(0,0)"/>
<path d="" fill="#000000" transform="translate(0,0)"/>
<path d="" fill="#000000" transform="translate(0,0)"/>
<path d="" fill="#000000" transform="translate(0,0)"/>
<path d="" fill="#000000" transform="translate(0,0)"/>
<path d="" fill="#000000" transform="translate(0,0)"/>
<path d="" fill="#000000" transform="translate(0,0)"/>
<path d="" fill="#000000" transform="translate(0,0)"/>
<path d="" fill="#000000" transform="translate(0,0)"/>
<path d="" fill="#000000" transform="translate(0,0)"/>
<path d="" fill="#000000" transform="translate(0,0)"/>
<path d="" fill="#000000" transform="translate(0,0)"/>
<path d="" fill="#000000" transform="translate(0,0)"/>
<path d="" fill="#000000" transform="translate(0,0)"/>
<path d="" fill="#000000" transform="translate(0,0)"/>
<path d="" fill="#000000" transform="translate(0,0)"/>
<path d="" fill="#000000" transform="translate(0,0)"/>
<path d="" fill="#000000" transform="translate(0,0)"/>
<path d="" fill="#000000" transform="translate(0,0)"/>
<path d="" fill="#000000" transform="translate(0,0)"/>
<path d="" fill="#000000" transform="translate(0,0)"/>
<path d="" fill="#000000" transform="translate(0,0)"/>
<path d="" fill="#000000" transform="translate(0,0)"/>
<path d="" fill="#000000" transform="translate(0,0)"/>
<path d="" fill="#000000" transform="translate(0,0)"/>
<path d="" fill="#000000" transform="translate(0,0)"/>
<path d="" fill="#000000" transform="translate(0,0)"/>
<path d="" fill="#000000" transform="translate(0,0)"/>
</svg>
