<?xml version="1.0" encoding="UTF-8"?>
<svg version="1.1" xmlns="http://www.w3.org/2000/svg" width="1376" height="1376">
<path d="M0 0 C2.47980515 -0.00346835 4.95960874 -0.00824072 7.4394092 -0.01418173 C12.77160377 -0.02399521 18.10367812 -0.02477586 23.43586731 -0.01704025 C31.36570728 -0.00556808 39.29547175 -0.01155772 47.22531141 -0.02066517 C61.39776077 -0.03636953 75.57016927 -0.03513061 89.74262241 -0.02642844 C102.1453081 -0.01885126 114.54797889 -0.0169258 126.95066643 -0.02049637 C128.18961391 -0.0208401 128.18961391 -0.0208401 129.45359064 -0.02119078 C132.80729872 -0.02212495 136.1610068 -0.02308016 139.51471487 -0.02407007 C170.90856691 -0.03322578 202.30239308 -0.02496043 233.69624113 -0.00877938 C261.52744263 0.00545639 289.35860293 0.00417997 317.18980408 -0.01016235 C348.53149132 -0.02626015 379.87315575 -0.03257751 411.21484655 -0.02332556 C414.56177389 -0.02236355 417.90870124 -0.02142502 421.25562859 -0.02049637 C422.49158037 -0.02014052 422.49158037 -0.02014052 423.75250088 -0.01977748 C436.14160746 -0.01637916 448.53069744 -0.02032942 460.91980171 -0.02793503 C475.01986759 -0.03654837 489.11988659 -0.03429297 503.21994669 -0.0180928 C511.09067536 -0.00934567 518.96130229 -0.00861848 526.83202812 -0.02003132 C532.73782906 -0.02764342 538.64354235 -0.01926778 544.54933327 -0.0051076 C546.9163888 -0.0017954 549.2834582 -0.00337192 551.6505046 -0.01073496 C572.88005558 -0.07163338 593.95348252 1.72704922 614.84873962 5.56845093 C616.53906311 5.87492554 616.53906311 5.87492554 618.26353455 6.18759155 C632.05515999 8.80247692 645.560289 12.47979333 659.03623962 16.38095093 C659.80677673 16.60218628 660.57731384 16.82342163 661.37120056 17.05136108 C696.87361673 27.45169106 731.87359145 45.32316303 761.84483337 66.90048218 C763.85411511 68.25791137 765.84223233 69.35641449 768.03623962 70.38095093 C768.03623962 71.04095093 768.03623962 71.70095093 768.03623962 72.38095093 C768.54670837 72.60782593 769.05717712 72.83470093 769.58311462 73.06845093 C773.01392641 74.90404449 776.11893983 77.1277905 779.28623962 79.38095093 C779.93592712 79.8321228 780.58561462 80.28329468 781.25498962 80.74813843 C782.88699671 81.90700061 784.46672212 83.13876595 786.03623962 84.38095093 C786.03623962 85.04095093 786.03623962 85.70095093 786.03623962 86.38095093 C787.68623962 87.04095093 789.33623962 87.70095093 791.03623962 88.38095093 C791.03623962 89.04095093 791.03623962 89.70095093 791.03623962 90.38095093 C791.69623962 90.38095093 792.35623962 90.38095093 793.03623962 90.38095093 C793.03623962 91.04095093 793.03623962 91.70095093 793.03623962 92.38095093 C793.87155212 92.75220093 793.87155212 92.75220093 794.72373962 93.13095093 C798.59324965 95.22257797 802.15433228 98.04400558 805.03623962 101.38095093 C805.03623962 102.04095093 805.03623962 102.70095093 805.03623962 103.38095093 C805.6300946 103.64955933 806.22394958 103.91816772 806.83580017 104.19491577 C809.04611408 105.38627325 810.48271146 106.5830699 812.24327087 108.35751343 C812.82608826 108.94145874 813.40890564 109.52540405 814.00938416 110.12704468 C814.61637146 110.74708374 815.22335876 111.3671228 815.84873962 112.00595093 C816.79402527 112.96307983 816.79402527 112.96307983 817.75840759 113.93954468 C822.0249428 118.28461864 826.11713636 122.7197196 830.03623962 127.38095093 C830.98027688 128.47450103 831.92572862 129.5668308 832.87217712 130.65829468 C849.03623962 149.32892163 849.03623962 149.32892163 849.03623962 152.38095093 C849.69623962 152.38095093 850.35623962 152.38095093 851.03623962 152.38095093 C852.41123962 154.25985718 852.41123962 154.25985718 854.03623962 156.94345093 C856.98566951 161.71930602 860.03016769 166.40971419 863.16123962 171.06845093 C873.03623962 185.83459813 873.03623962 185.83459813 873.03623962 188.38095093 C873.69623962 188.71095093 874.35623962 189.04095093 875.03623962 189.38095093 C876.05430603 190.96884155 876.05430603 190.96884155 877.13780212 193.03720093 C877.54168152 193.80419312 877.94556091 194.5711853 878.36167908 195.36141968 C879.00496155 196.60858765 879.00496155 196.60858765 879.66123962 197.88095093 C880.10491882 198.73302124 880.54859802 199.58509155 881.00572205 200.46298218 C884.93294685 208.06270048 888.62468569 215.76142416 892.18858337 223.53720093 C892.96163779 225.21868335 893.74822789 226.89392599 894.53623962 228.56845093 C901.03623962 242.49702236 901.03623962 242.49702236 901.03623962 248.38095093 C901.69623962 248.71095093 902.35623962 249.04095093 903.03623962 249.38095093 C907.15977787 258.96390075 909.38499159 269.61711956 912.03623962 279.69345093 C912.25690094 280.52845123 912.47756226 281.36345154 912.70491028 282.22375488 C916.20004464 295.5078091 919.13253776 308.76637953 921.03623962 322.38095093 C921.17615515 323.29685721 921.31607067 324.2127635 921.46022606 325.15642452 C925.61858163 354.65263906 925.4756357 384.22339936 925.43124346 413.94864124 C925.42144813 420.93275099 925.42956228 427.9168163 925.43785573 434.90092396 C925.4535251 448.57656841 925.45233577 462.25217042 925.44361899 475.92781875 C925.43603156 487.89221736 925.43412107 499.85660053 925.43768692 511.82100105 C925.43791608 512.61882667 925.43814523 513.41665229 925.43838133 514.23865444 C925.43931554 517.47831567 925.44027076 520.7179769 925.44126062 523.95763812 C925.45040746 554.25607819 925.44216421 584.55449144 925.42596993 614.85292736 C925.41172683 641.70497496 925.41301857 668.55697987 925.42735291 695.4090271 C925.44345217 725.6674377 925.44976798 755.92582468 925.44051611 786.18423897 C925.43955413 789.41536303 925.4386156 792.64648709 925.43768692 795.87761116 C925.43733107 797.07074993 925.43733107 797.07074993 925.43696804 798.28799251 C925.43357114 810.24260922 925.43751709 822.19720872 925.44512558 834.15182304 C925.45374018 847.754014 925.45148046 861.35615637 925.43528335 874.95834135 C925.42730343 881.8863356 925.42383851 888.81425133 925.4342308 895.74224472 C925.44326841 902.10226445 925.438098 908.46211918 925.42229815 914.82212425 C925.41898839 917.10420956 925.42055672 919.38630926 925.42792551 921.66838508 C925.48697174 941.49914066 923.60528038 960.9026676 920.46627589 980.47876975 C920.0668534 983.17434807 919.772113 985.85427129 919.53623962 988.56845093 C918.98309664 994.53657262 918.04830902 1000.44511325 916.09092712 1006.12313843 C914.55747051 1010.85981552 913.62259594 1015.69918719 912.62413025 1020.57235718 C911.52471513 1025.73216202 909.97324965 1030.48169957 908.03623962 1035.38095093 C906.95323605 1038.31115969 905.90025023 1041.25181755 904.84873962 1044.19345093 C904.57610291 1044.94304077 904.30346619 1045.69263062 904.02256775 1046.4649353 C902.92079062 1049.55488169 902.03623962 1052.07468394 902.03623962 1055.38095093 C901.37623962 1055.38095093 900.71623962 1055.38095093 900.03623962 1055.38095093 C899.70623962 1058.02095093 899.37623962 1060.66095093 899.03623962 1063.38095093 C898.37623962 1063.38095093 897.71623962 1063.38095093 897.03623962 1063.38095093 C896.85448181 1064.02161499 896.672724 1064.66227905 896.48545837 1065.32235718 C894.97195165 1070.53037262 893.25656004 1075.43569181 891.03623962 1080.38095093 C890.70623962 1081.37095093 890.37623962 1082.36095093 890.03623962 1083.38095093 C889.37623962 1083.38095093 888.71623962 1083.38095093 888.03623962 1083.38095093 C887.66498962 1084.58751343 887.66498962 1084.58751343 887.28623962 1085.81845093 C883.05751622 1097.87031263 883.05751622 1097.87031263 880.03623962 1099.38095093 C879.74362244 1100.26138062 879.45100525 1101.1418103 879.14952087 1102.04891968 C877.93546518 1105.68256707 876.28309827 1108.46856616 874.22373962 1111.69345093 C871.86106366 1115.42971404 869.55646678 1119.16680873 867.47373962 1123.06845093 C865.20430955 1127.23929538 862.54999188 1131.06965159 859.78233337 1134.92391968 C858.53002513 1136.68611628 857.31679525 1138.47633447 856.12998962 1140.28329468 C853.91894548 1143.55448498 851.55162629 1146.66573533 849.09873962 1149.75595093 C848.62782898 1150.3510144 848.15691833 1150.94607788 847.67173767 1151.55917358 C846.13000246 1153.50252037 844.5833373 1155.44187134 843.03623962 1157.38095093 C842.49161072 1158.06673218 841.94698181 1158.75251343 841.385849 1159.45907593 C830.11086133 1173.63484623 830.11086133 1173.63484623 823.78233337 1179.67391968 C821.98153466 1181.43443206 820.3563136 1183.27661701 818.72373962 1185.19345093 C811.9510426 1193.04854246 804.41181666 1201.23046453 796.03623962 1207.38095093 C795.37623962 1207.38095093 794.71623962 1207.38095093 794.03623962 1207.38095093 C793.70623962 1208.37095093 793.37623962 1209.36095093 793.03623962 1210.38095093 C790.94488236 1212.18424246 788.86710897 1213.85630295 786.66123962 1215.50595093 C785.77565369 1216.18850952 785.77565369 1216.18850952 784.87217712 1216.88485718 C782.2810775 1218.85152513 780.14292561 1220.34538893 777.03623962 1221.38095093 C777.03623962 1222.04095093 777.03623962 1222.70095093 777.03623962 1223.38095093 C771.62447492 1227.38095093 771.62447492 1227.38095093 769.03623962 1227.38095093 C769.03623962 1228.04095093 769.03623962 1228.70095093 769.03623962 1229.38095093 C767.13780212 1230.88876343 767.13780212 1230.88876343 764.66123962 1232.50595093 C763.84913025 1233.04477905 763.03702087 1233.58360718 762.20030212 1234.13876343 C760.03623962 1235.38095093 760.03623962 1235.38095093 758.03623962 1235.38095093 C758.03623962 1236.04095093 758.03623962 1236.70095093 758.03623962 1237.38095093 C757.17256775 1237.79345093 756.30889587 1238.20595093 755.41905212 1238.63095093 C752.07580181 1240.36048458 749.03948247 1242.29033163 745.91123962 1244.38095093 C733.03660434 1252.83482056 719.27488692 1260.01782415 705.34873962 1266.56845093 C704.23112244 1267.09825562 703.11350525 1267.6280603 701.96202087 1268.17391968 C699.03623962 1269.38095093 699.03623962 1269.38095093 696.03623962 1269.38095093 C695.70623962 1270.04095093 695.37623962 1270.70095093 695.03623962 1271.38095093 C692.78967526 1272.48023136 690.47431234 1273.31139672 688.13511658 1274.19589233 C686.12251683 1274.96554168 684.11450944 1275.74734964 682.11216736 1276.54330444 C674.29646612 1279.6305529 666.42164651 1282.18367072 658.34873962 1284.50595093 C656.05313836 1285.17512451 653.75756498 1285.84439379 651.46202087 1286.51376343 C649.82885925 1286.9862854 649.82885925 1286.9862854 648.16270447 1287.46835327 C645.27945396 1288.30995802 642.40530687 1289.17691287 639.53233337 1290.05282593 C636.30258953 1291.02558115 633.10534869 1291.88502916 629.78623962 1292.50595093 C628.63381775 1292.72638062 628.63381775 1292.72638062 627.45811462 1292.95126343 C624.6539855 1293.44877021 621.8461343 1293.91690226 619.03623962 1294.38095093 C618.21188416 1294.52016968 617.38752869 1294.65938843 616.53819275 1294.80282593 C613.49698356 1295.31489811 610.45419812 1295.81688485 607.41123962 1296.31845093 C606.41350525 1296.48796265 605.41577087 1296.65747437 604.38780212 1296.8321228 C585.98491963 1299.84204699 567.79377245 1300.67797459 549.16567993 1300.66615295 C546.70739897 1300.67188369 544.2491199 1300.67847497 541.79084331 1300.68584377 C536.48145855 1300.69980012 531.17211732 1300.7077535 525.86271858 1300.71019554 C517.96769295 1300.71385381 510.0727166 1300.7289219 502.17771037 1300.7461496 C488.88995173 1300.77480774 475.60219471 1300.79424776 462.31441307 1300.80817223 C449.16537827 1300.82195241 436.01635739 1300.83940047 422.86733437 1300.86182594 C422.04762139 1300.86321994 421.22790842 1300.86461393 420.38335566 1300.86605016 C417.05560086 1300.87171879 413.72784611 1300.8774114 410.40009142 1300.88313682 C379.22966062 1300.93673936 348.05922359 1300.97967339 316.88876973 1301.01721917 C289.20003807 1301.05062143 261.51132743 1301.09140072 233.82261658 1301.13900757 C232.04274174 1301.14206516 230.26286691 1301.14512269 228.48299208 1301.14818015 C227.60304846 1301.1496921 226.72310485 1301.15120404 225.81649628 1301.1527618 C221.38690181 1301.16037098 216.95730733 1301.16796928 212.52771282 1301.17555523 C211.65380016 1301.17705294 210.77988749 1301.17855066 209.87949262 1301.18009376 C186.72566587 1301.21969516 163.57183184 1301.25435666 140.4179948 1301.28734714 C139.5946149 1301.28852083 138.771235 1301.28969452 137.92290419 1301.29090378 C131.24622955 1301.30041682 131.24622955 1301.30041682 127.99036943 1301.305031 C116.47293389 1301.32137685 104.95550211 1301.33941157 93.4380709 1301.3585463 C78.60598407 1301.38316285 63.77389872 1301.4043639 48.94179913 1301.41964849 C41.09803747 1301.42782308 33.2542912 1301.43874282 25.41053936 1301.4536368 C19.56002559 1301.46442878 13.70951472 1301.46994152 7.85899172 1301.47335658 C5.48801135 1301.47555664 3.11703185 1301.47947009 0.74605747 1301.48523685 C-2.46837457 1301.49279667 -5.6827515 1301.49417519 -8.89719105 1301.49396801 C-9.82446185 1301.49762767 -10.75173265 1301.50128734 -11.70710257 1301.5050579 C-16.56193566 1301.497576 -21.15794914 1301.1660034 -25.96376038 1300.38095093 C-27.69247423 1300.34138094 -29.42265287 1300.33697999 -31.15126038 1300.38095093 C-34.34871677 1300.46151676 -36.87897928 1300.15293251 -39.96376038 1299.38095093 C-41.56506177 1299.13135048 -43.16972212 1298.9028552 -44.77626038 1298.68954468 C-58.25322607 1296.81084965 -71.49960939 1294.33347195 -84.77626038 1291.38095093 C-85.53608215 1291.213685 -86.29590393 1291.04641907 -87.07875061 1290.87408447 C-96.52177015 1288.78631341 -105.76024354 1286.37980298 -114.96376038 1283.38095093 C-115.82163147 1283.11016724 -116.67950256 1282.83938354 -117.56336975 1282.56039429 C-122.17127137 1281.10446897 -126.52081444 1279.29352549 -130.91297913 1277.28329468 C-133.09191651 1276.28677479 -133.09191651 1276.28677479 -135.96376038 1275.38095093 C-140.09979329 1274.00227329 -144.00085557 1272.19078147 -147.96376038 1270.38095093 C-148.83387756 1269.9864978 -149.70399475 1269.59204468 -150.60047913 1269.18563843 C-152.45347828 1268.34504823 -154.30500395 1267.50120352 -156.15516663 1266.65438843 C-157.96875186 1265.83209526 -159.7887508 1265.02373858 -161.61610413 1264.23251343 C-167.63778371 1261.59747596 -173.30118313 1258.56312445 -178.97157288 1255.25717163 C-182.02802579 1253.47663566 -185.08245467 1251.77650783 -188.27626038 1250.25595093 C-191.79375077 1248.54135833 -194.95219408 1246.47073017 -198.17469788 1244.25595093 C-200.34744326 1242.79528176 -202.53174356 1241.38989617 -204.75282288 1240.00595093 C-214.42840846 1233.94461381 -223.27410013 1227.30367203 -232.02626038 1219.98300171 C-235.18795053 1217.36871104 -238.41744051 1214.84257564 -241.65126038 1212.31845093 C-243.7562482 1210.67365679 -245.86043236 1209.02787051 -247.96376038 1207.38095093 C-249.34047913 1206.30973999 -249.34047913 1206.30973999 -250.74501038 1205.21688843 C-252.96376038 1203.38095093 -252.96376038 1203.38095093 -254.77626038 1201.06845093 C-257.20251552 1198.08762318 -259.88200509 1195.78138403 -262.79188538 1193.28720093 C-266.34197934 1190.17129112 -269.87222237 1186.95759729 -272.96376038 1183.38095093 C-272.96376038 1182.72095093 -272.96376038 1182.06095093 -272.96376038 1181.38095093 C-273.95376038 1181.05095093 -274.94376038 1180.72095093 -275.96376038 1180.38095093 C-277.48387664 1178.68434176 -278.93391183 1176.92417057 -280.33876038 1175.13095093 C-282.61942422 1172.2311378 -284.85957208 1169.48497694 -287.47157288 1166.87704468 C-292.17108298 1162.17016857 -295.99233246 1156.70231888 -299.96376038 1151.38095093 C-300.46472229 1150.71369995 -300.9656842 1150.04644897 -301.48182678 1149.35897827 C-333.96376038 1105.92465995 -333.96376038 1105.92465995 -333.96376038 1096.38095093 C-334.62376038 1096.05095093 -335.28376038 1095.72095093 -335.96376038 1095.38095093 C-336.95350647 1093.5743103 -336.95350647 1093.5743103 -337.98719788 1091.22470093 C-338.36876038 1090.3661853 -338.75032288 1089.50766968 -339.14344788 1088.62313843 C-339.537901 1087.71821655 -339.93235413 1086.81329468 -340.33876038 1085.88095093 C-340.72547913 1085.00696655 -341.11219788 1084.13298218 -341.51063538 1083.23251343 C-342.28785657 1081.4746373 -343.06226408 1079.7155145 -343.83387756 1077.95516968 C-344.9025848 1075.5203276 -345.98203346 1073.0905833 -347.06532288 1070.66220093 C-347.39081116 1069.927677 -347.71629944 1069.19315308 -348.051651 1068.43637085 C-348.8530605 1066.63041086 -349.66173789 1064.82767972 -350.47157288 1063.02548218 C-352.48398391 1058.11035262 -354.16748087 1053.1082969 -355.83876038 1048.06845093 C-356.18882141 1047.01625366 -356.53888245 1045.9640564 -356.89955139 1044.87997437 C-360.12036945 1035.09367108 -363.01271175 1025.22786912 -365.49891663 1015.22860718 C-366.33435899 1011.90789929 -367.30561042 1008.62276651 -368.24501038 1005.33016968 C-369.05112035 1002.02249015 -369.50379552 998.75517072 -369.96376038 995.38095093 C-370.2476573 993.66914872 -370.5372411 991.95828479 -370.83094788 990.24813843 C-371.95626259 983.63773335 -372.96980727 977.01224018 -373.96376038 970.38095093 C-374.11116083 969.4147002 -374.25856128 968.44844947 -374.4104284 967.45291841 C-378.0923084 942.11531329 -377.38984969 916.48616112 -377.34470819 890.95101028 C-377.33286211 883.89342047 -377.33891936 876.83587027 -377.34525191 869.77827737 C-377.35709965 855.95859131 -377.352153 842.13895127 -377.33997363 828.3192678 C-377.32939432 816.23154562 -377.32490363 804.14383906 -377.32626915 792.05611229 C-377.32635318 791.25109146 -377.32643721 790.44607064 -377.32652379 789.61665524 C-377.32687609 786.34808849 -377.32726011 783.07952175 -377.32768936 779.81095501 C-377.33164377 749.22623519 -377.3189848 718.64154294 -377.2981628 688.056831 C-377.27977753 660.92373448 -377.2739864 633.79066434 -377.2794342 606.65756226 C-377.27978064 604.91351258 -377.28012674 603.1694629 -377.28047249 601.42541323 C-377.28064349 600.56315694 -377.28081448 599.70090065 -377.28099066 598.81251538 C-377.28184429 594.47140925 -377.28266807 590.13030311 -377.28345966 585.78919697 C-377.28361674 584.93263042 -377.28377382 584.07606388 -377.28393566 583.19354077 C-377.28792965 560.46580914 -377.28244528 537.73808003 -377.27394837 515.01034993 C-377.2730414 512.56380896 -377.27213575 510.11726799 -377.27123314 507.67072702 C-377.27063204 506.04802162 -377.27002342 504.42531622 -377.26940723 502.80261083 C-377.26519577 491.51804231 -377.2646034 480.23347877 -377.26651273 468.94890972 C-377.26896049 454.4109068 -377.26484413 439.87293058 -377.24930272 425.33493493 C-377.24128365 417.6578467 -377.23862784 409.98080291 -377.24394508 402.30371207 C-377.24729367 396.55808572 -377.24009472 390.81250983 -377.22892001 385.06689515 C-377.22600751 382.75319231 -377.22640225 380.43948226 -377.23056308 378.12578133 C-377.24976309 366.37683759 -376.98018157 354.86577314 -375.44092339 343.20829266 C-374.96614118 339.40004746 -374.683159 335.64836375 -374.46376038 331.81845093 C-374.1656004 327.19697127 -373.55402314 322.91239293 -372.42469788 318.42782593 C-371.96203656 316.37329602 -371.75437282 314.4162086 -371.58876038 312.31845093 C-371.09500836 307.06418414 -369.70258808 302.04732963 -368.33534241 296.96469116 C-367.44687742 293.60704408 -366.96376038 290.8865173 -366.96376038 287.38095093 C-366.30376038 287.38095093 -365.64376038 287.38095093 -364.96376038 287.38095093 C-364.84001038 286.20532593 -364.71626038 285.02970093 -364.58876038 283.81845093 C-364.17264175 279.86532401 -363.10035139 276.17502938 -361.96376038 272.38095093 C-361.72012756 271.54829712 -361.47649475 270.71564331 -361.22547913 269.85775757 C-355.07209005 248.88113524 -355.07209005 248.88113524 -351.15516663 240.10360718 C-349.26295862 235.7794466 -347.6917735 231.3344202 -346.07704163 226.90048218 C-344.96376038 224.38095093 -344.96376038 224.38095093 -342.96376038 223.38095093 C-342.30412127 221.4363212 -342.30412127 221.4363212 -341.77626038 219.06845093 C-340.20828121 213.40902612 -337.47807991 208.81182455 -334.38954163 203.84970093 C-332.79705444 201.56744694 -332.79705444 201.56744694 -332.96376038 199.38095093 C-332.30376038 199.38095093 -331.64376038 199.38095093 -330.96376038 199.38095093 C-330.74719788 198.58559937 -330.53063538 197.7902478 -330.30751038 196.97079468 C-328.54885578 192.27252848 -326.07483947 188.21353442 -323.46376038 183.94345093 C-322.66180237 182.6220813 -322.66180237 182.6220813 -321.84364319 181.27401733 C-315.32974713 170.61017028 -308.70787783 160.11194664 -300.65516663 150.52938843 C-298.86125875 148.35669701 -298.86125875 148.35669701 -297.36610413 145.60751343 C-296.90333069 144.8727478 -296.44055725 144.13798218 -295.96376038 143.38095093 C-295.30376038 143.38095093 -294.64376038 143.38095093 -293.96376038 143.38095093 C-293.74333069 142.8524353 -293.522901 142.32391968 -293.29579163 141.77938843 C-291.48190158 138.51332248 -289.08780003 135.81460487 -286.65126038 133.00595093 C-285.69662138 131.89415368 -284.7421932 130.78217539 -283.78797913 129.67001343 C-283.31924377 129.12892944 -282.85050842 128.58784546 -282.36756897 128.03036499 C-281.41541809 126.91162911 -280.4812264 125.77740477 -279.56385803 124.62997437 C-278.40414254 123.18043639 -277.18827452 121.77618047 -275.96376038 120.38095093 C-275.30376038 120.38095093 -274.64376038 120.38095093 -273.96376038 120.38095093 C-273.71626038 119.82407593 -273.46876038 119.26720093 -273.21376038 118.69345093 C-270.37854584 113.44830404 -266.35530409 109.83788436 -261.86610413 106.02938843 C-259.95543589 104.42824232 -259.95543589 104.42824232 -258.34266663 102.67001343 C-256.96376038 101.38095093 -256.96376038 101.38095093 -254.96376038 101.38095093 C-254.96376038 100.72095093 -254.96376038 100.06095093 -254.96376038 99.38095093 C-253.31922913 97.68954468 -253.31922913 97.68954468 -251.15126038 95.81845093 C-250.44356506 95.19841187 -249.73586975 94.5783728 -249.00672913 93.93954468 C-246.96376038 92.38095093 -246.96376038 92.38095093 -243.96376038 91.38095093 C-243.96376038 90.72095093 -243.96376038 90.06095093 -243.96376038 89.38095093 C-241.98429446 88.01731885 -239.98183588 86.68676449 -237.96376038 85.38095093 C-236.95731334 84.38743979 -235.95781746 83.38685873 -234.96376038 82.38095093 C-199.3748419 53.09127553 -157.54480544 31.79965049 -113.96376038 17.38095093 C-112.97504944 17.05111206 -111.9863385 16.72127319 -110.96766663 16.38143921 C-98.2466774 12.2087279 -85.32717627 9.24798721 -72.21376038 6.63095093 C-71.16152283 6.4162767 -71.16152283 6.4162767 -70.08802795 6.19726562 C-46.92919219 1.52200611 -23.58453616 -0.07343923 0 0 Z M-12.30513668 100.82638741 C-13.34273895 100.86513237 -14.38034121 100.90387733 -15.44938597 100.94379639 C-16.4043725 100.98511653 -17.35935903 101.02643668 -18.34328455 101.06900895 C-19.18894986 101.10485844 -20.03461517 101.14070794 -20.9059067 101.17764378 C-23.02637261 101.26346144 -23.02637261 101.26346144 -24.96376038 102.38095093 C-26.98335401 102.49028231 -29.00471652 102.56713669 -31.02626038 102.63095093 C-46.07295251 103.40546831 -61.04867192 107.23887811 -75.58876038 111.00595093 C-76.71459534 111.29647339 -76.71459534 111.29647339 -77.86317444 111.59286499 C-82.42798299 112.82417574 -86.62948055 114.46788949 -90.96376038 116.38095093 C-93.20764348 117.18979251 -95.45779793 117.98143847 -97.71376038 118.75595093 C-103.98147783 120.97934123 -109.98201989 123.48095257 -115.96376038 126.38095093 C-116.84088684 126.80416626 -116.84088684 126.80416626 -117.73573303 127.2359314 C-128.03880999 132.2275991 -138.03824586 137.67905961 -147.96376038 143.38095093 C-147.96376038 144.04095093 -147.96376038 144.70095093 -147.96376038 145.38095093 C-148.48840881 145.45313843 -149.01305725 145.52532593 -149.55360413 145.59970093 C-152.98482277 146.71192739 -155.64799856 148.77082744 -158.52626038 150.88095093 C-159.13961243 151.32438843 -159.75296448 151.76782593 -160.38490295 152.22470093 C-165.32589004 155.83165352 -170.07126118 159.63462477 -174.75672913 163.56845093 C-176.96376038 165.38095093 -176.96376038 165.38095093 -179.96376038 167.38095093 C-179.96376038 168.04095093 -179.96376038 168.70095093 -179.96376038 169.38095093 C-180.5438385 169.64520874 -181.12391663 169.90946655 -181.72157288 170.18173218 C-187.6841464 173.37077411 -192.34236957 178.60809915 -196.60438538 183.76376343 C-199.01093264 186.62672483 -201.70203883 189.21244364 -204.44422913 191.75204468 C-216.65365192 203.38144738 -226.11791657 218.14979017 -234.96376038 232.38095093 C-235.47938538 233.20466187 -235.99501038 234.0283728 -236.52626038 234.87704468 C-240.40548889 241.19089316 -243.71779196 247.72349729 -246.96376038 254.38095093 C-247.69096758 255.84026235 -248.4198698 257.29873167 -249.15126038 258.75595093 C-249.61919006 259.69761108 -249.61919006 259.69761108 -250.09657288 260.65829468 C-250.88427374 262.2230518 -251.70357437 263.77180124 -252.52626038 265.31845093 C-254.01894025 268.49850805 -255.09146006 271.66162725 -256.15907288 275.00204468 C-256.93277543 277.28934981 -257.82873017 279.47341115 -258.77626038 281.69345093 C-266.49511598 300.84328353 -270.92799727 321.54436266 -273.71376038 341.94345093 C-273.82937317 342.76692017 -273.94498596 343.5903894 -274.06410217 344.43881226 C-276.31067078 362.40283198 -276.11107899 380.68705164 -276.09074402 398.75863647 C-276.09189933 401.03058491 -276.0934896 403.30253315 -276.09547126 405.57448101 C-276.09960821 411.75317252 -276.09759964 417.93184838 -276.09448504 424.11053991 C-276.09244257 430.11009517 -276.09512772 436.1096473 -276.09763241 442.10920194 C-276.10287354 455.12187264 -276.10245163 468.1345384 -276.0995535 481.14720955 C-276.09702987 492.53537574 -276.09638498 503.92354013 -276.09757614 515.31170654 C-276.09765253 516.06949226 -276.09772891 516.82727797 -276.09780761 517.60802688 C-276.09811899 520.68475169 -276.0984374 523.76147649 -276.09876738 526.8382013 C-276.10182081 555.65256957 -276.09906176 584.46693471 -276.09367048 613.2813025 C-276.08892549 638.83567917 -276.08935015 664.39005086 -276.09413147 689.94442749 C-276.09949551 718.7088278 -276.10160419 747.47322534 -276.09851921 776.23762608 C-276.09819853 779.30848249 -276.09788568 782.3793389 -276.09757614 785.45019531 C-276.09749706 786.20622176 -276.09741799 786.96224821 -276.09733651 787.74118455 C-276.09620292 799.11731309 -276.09752205 810.49343962 -276.10005569 821.86956787 C-276.10292467 834.81524608 -276.1021795 847.76091862 -276.09677495 860.70659614 C-276.09411102 867.30374501 -276.09309857 873.90088602 -276.0964241 880.49803543 C-276.09942876 886.55043242 -276.09772564 892.6028101 -276.09244655 898.65520537 C-276.09134001 900.83123685 -276.09187377 903.00726999 -276.09432234 905.18330038 C-276.11420645 924.34098024 -275.90001445 943.46212094 -273.08876038 962.44345093 C-272.92762756 963.6184314 -272.76649475 964.79341187 -272.60047913 966.0039978 C-270.95575201 977.54896217 -268.2752915 988.75317335 -265.02626038 999.94345093 C-264.76538635 1000.84603638 -264.50451233 1001.74862183 -264.23573303 1002.67855835 C-260.50175597 1015.79412298 -260.50175597 1015.79412298 -255.00672913 1028.22860718 C-253.73994965 1030.8428225 -252.81256463 1033.51904845 -251.83876038 1036.25595093 C-248.80317947 1044.34454848 -244.53266312 1051.68753068 -240.23329163 1059.1602478 C-238.10676983 1062.88002516 -236.03614418 1066.6308181 -233.96376038 1070.38095093 C-233.30376038 1070.38095093 -232.64376038 1070.38095093 -231.96376038 1070.38095093 C-231.85032288 1070.95845093 -231.73688538 1071.53595093 -231.62001038 1072.13095093 C-229.13965094 1080.63504043 -221.23774468 1088.45884653 -215.96376038 1095.38095093 C-215.28313538 1096.29360718 -214.60251038 1097.20626343 -213.90126038 1098.14657593 C-212.97313538 1099.37634155 -212.97313538 1099.37634155 -212.02626038 1100.63095093 C-211.48098694 1101.35798218 -210.9357135 1102.08501343 -210.37391663 1102.83407593 C-209.90856506 1103.34454468 -209.4432135 1103.85501343 -208.96376038 1104.38095093 C-208.30376038 1104.38095093 -207.64376038 1104.38095093 -206.96376038 1104.38095093 C-206.96376038 1105.04095093 -206.96376038 1105.70095093 -206.96376038 1106.38095093 C-206.30376038 1106.38095093 -205.64376038 1106.38095093 -204.96376038 1106.38095093 C-204.73688538 1106.91720093 -204.51001038 1107.45345093 -204.27626038 1108.00595093 C-202.50805948 1111.20555254 -200.42705835 1113.67132316 -197.96376038 1116.38095093 C-197.30376038 1116.38095093 -196.64376038 1116.38095093 -195.96376038 1116.38095093 C-195.69603821 1116.9769812 -195.42831604 1117.57301147 -195.15248108 1118.18710327 C-193.94814643 1120.4097673 -192.77836316 1121.7624088 -190.94422913 1123.48251343 C-190.0391864 1124.33377808 -190.0391864 1124.33377808 -189.11585999 1125.20223999 C-188.14338318 1126.0950769 -188.14338318 1126.0950769 -187.15126038 1127.00595093 C-186.47909485 1127.62695679 -185.80692932 1128.24796265 -185.11439514 1128.88778687 C-179.01117012 1134.45826483 -172.65182269 1139.5300536 -165.96376038 1144.38095093 C-165.36080139 1144.81955444 -164.75784241 1145.25815796 -164.13661194 1145.71005249 C-160.10310486 1148.63533834 -156.05015995 1151.52997448 -151.96376038 1154.38095093 C-150.36854553 1155.51403687 -150.36854553 1155.51403687 -148.74110413 1156.67001343 C-146.08172898 1158.64320005 -146.08172898 1158.64320005 -142.96376038 1158.38095093 C-142.96376038 1159.04095093 -142.96376038 1159.70095093 -142.96376038 1160.38095093 C-82.39823738 1195.41825228 -20.70716146 1200.7117809 47.74616718 1200.64240026 C53.74699374 1200.63829817 59.74780804 1200.64369569 65.74863213 1200.648695 C78.75539849 1200.65915018 91.76214503 1200.65834444 104.76891321 1200.65253717 C116.15223392 1200.64748049 127.53554741 1200.64620448 138.91886902 1200.64858246 C140.05714026 1200.64881161 140.05714026 1200.64881161 141.21840687 1200.6490454 C144.29980513 1200.64966821 147.38120339 1200.65030502 150.46260164 1200.65096493 C179.29313184 1200.65706537 208.12364951 1200.65156398 236.95417777 1200.64077113 C262.49651239 1200.63128188 288.03882705 1200.63213122 313.5811615 1200.64169312 C342.36327863 1200.65243216 371.14538473 1200.65663251 399.92750359 1200.65046859 C403.00287246 1200.64982728 406.07824135 1200.64920159 409.15361023 1200.64858246 C410.28923228 1200.64834523 410.28923228 1200.64834523 411.44779618 1200.6481032 C422.8162493 1200.64584051 434.18469436 1200.64846577 445.55314636 1200.65354156 C458.49621239 1200.65929204 471.43925573 1200.65776298 484.38231897 1200.64698008 C490.97242091 1200.64166904 497.56249149 1200.639599 504.15259552 1200.64627838 C562.57680513 1200.70040042 624.929408 1199.67483477 676.42686462 1167.95126343 C678.85410857 1166.49055674 681.28454371 1165.26675163 683.84873962 1164.06845093 C690.39974508 1160.8774773 696.29924674 1156.66318774 702.29893494 1152.55722046 C705.35604896 1150.48735321 708.47623895 1148.51288506 711.59483337 1146.53720093 C712.07049744 1146.15563843 712.5461615 1145.77407593 713.03623962 1145.38095093 C713.03623962 1144.72095093 713.03623962 1144.06095093 713.03623962 1143.38095093 C713.72202087 1143.16696655 714.40780212 1142.95298218 715.11436462 1142.73251343 C718.9187155 1140.97274685 721.66982729 1138.52335232 724.78623962 1135.75595093 C725.39806091 1135.22050659 726.0098822 1134.68506226 726.64024353 1134.13339233 C727.86812926 1133.05725687 729.09359971 1131.97835864 730.31651306 1130.89657593 C731.84988394 1129.54518944 733.39905515 1128.21177943 734.95030212 1126.88095093 C735.7624115 1126.17970093 736.57452087 1125.47845093 737.41123962 1124.75595093 C738.120224 1124.1449353 738.82920837 1123.53391968 739.55967712 1122.90438843 C741.26823072 1121.49519158 741.26823072 1121.49519158 741.03623962 1119.38095093 C741.58151306 1119.1721228 742.1267865 1118.96329468 742.68858337 1118.74813843 C745.90793828 1116.87330612 748.15088512 1114.26102603 750.59873962 1111.50595093 C751.32093689 1110.7112439 751.32093689 1110.7112439 752.057724 1109.90048218 C756.89107005 1105.26025734 756.89107005 1105.26025734 759.03623962 1099.38095093 C759.69623962 1099.38095093 760.35623962 1099.38095093 761.03623962 1099.38095093 C761.36623962 1098.06095093 761.69623962 1096.74095093 762.03623962 1095.38095093 C762.69623962 1095.38095093 763.35623962 1095.38095093 764.03623962 1095.38095093 C764.03623962 1094.72095093 764.03623962 1094.06095093 764.03623962 1093.38095093 C764.69623962 1093.38095093 765.35623962 1093.38095093 766.03623962 1093.38095093 C768.99859657 1089.74771404 768.99859657 1089.74771404 770.03623962 1085.38095093 C770.69623962 1085.38095093 771.35623962 1085.38095093 772.03623962 1085.38095093 C773.26331324 1083.89829992 773.26331324 1083.89829992 774.41905212 1081.95126343 C774.86377869 1081.23841187 775.30850525 1080.5255603 775.76670837 1079.79110718 C776.22690369 1079.03700562 776.687099 1078.28290405 777.16123962 1077.50595093 C777.62916931 1076.75958374 778.097099 1076.01321655 778.57920837 1075.24423218 C781.11886007 1071.57103491 781.11886007 1071.57103491 782.03623962 1067.38095093 C782.69623962 1067.05095093 783.35623962 1066.72095093 784.03623962 1066.38095093 C788.80449037 1059.53018103 792.46477448 1051.90155339 796.03623962 1044.38095093 C796.55323425 1043.29330444 796.55323425 1043.29330444 797.08067322 1042.1836853 C802.60378978 1030.47976685 807.28701595 1018.7649846 811.03623962 1006.38095093 C811.2900238 1005.56014038 811.54380798 1004.73932983 811.80528259 1003.89364624 C816.64477044 988.15708032 820.80246146 972.00060487 821.88780212 955.51376343 C822.03623962 953.38095093 822.03623962 953.38095093 822.59873962 949.88095093 C823.07374309 946.08092322 823.06871824 942.4382153 822.97373962 938.61532593 C823.0238377 936.02275072 823.23493292 933.61861825 823.5322094 931.0520668 C824.40799368 921.53299877 824.17384279 911.95855801 824.16322327 902.40872192 C824.16437621 900.15522939 824.1659649 897.90173705 824.16795051 895.6482451 C824.17212042 889.46943453 824.17006364 883.29063943 824.16696429 877.1118288 C824.16493339 871.1276198 824.16760015 865.14341336 824.17011166 859.15920494 C824.17537244 846.16462956 824.17492275 833.17005911 824.17203275 820.17548327 C824.16951452 808.79603749 824.16886172 797.41659352 824.17005539 786.03714752 C824.17013177 785.28152349 824.17020816 784.52589946 824.17028686 783.74737773 C824.17059822 780.67971357 824.17091662 777.61204942 824.17124662 774.54438526 C824.1743051 745.76955014 824.17153366 716.99471815 824.16614973 688.21988352 C824.16140998 662.69414389 824.16182396 637.16840926 824.16661072 611.64266968 C824.17197573 582.93766969 824.1740824 554.23267247 824.17099845 525.52767205 C824.17067777 522.46196254 824.17036492 519.39625303 824.17005539 516.33054352 C824.16997631 515.57573929 824.16989723 514.82093506 824.16981576 514.04325797 C824.16868199 502.68346791 824.17000176 491.32367986 824.17253494 479.96389008 C824.17540532 467.02785521 824.17465611 454.09182602 824.1692542 441.15579185 C824.1665912 434.56264607 824.16557614 427.96950816 824.16890335 421.37636185 C824.17191028 415.32594084 824.17020122 409.27553914 824.1649258 403.22511986 C824.16382013 401.05076063 824.16435098 398.87639973 824.16680159 396.7020416 C824.17816852 385.76673302 824.04820451 374.85610065 823.58469963 363.92953873 C823.54513641 362.99222931 823.5055732 362.05491989 823.46481109 361.08920716 C823.10120644 353.32210736 822.25846726 345.6972301 821.09873962 338.00595093 C820.92922791 336.80196655 820.75971619 335.59798218 820.58506775 334.35751343 C819.66289636 327.96192172 818.58027975 321.65651666 817.03623962 315.38095093 C816.87671814 314.73102173 816.71719666 314.08109253 816.55284119 313.41146851 C812.32681404 296.800945 807.59413938 279.82209049 800.03623962 264.38095093 C799.17385681 262.61557983 799.17385681 262.61557983 798.29405212 260.81454468 C796.24336209 256.65191951 794.14424698 252.51477269 792.03623962 248.38095093 C791.70043884 247.71660034 791.36463806 247.05224976 791.0186615 246.36776733 C787.16205807 238.76588121 783.14161586 231.70689054 777.89561462 224.94345093 C776.09318616 222.45943187 774.63266701 219.88630054 773.13877869 217.21005249 C771.21258872 214.0145221 768.87521508 211.15577064 766.53623962 208.25595093 C766.06315369 207.66169312 765.59006775 207.0674353 765.10264587 206.45516968 C764.18063359 205.29818473 763.25499272 204.14407976 762.32530212 202.99325562 C761.13073247 201.49913857 759.97240503 199.97623976 758.81748962 198.45126343 C758.22967712 197.7680603 757.64186462 197.08485718 757.03623962 196.38095093 C756.37623962 196.38095093 755.71623962 196.38095093 755.03623962 196.38095093 C754.80936462 195.84470093 754.58248962 195.30845093 754.34873962 194.75595093 C751.13358507 188.93805222 746.0388982 183.38228022 740.03623962 180.38095093 C739.75651306 179.78669312 739.4767865 179.1924353 739.18858337 178.58016968 C729.29524943 159.69899336 696.72728662 142.8917694 678.03623962 133.38095093 C677.42925232 133.07060913 676.82226501 132.76026733 676.19688416 132.44052124 C664.20306669 126.32212278 652.22396453 120.58624164 639.47373962 116.19345093 C638.51016541 115.85120483 637.54659119 115.50895874 636.55381775 115.15634155 C631.20325891 113.29825807 625.98655607 111.8926151 620.41661072 110.88290405 C618.04855322 110.38354752 615.86000278 109.69712225 613.57920837 108.89266968 C608.58930534 107.14965892 603.53905169 106.14965896 598.34873962 105.19345093 C597.43801697 105.01620483 596.52729431 104.83895874 595.588974 104.65634155 C590.98247775 103.78990544 586.73645236 103.29353638 582.03623962 103.38095093 C580.03277333 103.06912738 578.03252627 102.73584633 576.03623962 102.38095093 C571.71005902 101.95131644 567.37305806 101.68176842 563.03623962 101.38095093 C561.83930735 101.29412336 560.64237507 101.20729578 559.40917212 101.11783707 C547.42061385 100.32030308 535.47481255 100.24041279 523.46310425 100.25396729 C521.21752048 100.25281301 518.9719369 100.25122344 516.7263537 100.24924004 C510.59723451 100.24508856 504.46813101 100.24711844 498.33901179 100.25022626 C492.39429713 100.25226362 486.44958502 100.24958657 480.50487096 100.24707889 C467.60400165 100.24182896 454.70313732 100.24226336 441.80226754 100.24515781 C430.50773027 100.2476792 419.2131948 100.24832736 407.9186573 100.24713516 C407.16774988 100.24705878 406.41684245 100.24698239 405.64318025 100.24690369 C402.59447607 100.24659232 399.5457719 100.24627392 396.49706772 100.24594393 C367.92415544 100.24288818 339.35124632 100.24565284 310.77833453 100.25104083 C285.43957789 100.25578266 260.10082629 100.25536428 234.7620697 100.25057983 C206.25002181 100.24521413 177.7379767 100.24310833 149.22592837 100.2461921 C146.18079635 100.24651278 143.13566432 100.24682562 140.0905323 100.24713516 C138.96596977 100.24725378 138.96596977 100.24725378 137.81868881 100.24737479 C126.5411016 100.24850804 115.26351642 100.24718983 103.98592949 100.24465561 C91.14595489 100.24178456 78.30598601 100.24253597 65.46601211 100.24793635 C58.92333219 100.25059805 52.38066032 100.25161654 45.83798027 100.2482872 C39.83277325 100.24527779 33.82758566 100.24699328 27.82238037 100.25226475 C25.66567921 100.25336936 23.50897636 100.25284205 21.35227632 100.25038897 C10.12316763 100.23861025 -1.08369339 100.38813763 -12.30513668 100.82638741 Z " fill="#FFFFFF" transform="translate(411.96376037597656,35.619049072265625)"/>
<path d="M0 0 C1.0504248 0.17160645 2.10084961 0.34321289 3.18310547 0.52001953 C34.98459945 5.81474826 65.88622083 15.10083266 95 29 C95.66757324 29.31791504 96.33514648 29.63583008 97.02294922 29.96337891 C101.7278212 32.22240514 106.37644618 34.57924486 111 37 C112.04293213 37.54430664 112.04293213 37.54430664 113.10693359 38.09960938 C136.03806732 50.17573781 157.24355123 65.22916308 176.71264648 82.30712891 C179.65721302 84.9371641 179.65721302 84.9371641 183 87 C183 87.66 183 88.32 183 89 C183.58789307 89.26264648 184.17578613 89.52529297 184.78149414 89.79589844 C187.10788724 91.05855616 188.63593987 92.39219361 190.49609375 94.265625 C191.13740234 94.90886719 191.77871094 95.55210937 192.43945312 96.21484375 C193.09880859 96.88644531 193.75816406 97.55804688 194.4375 98.25 C195.09298828 98.90613281 195.74847656 99.56226563 196.42382812 100.23828125 C199.36379417 103.2047866 202.20908592 106.18244213 204.84765625 109.421875 C206.7381874 112.0357604 206.7381874 112.0357604 209 113 C209 113.66 209 114.32 209 115 C209.66 115 210.32 115 211 115 C211.97073933 116.40968234 212.93377934 117.82552639 213.84960938 119.27148438 C216.13452447 122.70467598 218.94066012 125.74205238 221.640625 128.8515625 C225 132.79082961 225 132.79082961 225 135 C225.66 135 226.32 135 227 135 C227.33 136.32 227.66 137.64 228 139 C228.66 139 229.32 139 230 139 C230.33 140.32 230.66 141.64 231 143 C231.66 143 232.32 143 233 143 C234.55078125 145.16015625 234.55078125 145.16015625 236.3125 148.0625 C238.30463121 151.29353925 240.27897602 154.4676581 242.5625 157.5 C245.22745143 161.15777647 247.31692308 165.0846049 249.44140625 169.07421875 C251.5375825 173.0091461 253.72144038 176.89447165 255.8984375 180.78515625 C257 183 257 183 257 185 C257.66 185.33 258.32 185.66 259 186 C260.0703125 187.7421875 260.0703125 187.7421875 261.125 189.875 C261.47820313 190.57367187 261.83140625 191.27234375 262.1953125 191.9921875 C263 194 263 194 263 197 C263.66 197.33 264.32 197.66 265 198 C265 198.99 265 199.98 265 201 C265.66 201.33 266.32 201.66 267 202 C267.84498528 203.83747239 268.60052806 205.71638772 269.3125 207.609375 C269.74820313 208.75664063 270.18390625 209.90390625 270.6328125 211.0859375 C271.30957031 212.89964844 271.30957031 212.89964844 272 214.75 C272.89572506 217.11983259 273.79155453 219.48962573 274.6875 221.859375 C275.28111328 223.44443848 275.28111328 223.44443848 275.88671875 225.06152344 C276.89427789 227.72094926 277.93501429 230.36315002 279 233 C282.26232932 241.18323784 284.49802899 249.50954332 286.53417969 258.06054688 C287.22641058 260.94266544 287.95862646 263.81446447 288.6875 266.6875 C290.4579089 273.68012064 291.66913567 280.74595479 292.89453125 287.84960938 C293.4910344 291.26895824 294.14769194 294.63679241 295 298 C295.88364332 302.59364578 296.26262004 307.14842328 296.5 311.8125 C296.57271573 313.15235467 296.64564526 314.49219775 296.71875 315.83203125 C296.75822754 316.60659668 296.79770508 317.38116211 296.83837891 318.17919922 C296.96208497 320.33826245 297.10938433 322.49598568 297.26708984 324.65283203 C298.003787 335.01925797 298.01758438 345.27318195 297.703125 355.65820312 C297.62465148 358.26156216 297.55757321 360.86503244 297.4921875 363.46875 C296.61612548 396.38387452 296.61612548 396.38387452 294 399 C293.57007059 400.99141178 293.19237813 402.99413105 292.8359375 405 C292.60438965 406.26803467 292.3728418 407.53606934 292.13427734 408.8425293 C291.94922638 409.85952408 291.94922638 409.85952408 291.76043701 410.89706421 C287.79387822 432.53852102 282.46042514 454.02375023 274.04296875 474.40625 C273.32010114 476.20394324 272.63773748 478.0182514 271.98828125 479.84375 C268.30415264 490.08174949 263.19335294 499.46243906 258 509 C257.41605469 510.08023438 256.83210937 511.16046875 256.23046875 512.2734375 C254.28388789 515.85843338 252.31504109 519.43070223 250.33984375 523 C249.79457031 523.99 249.24929688 524.98 248.6875 526 C248.19636719 526.886875 247.70523438 527.77375 247.19921875 528.6875 C245.89466158 531.05599647 245.89466158 531.05599647 245 534 C244.34 534.33 243.68 534.66 243 535 C242.67 535.99 242.34 536.98 242 538 C241.34 538 240.68 538 240 538 C239.68869141 538.97453125 239.68869141 538.97453125 239.37109375 539.96875 C237.45425812 544.20654044 234.80205942 547.75596174 232.0625 551.5 C231.48564453 552.29446533 230.90878906 553.08893066 230.31445312 553.9074707 C225.89367737 559.93144491 221.20347364 565.65204069 216.3046875 571.2890625 C214.43346463 573.49012805 212.74542143 575.67715914 211.125 578.0625 C208.97242875 581.0381132 206.87042056 582.74466956 204 585 C202.21091608 586.94904907 200.49576957 588.9528036 198.7734375 590.9609375 C196.30313766 593.8012382 193.75722889 596.43513592 191 599 C190.34 599 189.68 599 189 599 C188.67 599.99 188.34 600.98 188 602 C186.64453125 603.40234375 186.64453125 603.40234375 184.8125 604.9375 C184.090625 605.54851563 183.36875 606.15953125 182.625 606.7890625 C181.75875 607.51867187 180.8925 608.24828125 180 609 C178.93607231 609.92283576 177.87366821 610.84742993 176.8125 611.7734375 C169.99315258 617.70628909 163.0482157 623.38974852 155.83984375 628.84375 C154.05215761 630.20111279 152.28962609 631.59292846 150.56640625 633.03125 C148.09201186 634.92941556 145.54525179 636.45882693 142.8203125 637.96875 C139.79667864 639.68170995 136.90738295 641.59851964 134 643.5 C122.49796823 651.02253417 122.49796823 651.02253417 117.125 653.125 C114.82668286 653.79931699 114.82668286 653.79931699 114 656 C111.6859378 656.73075648 109.35171131 657.40138258 107 658 C107 658.66 107 659.32 107 660 C105.5459375 660.185625 105.5459375 660.185625 104.0625 660.375 C103.051875 660.58125 102.04125 660.7875 101 661 C100.67 661.66 100.34 662.32 100 663 C98.07666016 664.03393555 98.07666016 664.03393555 95.5390625 665.13671875 C94.1322522 665.75063477 94.1322522 665.75063477 92.69702148 666.37695312 C91.17637085 667.02567383 91.17637085 667.02567383 89.625 667.6875 C88.07824585 668.35362305 88.07824585 668.35362305 86.50024414 669.03320312 C71.88577587 675.26139992 57.01664836 680.61328169 41.75 685 C40.85925781 685.26039063 39.96851563 685.52078125 39.05078125 685.7890625 C33.07618099 687.50600133 27.1091339 688.86157113 21 690 C19.22514596 690.34446288 17.45040816 690.68952515 15.67578125 691.03515625 C13.8881132 691.37808601 12.10035239 691.7205326 10.3125 692.0625 C9.41466797 692.23587891 8.51683594 692.40925781 7.59179688 692.58789062 C2.73865767 693.51585351 -2.10501733 694.31796172 -7 695 C-8.23169922 695.26296875 -8.23169922 695.26296875 -9.48828125 695.53125 C-12.71874615 696.13413614 -15.90737351 696.30965069 -19.1875 696.5 C-24.12105388 696.77066489 -24.12105388 696.77066489 -29.03613281 697.24951172 C-37.26199073 698.25489435 -45.49645358 698.15073776 -53.77001953 698.13037109 C-56.38970614 698.12496968 -59.00922457 698.13036386 -61.62890625 698.13671875 C-63.30208371 698.13605864 -64.97526107 698.13477887 -66.6484375 698.1328125 C-67.42762543 698.13483673 -68.20681335 698.13686096 -69.00961304 698.13894653 C-72.52395519 698.12373419 -75.613306 697.87747169 -79 697 C-80.64527663 696.95719606 -82.2921666 696.95943708 -83.9375 697 C-87.45716153 697.03612556 -90.57359703 696.88107505 -94 696 C-97.66007554 695.23264132 -101.33065925 694.60778415 -105.0234375 694.01953125 C-119.71839148 691.62376815 -134.08070446 688.76886608 -148.4230957 684.72167969 C-152.09338384 683.69379037 -155.77888476 682.7233252 -159.46411133 681.75048828 C-162.92491449 680.72627446 -166.20437739 679.35845628 -169.53125 677.96875 C-172.016368 676.99357711 -174.49529623 676.22895909 -177.0625 675.5 C-181.18439907 674.31123914 -185.0001371 672.78523815 -188.88671875 670.9765625 C-190.90328151 670.04469431 -192.94017464 669.2056424 -195 668.375 C-198 667 -198 667 -199 665 C-200.98982813 664.30356015 -202.99256643 663.64393703 -205 663 C-207.61625546 661.88158504 -210.1815684 660.66116338 -212.75 659.4375 C-213.42160156 659.12103516 -214.09320312 658.80457031 -214.78515625 658.47851562 C-217.20021523 657.3387433 -219.61136073 656.19431963 -222 655 C-222 654.34 -222 653.68 -222 653 C-224.31 652.34 -226.62 651.68 -229 651 C-229 650.34 -229 649.68 -229 649 C-229.83273437 648.76667969 -230.66546875 648.53335938 -231.5234375 648.29296875 C-235.62983992 646.76575616 -238.98038918 644.71356427 -242.625 642.3125 C-243.35211182 641.83699707 -244.07922363 641.36149414 -244.82836914 640.87158203 C-257.91498058 632.1877745 -270.58565711 622.80324996 -282 612 C-283.47253265 610.68006141 -284.9514142 609.3671606 -286.4375 608.0625 C-287.05496094 607.51722656 -287.67242187 606.97195313 -288.30859375 606.41015625 C-290.15617506 604.81877961 -290.15617506 604.81877961 -293 603 C-293 602.34 -293 601.68 -293 601 C-293.556875 600.773125 -294.11375 600.54625 -294.6875 600.3125 C-300.33211925 597.10879718 -304.46408382 591.29399007 -308.71875 586.5 C-310.2563175 584.81499452 -311.83763571 583.16902276 -313.45703125 581.5625 C-316.1776994 578.82093578 -318.70342275 575.95356244 -321.1875 573 C-321.6609082 572.43821045 -322.13431641 571.8764209 -322.62207031 571.29760742 C-333.39214928 558.42259785 -342.97492366 544.8545687 -351.875 530.625 C-352.88820313 529.02591797 -352.88820313 529.02591797 -353.921875 527.39453125 C-354.88480469 525.85732422 -354.88480469 525.85732422 -355.8671875 524.2890625 C-356.44581543 523.36818848 -357.02444336 522.44731445 -357.62060547 521.49853516 C-358.85875095 519.25584828 -359.3929633 517.4495554 -360 515 C-360.66 514.67 -361.32 514.34 -362 514 C-363.36496749 511.51824092 -364.64017766 509.04546711 -365.875 506.5 C-366.23432617 505.76894043 -366.59365234 505.03788086 -366.96386719 504.28466797 C-369.43010126 499.2413201 -371.83823973 494.18243422 -374 489 C-374.37125 488.11183594 -374.7425 487.22367188 -375.125 486.30859375 C-378 479.29079861 -378 479.29079861 -378 477 C-378.66 476.67 -379.32 476.34 -380 476 C-380.76714263 474.04945745 -381.43594 472.05994988 -382.05859375 470.05859375 C-382.44466797 468.83462891 -382.83074219 467.61066406 -383.22851562 466.34960938 C-383.63189519 465.04569189 -384.03488712 463.74165442 -384.4375 462.4375 C-385.2246116 459.91432917 -386.01639701 457.39267837 -386.80859375 454.87109375 C-387.18435547 453.67307129 -387.56011719 452.47504883 -387.94726562 451.24072266 C-388.79199518 448.64031911 -389.69022275 446.09644848 -390.68359375 443.55078125 C-392.01376951 439.96285909 -392.87362779 436.49860421 -393.625 432.75 C-394.47006584 428.45450992 -394.47006584 428.45450992 -395.47045898 424.19458008 C-396.7618405 418.84269975 -397.52810748 413.36536498 -398.4375 407.9375 C-398.60699158 406.92798279 -398.60699158 406.92798279 -398.77990723 405.89807129 C-400.48306899 395.69672173 -401.93174964 385.50585017 -402.79893494 375.19599915 C-402.93287005 373.73318212 -403.08551175 372.27195639 -403.25686646 370.81304932 C-403.99452958 364.391168 -404.07010525 358.11285596 -403.9140625 351.65625 C-403.89282318 350.60651001 -403.87158386 349.55677002 -403.84970093 348.47521973 C-403.80373404 346.27003874 -403.75483372 344.0649171 -403.703125 341.85986328 C-403.6252222 338.50955599 -403.55799076 335.15915824 -403.4921875 331.80859375 C-403.44594567 329.65363215 -403.39909111 327.4986836 -403.3515625 325.34375 C-403.33171295 324.35491821 -403.3118634 323.36608643 -403.29141235 322.34729004 C-403.07708195 313.57921131 -402.32382603 305.05036529 -400.625 296.4375 C-399.69124081 291.67982819 -398.82487878 286.92880808 -398.07470703 282.13769531 C-395.04046791 263.32997555 -389.34841066 245.02919541 -382.78491211 227.18310547 C-381.69655128 224.15600671 -380.69192123 221.10328462 -379.69458008 218.04516602 C-376.75001797 209.37500899 -376.75001797 209.37500899 -374 208 C-373.63419415 206.34015815 -373.30559738 204.67197462 -373 203 C-372.40823136 201.52445319 -371.76425108 200.06894915 -371.07421875 198.63671875 C-370.68943359 197.83169922 -370.30464844 197.02667969 -369.90820312 196.19726562 C-369.50537109 195.36904297 -369.10253906 194.54082031 -368.6875 193.6875 C-368.29626953 192.87087891 -367.90503906 192.05425781 -367.50195312 191.21289062 C-365.05290022 186.11577388 -362.5405573 181.05204645 -360 176 C-359.34 176 -358.68 176 -358 176 C-357.78472656 175.19691406 -357.56945312 174.39382813 -357.34765625 173.56640625 C-355.60214189 168.94711753 -353.11092856 165.07198354 -350.4375 160.9375 C-349.89955811 160.09767578 -349.36161621 159.25785156 -348.80737305 158.39257812 C-341.76135823 147.44723109 -334.43454103 136.93491612 -326 127 C-325.54753906 126.46262207 -325.09507812 125.92524414 -324.62890625 125.37158203 C-300.43480831 96.64518865 -300.43480831 96.64518865 -287 86 C-286.278125 85.2575 -285.55625 84.515 -284.8125 83.75 C-283 82 -283 82 -281 82 C-281 81.34 -281 80.68 -281 80 C-280.34 80 -279.68 80 -279 80 C-279 79.34 -279 78.68 -279 78 C-277.05078125 76.40625 -277.05078125 76.40625 -274.3125 74.5 C-270.15613472 71.56051733 -266.11523466 68.53589177 -262.125 65.375 C-256.38874858 60.89957043 -250.41790707 56.79890802 -244.375 52.75 C-243.51664551 52.17169434 -242.65829102 51.59338867 -241.77392578 50.99755859 C-235.69519553 46.96398696 -229.43643637 43.42696406 -223 40 C-221.85273437 39.35675781 -220.70546875 38.71351563 -219.5234375 38.05078125 C-184.32614799 18.61803456 -145.56940335 6.46439861 -106 0 C-105.03336426 -0.16516113 -104.06672852 -0.33032227 -103.07080078 -0.50048828 C-70.0556829 -5.91436296 -32.95936449 -5.63149668 0 0 Z M-81 99 C-82.60248732 99.1449486 -84.2069786 99.26880803 -85.8125 99.375 C-94.60277953 100.11750318 -103.46572476 101.76904838 -112 104 C-112.89074219 104.21398437 -113.78148437 104.42796875 -114.69921875 104.6484375 C-120.91696401 106.16020301 -126.9729035 107.85493961 -133 110 C-133.804375 110.27457031 -134.60875 110.54914063 -135.4375 110.83203125 C-149.46933157 115.73899616 -162.78755815 122.23565144 -176 129 C-176 129.66 -176 130.32 -176 131 C-176.57492187 131.12117188 -177.14984375 131.24234375 -177.7421875 131.3671875 C-185.34510659 133.49810946 -192.99157024 139.02015321 -199 144 C-199 144.66 -199 145.32 -199 146 C-199.94875 146.268125 -200.8975 146.53625 -201.875 146.8125 C-205.25267273 147.74986588 -205.25267273 147.74986588 -207 151 C-208.63631892 152.04892238 -210.30485863 153.04906703 -212 154 C-212.99 154.66 -213.98 155.32 -215 156 C-215 156.66 -215 157.32 -215 158 C-215.55171875 158.2371875 -216.1034375 158.474375 -216.671875 158.71875 C-219.56774711 160.31245143 -221.79512037 162.28917273 -224.25 164.5 C-225.14203125 165.2940625 -226.0340625 166.088125 -226.953125 166.90625 C-229.233019 168.75034671 -229.233019 168.75034671 -229 171 C-229.59296875 171.25652344 -230.1859375 171.51304687 -230.796875 171.77734375 C-233.20936364 173.1161894 -234.491406 174.44962615 -236.25 176.5625 C-239.51404186 180.43282178 -242.88213885 184.18756228 -246.30078125 187.921875 C-247.90879017 189.88845143 -248.91353266 191.72083295 -250 194 C-251.33333333 195.33333333 -252.66666667 196.66666667 -254 198 C-255.10565685 199.33600202 -256.18757338 200.69186943 -257.25 202.0625 C-257.77078125 202.73410156 -258.2915625 203.40570312 -258.828125 204.09765625 C-260.26224377 206.05332176 -260.26224377 206.05332176 -260 209 C-260.66 209 -261.32 209 -262 209 C-262.12375 209.804375 -262.2475 210.60875 -262.375 211.4375 C-262.58125 212.283125 -262.7875 213.12875 -263 214 C-263.99 214.495 -263.99 214.495 -265 215 C-279.61714616 232.78289172 -288.13356241 259.15912892 -294.125 281.0625 C-294.38925781 282.00416016 -294.65351563 282.94582031 -294.92578125 283.91601562 C-296.40096613 289.2963219 -297.4057931 294.45611085 -298 300 C-298.309375 301.155 -298.61875 302.31 -298.9375 303.5 C-303.33362359 320.59239098 -309.0588417 355.8823166 -301 372 C-301 374.33333333 -301 376.66666667 -301 379 C-300.42211947 383.66707325 -299.57508792 388.22175167 -298.5625 392.8125 C-297.48532398 397.73822724 -296.45814443 402.6656882 -295.52734375 407.62109375 C-294.02790822 414.38521403 -291.74941899 420.93459988 -289.5625 427.5 C-289.26279297 428.41136719 -288.96308594 429.32273437 -288.65429688 430.26171875 C-283.2821438 446.41313776 -275.64994979 462.31652397 -266.9375 476.9375 C-266.56802246 477.56333984 -266.19854492 478.18917969 -265.81787109 478.83398438 C-264.94016044 480.26237507 -263.97851428 481.63868234 -263 483 C-262.34 483 -261.68 483 -261 483 C-260.855625 483.61875 -260.71125 484.2375 -260.5625 484.875 C-260.06847775 487.03258322 -260.06847775 487.03258322 -259 489 C-258.34 489 -257.68 489 -257 489 C-256.7525 489.70511719 -256.505 490.41023438 -256.25 491.13671875 C-254.83896341 494.36887443 -253.0749274 496.96328902 -251 499.8125 C-250.29875 500.78832031 -249.5975 501.76414062 -248.875 502.76953125 C-248.25625 503.50558594 -247.6375 504.24164062 -247 505 C-246.34 505 -245.68 505 -245 505 C-244.7525 505.73992187 -244.505 506.47984375 -244.25 507.2421875 C-242.8811229 510.2622726 -241.40603141 511.86934555 -239 514.125 C-236.60981756 516.38337091 -234.83839255 518.24241118 -233 521 C-232.34 521 -231.68 521 -231 521 C-230.61714844 521.88751953 -230.61714844 521.88751953 -230.2265625 522.79296875 C-228.87444191 525.22592458 -227.50466543 526.53495057 -225.375 528.3125 C-224.66859375 528.90804688 -223.9621875 529.50359375 -223.234375 530.1171875 C-222.12835937 531.04917969 -222.12835937 531.04917969 -221 532 C-218.88443836 533.90104665 -216.77146074 535.80475172 -214.6640625 537.71484375 C-213.08660942 539.20374533 -213.08660942 539.20374533 -211 539 C-210.505 540.485 -210.505 540.485 -210 542 C-207.75537814 543.90370965 -207.75537814 543.90370965 -205.0625 545.6875 C-204.16660156 546.31011719 -203.27070312 546.93273437 -202.34765625 547.57421875 C-200.17287612 549.17302982 -200.17287612 549.17302982 -198 549 C-198 549.66 -198 550.32 -198 551 C-148.68562484 588.55960873 -80.96595973 602.81306862 -20.21142578 594.80249023 C26.44505766 588.19792243 68.78561726 569.84482997 105.4375 540.3125 C106.08775146 539.79010742 106.73800293 539.26771484 107.40795898 538.72949219 C111.33609435 535.51836136 114.96826568 532.13283742 118.49658203 528.48632812 C120 527 120 527 122.4375 525.1875 C122.953125 524.795625 123.46875 524.40375 124 524 C124 523.34 124 522.68 124 522 C124.66 522 125.32 522 126 522 C127.63881452 520.41858579 127.63881452 520.41858579 129.3125 518.375 C129.92867187 517.64796875 130.54484375 516.9209375 131.1796875 516.171875 C131.78039062 515.45515625 132.38109375 514.7384375 133 514 C133.77730469 513.11054687 133.77730469 513.11054687 134.5703125 512.203125 C137.18919535 509.49432472 137.18919535 509.49432472 138 506 C138.5990918 505.74581299 139.19818359 505.49162598 139.81542969 505.22973633 C142.26114079 503.85299886 143.32886223 502.59480966 144.953125 500.32421875 C145.48550781 499.5861499 146.01789063 498.84808105 146.56640625 498.08764648 C147.12199219 497.29559814 147.67757813 496.5035498 148.25 495.6875 C149.12205078 494.45592163 149.12205078 494.45592163 150.01171875 493.19946289 C165.47986614 471.18362115 177.85968396 447.17606917 185.3203125 421.2734375 C185.97409325 419.08665361 186.72594536 416.95910513 187.5 414.8125 C189.46084837 408.99123141 190.5012354 402.97464838 191.62060547 396.94873047 C191.97139305 395.14693737 192.37596818 393.35584063 192.78515625 391.56640625 C199.37741608 361.32151565 199.90600228 324.74676875 191 295 C190.46352364 292.28781396 190.01177179 289.5714716 189.5625 286.84375 C186.87592118 273.2616015 181.59852349 259.61485488 176 247 C175.62359375 246.12601563 175.2471875 245.25203125 174.859375 244.3515625 C171.33569166 236.3410557 167.23001197 228.6546226 163 221 C162.52949219 220.14792969 162.05898438 219.29585937 161.57421875 218.41796875 C158.27249665 212.70082754 154.51708005 207.29170913 150.75 201.875 C150.21793945 201.1030127 149.68587891 200.33102539 149.13769531 199.53564453 C148.63334961 198.82005371 148.12900391 198.10446289 147.609375 197.3671875 C147.15530273 196.71862793 146.70123047 196.07006836 146.23339844 195.40185547 C145.82637695 194.93924316 145.41935547 194.47663086 145 194 C144.34 194 143.68 194 143 194 C142.34 192.35 141.68 190.7 141 189 C140.34 189 139.68 189 139 189 C138.73832031 188.43152344 138.47664063 187.86304688 138.20703125 187.27734375 C134.94532687 181.12338371 130.02955995 175.75769184 125 171 C124.29875 170.236875 123.5975 169.47375 122.875 168.6875 C121.04877868 166.66551763 121.04877868 166.66551763 118 167 C117.34 165.35 116.68 163.7 116 162 C115.01 162 114.02 162 113 162 C112.67 161.01 112.34 160.02 112 159 C111.34 159 110.68 159 110 159 C109.67 158.01 109.34 157.02 109 156 C108.01 155.67 107.02 155.34 106 155 C104.66666667 153.66666667 103.33333333 152.33333333 102 151 C101.34 151 100.68 151 100 151 C99.67 150.01 99.34 149.02 99 148 C98.2575 147.71125 97.515 147.4225 96.75 147.125 C93.92873932 145.9708479 92.67927023 144.67258709 90.63671875 142.48828125 C86.88259603 139.0746279 82.30710236 136.64816137 78 134 C77.37480469 133.57847656 76.74960937 133.15695312 76.10546875 132.72265625 C70.18745386 128.75504807 63.6836254 125.95243702 57.23046875 122.98046875 C53.77967064 121.38479032 50.42028845 119.65926415 47.0625 117.875 C36.56774388 112.57709698 25.00928608 109.31690665 13.59765625 106.6484375 C11.12934437 106.03228747 8.77401346 105.28028386 6.375 104.4375 C-1.0942409 101.87162768 -8.62166341 100.84305152 -16.46875 100.21484375 C-19.66845832 99.94326357 -22.82534657 99.47919297 -26 99 C-31.97531507 98.13078948 -37.75884167 97.85301303 -43.79296875 97.8671875 C-44.70202469 97.86623077 -45.61108063 97.86527405 -46.54768372 97.86428833 C-48.45618764 97.8636118 -50.36469394 97.86542908 -52.27319336 97.86962891 C-55.1893428 97.8750034 -58.10533955 97.86965641 -61.02148438 97.86328125 C-62.88281284 97.86394176 -64.74414121 97.86522236 -66.60546875 97.8671875 C-67.47326462 97.86516327 -68.34106049 97.86313904 -69.2351532 97.86105347 C-73.29936161 97.87677885 -77.0293938 98.02618434 -81 99 Z " fill="#FFFFFF" transform="translate(739,339)"/>
<path d="M0 0 C12.2143163 8.2895432 19.69293376 20.32276116 22.91796875 34.65625 C23.94890336 43.06704327 22.54906664 51.54949527 21.3125 59.875 C20.6525 59.875 19.9925 59.875 19.3125 59.875 C19.20164062 60.59945312 19.09078125 61.32390625 18.9765625 62.0703125 C17.07108514 70.11815219 11.33516264 76.50008368 5.3125 81.875 C4.384375 82.761875 3.45625 83.64875 2.5 84.5625 C-1.62641922 87.55617669 -5.87629188 89.25713413 -10.6875 90.875 C-11.74582031 91.2359375 -12.80414062 91.596875 -13.89453125 91.96875 C-18.48865618 93.0664194 -22.73215047 93.21864947 -27.4375 93.1875 C-28.32421387 93.18186035 -29.21092773 93.1762207 -30.12451172 93.17041016 C-40.89800207 92.97101076 -50.02743183 90.61895764 -58.6875 83.875 C-58.6875 83.215 -58.6875 82.555 -58.6875 81.875 C-59.55375 81.50375 -59.55375 81.50375 -60.4375 81.125 C-69.2325818 76.23884344 -74.4576311 64.75276246 -77.25 55.5 C-80.55066366 41.25580261 -77.91908633 27.56014806 -70.4375 15.125 C-54.48620898 -8.24783905 -24.23920153 -14.12284056 0 0 Z " fill="#FFFFFF" transform="translate(1113.6875,243.125)"/>
<path d="" fill="#FFFFFF" transform="translate(0,0)"/>
<path d="" fill="#FFFFFF" transform="translate(0,0)"/>
<path d="" fill="#FFFFFF" transform="translate(0,0)"/>
<path d="" fill="#FFFFFF" transform="translate(0,0)"/>
<path d="" fill="#FFFFFF" transform="translate(0,0)"/>
<path d="" fill="#FFFFFF" transform="translate(0,0)"/>
</svg>
