<?xml version="1.0" encoding="UTF-8"?>
<svg version="1.1" xmlns="http://www.w3.org/2000/svg" width="1243" height="1107">
<path d="M0 0 C47.07870047 46.92584755 45.27011949 130.87104894 49 193 C49.0799118 194.30982849 49.0799118 194.30982849 49.16143799 195.64611816 C54.88718321 291.06058568 54.07272477 389.58704032 40.42333984 491.09033203 C40.03724341 493.74402139 39.68032309 496.3997349 39.33203125 499.05859375 C36.63770841 518.71869853 32.75766365 540.11023577 24 558 C23.68337402 558.66708984 23.36674805 559.33417969 23.04052734 560.02148438 C8.81124688 589.76317927 -16.47069216 613.27060234 -47.58642578 624.55444336 C-57.84134107 628.04660304 -68.33662513 630.18593349 -79 632 C-79.78536133 632.1350293 -80.57072266 632.27005859 -81.37988281 632.40917969 C-87.2374927 633.39641731 -93.1096399 634.23375714 -99 635 C-99.89799316 635.11698242 -100.79598633 635.23396484 -101.72119141 635.35449219 C-171.23141642 644.11074141 -242.00027379 645.41256662 -312 647 C-312.67382973 647.01530762 -313.34765945 647.03061523 -314.04190826 647.04638672 C-397.92170103 648.93484092 -482.01699372 648.92475786 -582 647 C-583.03382687 646.97655518 -583.03382687 646.97655518 -584.08853912 646.95263672 C-791.03718935 642.22243305 -791.03718935 642.22243305 -891 596 C-891.74636719 595.31679688 -892.49273438 594.63359375 -893.26171875 593.9296875 C-908.56032535 579.45875421 -919.62775774 559.23857183 -925 539 C-925.22606934 538.17435547 -925.45213867 537.34871094 -925.68505859 536.49804688 C-937.29911376 493.1987446 -939.75511629 447.35772663 -942.6875 402.8125 C-942.74843842 401.90343903 -942.80937683 400.99437805 -942.87216187 400.05776978 C-945.12474045 365.98311086 -945.20786347 331.88390122 -945.1875 297.75 C-945.18708584 296.63249737 -945.18667168 295.51499474 -945.18624496 294.36362839 C-945.08631888 78.87314574 -945.08631888 78.87314574 -891.5625 -2.8125 C-869.90453064 -23.7067892 -844.1747693 -33.6912754 -815 -39 C-814.21125488 -39.1438916 -813.42250977 -39.2877832 -812.60986328 -39.43603516 C-718.28856622 -55.94684282 -617.94569203 -53.79451632 0 0 Z M-548 150 C-548 246.69 -548 343.38 -548 443 C-537.98114418 438.00605669 -537.98114418 438.00605669 -528.3125 432.5 C-521.21936519 428.25988711 -514.03538094 424.20211528 -506.8125 420.1875 C-497.62873549 415.0774105 -488.53388774 409.84052973 -479.51879883 404.43823242 C-473.42838985 400.79819898 -467.24193334 397.37244108 -461 394 C-443.05997529 384.16281402 -425.28595447 374.03343093 -407.72167969 363.53979492 C-401.56078242 359.8718983 -395.30737857 356.40865835 -389 353 C-376.91301876 346.37199905 -364.93254395 339.56056781 -352.97412109 332.70410156 C-348.6396342 330.22054234 -344.30192392 327.74263742 -339.96411133 325.26489258 C-337.6131178 323.92197454 -335.26273387 322.57799873 -332.9128418 321.2331543 C-327.30767967 318.02621309 -321.69898249 314.82599548 -316.07701111 311.64859009 C-313.48599438 310.18374615 -310.89699135 308.71536368 -308.30813599 307.2467041 C-307.07026875 306.54579058 -305.83140996 305.84662508 -304.59152222 305.14929199 C-302.86972313 304.18076354 -301.15157284 303.20575706 -299.43359375 302.23046875 C-298.45447021 301.67770264 -297.47534668 301.12493652 -296.46655273 300.55541992 C-294.30370499 299.19151782 -292.69462965 297.89571763 -291 296 C-291.58676514 295.6690332 -292.17353027 295.33806641 -292.77807617 294.99707031 C-304.39808252 288.44086442 -316.00574835 281.86433418 -327.58398438 275.23461914 C-332.60532599 272.36155906 -337.63869692 269.51196816 -342.6875 266.6875 C-349.68237354 262.77138799 -356.6229945 258.76324455 -363.5625 254.75 C-372.90539283 249.34735305 -382.27580569 243.99753774 -391.67724609 238.69750977 C-397.85799779 235.21264054 -404.02830904 231.71033694 -410.1875 228.1875 C-411.03127197 227.70498779 -411.87504395 227.22247559 -412.74438477 226.7253418 C-416.57665247 224.53298119 -420.40809559 222.3391872 -424.23876953 220.14404297 C-427.74195693 218.13672209 -431.2456459 216.13028321 -434.75 214.125 C-435.341297 213.78662109 -435.93259399 213.44824219 -436.54180908 213.09960938 C-446.06034985 207.65507276 -455.61807643 202.28353458 -465.19384766 196.94018555 C-472.1408784 193.05769444 -479.0429526 189.10524383 -485.92041016 185.10107422 C-492.83960722 181.07767301 -499.80592489 177.14043793 -506.77905273 173.21142578 C-512.37825359 170.05395709 -517.96795166 166.88061894 -523.546875 163.6875 C-524.18311295 163.32339523 -524.81935089 162.95929047 -525.47486877 162.58415222 C-528.60457297 160.79256241 -531.73332344 158.99932639 -534.86108398 157.2043457 C-536.55986694 156.2311438 -536.55986694 156.2311438 -538.29296875 155.23828125 C-539.2986792 154.66118408 -540.30438965 154.08408691 -541.34057617 153.48950195 C-543.52707925 152.26487556 -545.75848167 151.12075916 -548 150 Z " fill="#FEFEFE" transform="translate(1192,56)"/>
<path d="M0 0 C2.08326131 -0.02709444 4.16662441 -0.04643873 6.25 -0.0625 C7.41015625 -0.07410156 8.5703125 -0.08570313 9.765625 -0.09765625 C13 0 13 0 14.85083008 0.49072266 C17.47416572 1.11236052 19.92574971 1.1806546 22.62109375 1.24609375 C24.2621106 1.2934668 24.2621106 1.2934668 25.9362793 1.34179688 C27.09168213 1.37337891 28.24708496 1.40496094 29.4375 1.4375 C37.37437007 1.69316114 45.05382283 2.04235016 52.86523438 3.49951172 C65.30851547 5.48617264 78.20940869 5.25426952 90.78344727 5.47680664 C99.67583878 5.64023014 108.45160366 6.09450276 117.30078125 7 C131.05154893 8.37383089 144.81677638 8.42131341 158.625 8.5625 C162.49088823 8.60681026 166.35670592 8.65368748 170.22250366 8.70530701 C172.60218812 8.73663547 174.98193435 8.76370372 177.36172485 8.78553772 C178.45101288 8.79902756 179.5403009 8.8125174 180.66259766 8.82641602 C181.59995758 8.83592789 182.5373175 8.84543976 183.50308228 8.85523987 C186.49236957 8.97898588 189.43560159 9.20630378 192.41416359 9.47433472 C198.89599846 10.02017014 205.37016045 10.33011049 211.87030029 10.55540466 C213.08043753 10.59755897 214.29057477 10.63971328 215.53738284 10.68314499 C228.69848216 11.10522282 241.85423076 11.13661121 255.02093339 11.11606562 C258.59647993 11.11164422 262.17202534 11.1132156 265.74757385 11.1139679 C271.90600273 11.11448592 278.06442082 11.11141586 284.22284698 11.10573006 C293.12630296 11.09751535 302.02975385 11.09498977 310.9332132 11.09374207 C325.3872818 11.09156699 339.84134466 11.08494931 354.29541016 11.07543945 C368.31526664 11.06622502 382.33512156 11.05916404 396.35498047 11.05493164 C397.65673064 11.05453756 397.65673064 11.05453756 398.98477879 11.05413551 C403.3395339 11.05283023 407.69428901 11.05156658 412.04904413 11.05032361 C448.03270012 11.03999919 484.01634961 11.02242355 520 11 C520 11.33 520 11.66 520 12 C429.47106387 15.07128822 338.6657883 14.89289452 213 13 C212.31078209 12.98437012 211.62156418 12.96874023 210.91146088 12.95263672 C140.64939258 11.34666397 69.78193712 9.71145138 0 1 C0 0.67 0 0.34 0 0 Z " fill="#9F9F9F" transform="translate(397,690)"/>
<path d="M0 0 C0.33 0 0.66 0 1 0 C1.27098484 4.59569785 1.53709415 9.19164957 1.79956055 13.7878418 C1.88853959 15.33576224 1.97862642 16.88361959 2.07006836 18.43139648 C2.41536361 24.28598362 2.72024995 30.14191949 3 36 C3.06995682 37.44732513 3.06995682 37.44732513 3.1413269 38.92388916 C4.29792275 63.93636453 4.20232455 88.96668354 4.1875 114 C4.18708584 115.12306171 4.18667168 116.24612343 4.18624496 117.40321732 C4.15607384 182.72313036 2.53969313 248.26027043 -7 313 C-7.13116211 313.92989746 -7.26232422 314.85979492 -7.39746094 315.81787109 C-9.02596067 327.3506101 -11.33204943 338.66459581 -14 350 C-14.33 350 -14.66 350 -15 350 C-14.43939441 341.46988934 -13.06864449 333.13426604 -11.58850098 324.72839355 C-8.34918764 306.22239859 -5.92298429 287.685281 -4 269 C-3.88672363 267.91364258 -3.77344727 266.82728516 -3.65673828 265.70800781 C-2.2777304 252.12706764 -1.68160199 238.55650758 -1.42895508 224.91357422 C-1.29345669 218.86390103 -1.03304566 212.97113052 -0.27005482 206.96682835 C1.61127679 191.49856863 1.27563452 175.91834313 1.23571944 160.36467481 C1.22679532 156.13984177 1.22869916 151.91501084 1.2290802 147.69017029 C1.22814951 140.60063809 1.2195482 133.51114922 1.20581055 126.42163086 C1.19009767 118.28391893 1.18481266 110.1462543 1.1855461 102.00852829 C1.18622742 93.2607192 1.1792544 84.51292777 1.1700995 75.76512408 C1.1679922 73.28154668 1.16726164 70.79797221 1.16686058 68.314394 C1.16231647 44.80260871 1.16231647 44.80260871 0.21894836 21.31260681 C-0.19182047 14.21655102 -0.08380158 7.10451165 0 0 Z " fill="#A7A7A7" transform="translate(1239,237)"/>
<path d="M0 0 C0.33 0 0.66 0 1 0 C1.09266157 7.85564164 1.12001262 15.68732996 0.64732838 23.53183079 C-0.28363347 39.26265916 -0.16471338 55.01788671 -0.16725707 70.7696507 C-0.16797634 73.28039021 -0.17012671 75.79112452 -0.17275429 78.30186272 C-0.18194908 87.10415866 -0.18609607 95.90643965 -0.18530273 104.70874023 C-0.18470156 112.84707753 -0.19527644 120.98534865 -0.2110464 129.12366921 C-0.22420831 136.17318226 -0.22948313 143.22267388 -0.22884732 150.27219909 C-0.22859513 154.45545708 -0.23128999 158.63865586 -0.24202538 162.82190132 C-0.34555049 186.02390918 -0.34555049 186.02390918 1.54389954 209.13302612 C2.26788278 215.27120078 2.29320845 221.38515123 2.375 227.5625 C2.94466564 254.20757822 5.77829992 280.81994751 9.5625 307.1875 C9.66228149 307.88299957 9.76206299 308.57849915 9.86486816 309.29507446 C11.13624815 318.05002125 12.65993067 326.7409119 14.36230469 335.42114258 C15.22474619 340.26131483 15.69868414 345.09582468 16 350 C13.64756472 346.11381837 13.0031628 341.8382557 12.1875 337.4375 C12.01863281 336.52750244 11.84976562 335.61750488 11.67578125 334.67993164 C4.94894658 297.33807815 1.79570312 259.64035311 -0.6875 221.8125 C-0.74834778 220.90407349 -0.80919556 219.99564697 -0.87188721 219.05969238 C-3.05164921 186.08957358 -3.20165822 153.09957635 -3.18867874 120.07133102 C-3.18748731 116.71422986 -3.18803586 113.35713178 -3.18869019 110.00003052 C-3.18547351 33.17094013 -3.18547351 33.17094013 0 0 Z " fill="#A7A7A7" transform="translate(250,237)"/>
<path d="M0 0 C3.85135482 0.00120418 7.70270698 0.00063673 11.55406189 -0.00001144 C50.75829637 0.00139564 89.94685663 0.38834611 129.14500427 1.12617874 C130.90026554 1.15890066 130.90026554 1.15890066 132.69098663 1.19228363 C140.45188103 1.33769656 148.21254532 1.49244495 155.97312927 1.65352249 C156.94244762 1.67302082 157.91176598 1.69251915 158.91045761 1.71260834 C172.58381229 1.99171119 186.23576421 2.50798905 199.89500427 3.18867874 C199.89500427 3.51867874 199.89500427 3.84867874 199.89500427 4.18867874 C188.76664808 4.2120345 177.6382979 4.22971061 166.50992203 4.24049091 C161.34042229 4.24566959 156.17093955 4.25267397 151.00144958 4.26411819 C145.99581998 4.27512803 140.99020653 4.28099314 135.98456573 4.28355598 C134.09199012 4.28537812 132.1994152 4.28893453 130.30684662 4.2944088 C120.08713433 4.3227449 109.9251628 4.14833121 99.72084904 3.57994461 C88.47833449 2.9715805 77.22528982 2.81401581 65.96922302 2.63008499 C64.72343664 2.60902758 63.47765026 2.58797016 62.19411278 2.56627464 C29.18912807 2.02267453 -3.81731311 2.07095673 -36.82575619 2.11665118 C-45.28632136 2.12815169 -53.74688772 2.13340618 -62.20745885 2.13835514 C-79.5066469 2.14860299 -96.80581957 2.16600245 -114.10499573 2.18867874 C-114.10499573 1.85867874 -114.10499573 1.52867874 -114.10499573 1.18867874 C-76.06830132 0.44940707 -38.04502226 -0.01325651 0 0 Z " fill="#939393" transform="translate(738.1049957275391,0.8113212585449219)"/>
<path d="M0 0 C2.08326131 -0.02709444 4.16662441 -0.04643873 6.25 -0.0625 C7.41015625 -0.07410156 8.5703125 -0.08570313 9.765625 -0.09765625 C13 0 13 0 14.85083008 0.49072266 C17.47416572 1.11236052 19.92574971 1.1806546 22.62109375 1.24609375 C24.2621106 1.2934668 24.2621106 1.2934668 25.9362793 1.34179688 C27.09168213 1.37337891 28.24708496 1.40496094 29.4375 1.4375 C37.37437007 1.69316114 45.05382283 2.04235016 52.86523438 3.49951172 C65.30851547 5.48617264 78.20940869 5.25426952 90.78344727 5.47680664 C99.67583878 5.64023014 108.45160366 6.09450276 117.30078125 7 C131.05154893 8.37383089 144.81677638 8.42131341 158.625 8.5625 C162.49088823 8.60681026 166.35670592 8.65368748 170.22250366 8.70530701 C172.60218812 8.73663547 174.98193435 8.76370372 177.36172485 8.78553772 C183.64568414 8.86335882 189.84630204 9.1833344 196.10446167 9.7525177 C200.73562499 10.14834425 205.37233688 10.34091279 210.015625 10.53515625 C210.99746765 10.57813339 211.9793103 10.62111053 212.99090576 10.66539001 C216.07717908 10.79997931 219.16358086 10.93130182 222.25 11.0625 C224.3632907 11.15407917 226.47657205 11.24587423 228.58984375 11.33789062 C233.7264581 11.56108416 238.86319026 11.78135141 244 12 C244 12.33 244 12.66 244 13 C223.84673214 13.11077114 203.72998982 12.88714169 183.58439636 12.25299835 C181.44956279 12.1859151 179.3146905 12.12018385 177.17980957 12.05462646 C118.11043867 10.22977216 58.6820622 8.32576298 0 1 C0 0.67 0 0.34 0 0 Z " fill="#959595" transform="translate(397,690)"/>
<path d="M0 0 C0.33 0 0.66 0 1 0 C1.34951955 10.40642189 0.32273966 20.7126912 -0.625 31.0625 C-0.71136719 32.01509705 -0.79773437 32.96769409 -0.88671875 33.94915771 C-2.22758864 48.56057078 -3.93156876 63.09905442 -6 77.625 C-6.11933899 78.47571075 -6.23867798 79.32642151 -6.3616333 80.20291138 C-8.02378837 91.94368221 -10.27305785 103.46067435 -13 115 C-13.33 115 -13.66 115 -14 115 C-13.43945242 106.470772 -12.06884869 98.13611575 -10.58877563 89.73114014 C-5.38553728 59.99009609 -2.46883267 30.0753879 0 0 Z " fill="#838383" transform="translate(1238,472)"/>
<path d="M0 0 C0.33 0 0.66 0 1 0 C1.05153732 0.58626663 1.10307465 1.17253326 1.15617371 1.77656555 C4.21379986 37.3697597 4.21379986 37.3697597 8.625 72.8125 C8.7229184 73.48737457 8.82083679 74.16224915 8.92172241 74.85757446 C10.17676611 83.41778883 11.6989089 91.91045084 13.36010742 100.39916992 C14.22161179 105.24706304 14.69822595 110.08836722 15 115 C12.64756472 111.11381837 12.0031628 106.8382557 11.1875 102.4375 C11.01863281 101.52750244 10.84976562 100.61750488 10.67578125 99.67993164 C6.60331034 77.07292261 3.77277358 54.36950279 1.6875 31.5 C1.60032715 30.55470428 1.5131543 29.60940857 1.42333984 28.63546753 C-0.33093544 9.40237985 -0.33093544 9.40237985 0 0 Z " fill="#838383" transform="translate(251,472)"/>
<path d="M0 0 C0 0.33 0 0.66 0 1 C-28.10418205 5.56531068 -57.46605024 9.90424489 -86 9 C-86 8.67 -86 8.34 -86 8 C-85.44538086 7.94465088 -84.89076172 7.88930176 -84.31933594 7.83227539 C-81.7959083 7.57871893 -79.27296117 7.32065495 -76.75 7.0625 C-75.87730469 6.97548828 -75.00460937 6.88847656 -74.10546875 6.79882812 C-73.26113281 6.71181641 -72.41679688 6.62480469 -71.546875 6.53515625 C-70.77182617 6.456604 -69.99677734 6.37805176 -69.19824219 6.29711914 C-67.03649815 6.05277918 -67.03649815 6.05277918 -65.1262207 5.49560547 C-62.23236608 4.82107052 -59.39960768 4.7026107 -56.43359375 4.53515625 C-55.14259766 4.45716797 -53.85160156 4.37917969 -52.52148438 4.29882812 C-50.49028082 4.1802337 -48.45899843 4.06369856 -46.42749023 3.95043945 C-38.96508833 3.52879865 -31.72537424 2.91260017 -24.39282227 1.44799805 C-21.00361779 0.81345155 -17.69305729 0.57449044 -14.25 0.375 C-12.43242188 0.26285156 -12.43242188 0.26285156 -10.578125 0.1484375 C-7.04732807 0.00196339 -3.53337803 -0.02717983 0 0 Z " fill="#9A9A9A" transform="translate(1113,687)"/>
<path d="M0 0 C2.08326131 -0.02709444 4.16662441 -0.04643873 6.25 -0.0625 C7.41015625 -0.07410156 8.5703125 -0.08570313 9.765625 -0.09765625 C13 0 13 0 14.85083008 0.49072266 C17.47416572 1.11236052 19.92574971 1.1806546 22.62109375 1.24609375 C23.71421875 1.27759521 24.80734375 1.30909668 25.93359375 1.34155273 C27.66802734 1.38904663 27.66802734 1.38904663 29.4375 1.4375 C31.82180346 1.515242 34.2059341 1.59849677 36.58984375 1.6875 C37.66097412 1.72488281 38.73210449 1.76226563 39.83569336 1.80078125 C44.19499745 2.07523477 48.44402131 2.7573349 52.74682617 3.49145508 C56.0179024 4.00279855 59.25020536 4.32081328 62.55078125 4.57421875 C63.74058594 4.66646729 64.93039062 4.75871582 66.15625 4.85375977 C71.43684233 5.24550243 76.71768758 5.63211305 82 6 C82 6.33 82 6.66 82 7 C69.36050137 7.31787115 56.89994645 6.45225561 44.30957031 5.40087891 C41.0064308 5.12553606 37.70256657 4.86082998 34.3984375 4.59765625 C22.89089429 3.66651845 11.43771013 2.58312568 0 1 C0 0.67 0 0.34 0 0 Z " fill="#898989" transform="translate(397,690)"/>
<path d="M0 0 C0.33 0 0.66 0 1 0 C1.21355392 16.96603788 1.15825284 33.87167354 0.125 50.8125 C0.0660556 51.84721436 0.0660556 51.84721436 0.00592041 52.90283203 C-0.10799621 54.85903516 -0.23725617 56.81432652 -0.3671875 58.76953125 C-0.44050293 59.87917236 -0.51381836 60.98881348 -0.58935547 62.13208008 C-0.98053229 64.86403856 -1.59771477 66.64848102 -3 69 C-3.21343291 57.55342893 -3.11119701 46.31721284 -1.78613281 34.93945312 C-0.49588837 23.34102798 -0.32397616 11.65787392 0 0 Z " fill="#989898" transform="translate(1241,403)"/>
<path d="M0 0 C0.33 0 0.66 0 1 0 C1.01981934 0.71317383 1.03963867 1.42634766 1.06005859 2.16113281 C1.55159827 19.77037713 1.55159827 19.77037713 3.0625 37.3125 C4.28461883 47.86915373 4.1978905 58.38698051 4 69 C1.72644499 65.3376924 1.6065728 62.00733577 1.3671875 57.75390625 C1.32553467 57.0381694 1.28388184 56.32243256 1.2409668 55.58500671 C1.10879289 53.24460019 0.99108108 50.90375605 0.875 48.5625 C0.81146332 47.36904968 0.81146332 47.36904968 0.74664307 46.15148926 C-0.0696989 30.75882639 -0.23396167 15.41267481 0 0 Z " fill="#989898" transform="translate(248,403)"/>
<path d="M0 0 C0.66 0.33 1.32 0.66 2 1 C2 9.25 2 17.5 2 26 C0.68 26 -0.64 26 -2 26 C-2 17.75 -2 9.5 -2 1 C-1.34 0.67 -0.68 0.34 0 0 Z " fill="#161616" transform="translate(3,1081)"/>
<path d="M0 0 C0 0.33 0 0.66 0 1 C-0.94129761 1.15033691 -0.94129761 1.15033691 -1.90161133 1.30371094 C-33.00823213 5.10448121 -33.00823213 5.10448121 -61.6953125 16.74609375 C-64 18 -64 18 -66.3125 17.6875 C-66.869375 17.460625 -67.42625 17.23375 -68 17 C-52.9591265 8.84935905 -37.69261591 4.94971342 -21 2 C-19.71867187 1.77183594 -18.43734375 1.54367188 -17.1171875 1.30859375 C-11.33760942 0.34980064 -5.85710546 -0.22969041 0 0 Z " fill="#8D8D8D" transform="translate(398,15)"/>
<path d="M0 0 C1.71769445 3.06907296 2.46665894 5.79877711 3.03515625 9.26171875 C3.2043457 10.29111572 3.37353516 11.3205127 3.54785156 12.38110352 C3.80260254 14.01776978 3.80260254 14.01776978 4.0625 15.6875 C4.2387793 16.79988037 4.41505859 17.91226074 4.59667969 19.05834961 C5.96555302 28.03300924 6.75047577 36.92979441 7 46 C5.0555092 42.24065111 3.90452769 38.93962118 3.53515625 34.71875 C3.41986572 33.46336426 3.41986572 33.46336426 3.30224609 32.18261719 C3.18357178 30.85472168 3.18357178 30.85472168 3.0625 29.5 C2.45691065 23.00873063 1.66814697 16.67235963 0.375 10.27734375 C-0.19518302 6.81466978 -0.13211357 3.50100966 0 0 Z " fill="#909090" transform="translate(1227,133)"/>
<path d="M0 0 C0 0.33 0 0.66 0 1 C-35.49179672 6.45468187 -35.49179672 6.45468187 -46 6 C-46 5.67 -46 5.34 -46 5 C-30.6106801 2.24869781 -15.67452181 -0.07906442 0 0 Z " fill="#909090" transform="translate(1113,687)"/>
<path d="M0 0 C-4.50310943 2.50172746 -8.7543481 3.13061711 -13.86328125 3.09765625 C-15.19262695 3.09282227 -15.19262695 3.09282227 -16.54882812 3.08789062 C-17.46083984 3.07951172 -18.37285156 3.07113281 -19.3125 3.0625 C-20.24384766 3.05798828 -21.17519531 3.05347656 -22.13476562 3.04882812 C-24.42324373 3.03709234 -26.71158808 3.02067363 -29 3 C-29 2.67 -29 2.34 -29 2 C-9.65957447 -0.38297872 -9.65957447 -0.38297872 0 0 Z " fill="#949494" transform="translate(427,12)"/>
</svg>
